<svg xmlns="http://www.w3.org/2000/svg" width="107" height="32" viewBox="0 0 107 32"><path fill="#505050" d="M69.717 9.617a1.52 1.52 0 10-3.04 0 1.52 1.52 0 003.04 0zm-7.119 14.807h2.303v-6.74c0-2.526-1.515-4.28-3.993-4.28-1.319 0-2.391.484-3.117 1.315v-6.76l-2.303.818v15.651h2.303v-6.41c0-1.47 1.031-2.501 2.458-2.501s2.345 1.011 2.345 2.501v6.406h.004zm-8.718-5.403c0-3.207-2.216-5.62-5.287-5.62-1.577 0-2.963.635-3.752 1.758v-1.516h-2.149l-.033 14.732h2.303l.037-5.27c.835.99 2.128 1.558 3.597 1.558 3.067 0 5.283-2.414 5.283-5.641zm-2.365.021c0 2.084-1.448 3.512-3.293 3.512-1.623 0-3.246-1.098-3.246-3.533 0-2.459 1.644-3.512 3.246-3.512 1.865 0 3.293 1.449 3.293 3.533zm-13.404 5.382h2.303V7.959l-2.303.856v15.609zm-2.04-4.635c.067-.284.175-.856.175-1.449 0-2.831-2.107-4.94-4.978-4.94-3.138 0-5.571 2.48-5.571 5.641 0 3.182 2.458 5.62 5.792 5.62 1.711 0 3.159-.66 4.298-1.733l-1.098-1.583c-.901.789-1.886 1.274-3.138 1.274-1.845 0-3.205-1.052-3.51-2.831h8.029zm-2.129-1.799h-5.859c.351-1.603 1.582-2.635 3.092-2.635 1.473 0 2.721.944 2.767 2.635zm-12.076 6.434h2.149V7.959h-.017l-2.312.864v6.142c-.814-.99-2.107-1.558-3.597-1.558-3.05 0-5.266 2.439-5.266 5.641 0 3.207 2.195 5.62 5.266 5.62 1.602 0 2.984-.66 3.772-1.779v1.532h.004zm-.129-5.382c0 2.459-1.644 3.512-3.247 3.512-1.886 0-3.313-1.449-3.313-3.533s1.448-3.512 3.313-3.512c1.602 0 3.247 1.098 3.247 3.533zM8.951 24.424h2.237V13.642H9.039v1.537C8.25 14.06 6.865 13.4 5.267 13.4c-3.071 0-5.266 2.439-5.266 5.641 0 3.207 2.216 5.62 5.266 5.62 1.515 0 2.875-.593 3.685-1.624v1.386zm-.042-5.382c0 2.439-1.644 3.512-3.247 3.512-1.865 0-3.313-1.428-3.313-3.512 0-2.063 1.448-3.533 3.313-3.533 1.598 0 3.247 1.077 3.247 3.533zm60.386-5.399h-2.303v10.782h2.303V13.643z"/><path fill="#e81a33" d="M106.871 16.537c.008-.18.012-.355.012-.535 0-8.168-6.622-14.79-14.792-14.795-8.171 0-14.792 6.623-14.792 14.79 0 .18.008.355.013.535.284 7.921 6.789 14.26 14.78 14.26 7.991.004 14.496-6.33 14.78-14.256z"/><path fill="#fff" d="M98.476 12.215a5.06 5.06 0 00-5.053-5.057h-2.454a5.06 5.06 0 00-5.053 5.057h2.504a2.552 2.552 0 012.549-2.551h2.454a2.553 2.553 0 012.55 2.551l-.004 9.688h2.504l.004-9.688zm-12.531 5.62a4.788 4.788 0 00-.363 1.825c0 1.282.501 2.485 1.41 3.382a4.743 4.743 0 003.355 1.382h3.121v-2.505h-3.121a2.244 2.244 0 01-1.59-.656 2.245 2.245 0 01-.667-1.603c0-.301.058-.593.171-.864a2.187 2.187 0 011.198-1.198l.004-.008 4.006-1.662v-2.71l-4.966 2.059v.008a4.676 4.676 0 00-2.558 2.551z"/></svg>