<svg version="1.1" id="Ebene_1" xmlns="http://www.w3.org/2000/svg" x="0" y="0" viewBox="0 0 668.7 127.7" xml:space="preserve">
  <style>
    .st4{fill:#76b828}.st5{fill:#5caa2f}.st6{fill:#2f9437}.st7{fill:#00853a}.st8{fill:#8a9aa2}
  </style>
  <path d="M265.6 23.9c-.6-1.3-.7-2.7-.4-4.1.4-1.3 1.3-2.3 2.4-2.9 2.4-1.1 5.4.1 6.6 2.7.7 1.4.8 2.8.4 4.1-.4 1.3-1.3 2.3-2.4 2.9-2.4 1.1-5.3-.1-6.6-2.7zm-7.1-14.6c-.6-1.3-.7-2.7-.4-4.1.4-1.3 1.3-2.3 2.4-2.9 2.4-1.1 5.4.1 6.6 2.7.7 1.4.8 2.8.4 4.1-.4 1.3-1.3 2.3-2.4 2.9-2.4 1.1-5.3-.1-6.6-2.7zm14.3 29.2c-.6-1.3-.7-2.7-.4-4.1.4-1.3 1.3-2.3 2.4-2.9 2.4-1.1 5.4.1 6.6 2.7.7 1.4.8 2.8.4 4.1-.4 1.3-1.3 2.3-2.4 2.9-2.4 1.1-5.3-.1-6.6-2.7z" fill="#dde1e3"/>
  <path d="M254.6 34.5c-.6-1.3-.8-2.7-.6-4 .3-1.3 1-2.3 2.1-2.8 2.1-1.1 5 .2 6.3 2.8.7 1.4.9 2.8.6 4.1-.3 1.3-1 2.3-2.1 2.8-2.1 1.1-5-.2-6.3-2.8v-.1zm-7.5-14.4c-.6-1.3-.8-2.7-.5-4 .3-1.3 1.1-2.3 2.1-2.8 2.2-1 5 .2 6.3 2.8.7 1.4.9 2.8.6 4.1-.3 1.3-1.1 2.3-2.1 2.8-2.2 1-5-.2-6.3-2.8l-.1-.1zm15 28.9c-.6-1.3-.8-2.7-.5-4 .3-1.3 1-2.3 2.1-2.8 2.1-1.1 5 .2 6.3 2.8.7 1.4.9 2.8.6 4.1-.3 1.3-1 2.3-2.1 2.8-2.1 1.1-5-.2-6.3-2.8l-.1-.1z" fill="#d3d8dc"/>
  <path d="M245.5 46.2c-.6-1.3-.9-2.7-.6-3.9.2-1.2.9-2.2 1.9-2.7 2-.9 4.6.4 6 3 .7 1.4.9 2.8.7 4-.2 1.2-.9 2.2-1.9 2.7-2 1-4.6-.4-6-3l-.1-.1zm7.5 14.3c-.6-1.3-.9-2.7-.6-3.9.2-1.2.9-2.2 1.9-2.7 2-.9 4.6.4 6 3 .7 1.4.9 2.8.7 4-.2 1.2-.9 2.2-1.9 2.7-2 1-4.6-.4-6-3l-.1-.1zm-15-28.7c-.7-1.3-.9-2.7-.7-3.9.2-1.2.9-2.2 1.8-2.7 2-1 4.6.4 6 3 .7 1.4.9 2.8.7 4-.2 1.2-.9 2.2-1.9 2.7-2 1-4.6-.4-6-3l.1-.1z" fill="#b9c2c8"/>
  <path d="M231.9 46.7c-.7-1.3-.9-2.7-.8-3.9.2-1.2.8-2.1 1.6-2.6 1.8-.9 4.4.5 5.7 3.1.7 1.4 1 2.8.8 4-.2 1.2-.8 2.1-1.6 2.6-1.8.9-4.4-.5-5.7-3.1v-.1zm8 15.2c-.7-1.3-.9-2.7-.8-3.9.2-1.2.8-2.1 1.6-2.6 1.8-.9 4.4.5 5.7 3.1.7 1.4 1 2.8.8 4-.2 1.2-.8 2.1-1.6 2.6-1.8.9-4.4-.5-5.7-3.1v-.1zm-12.7-.7c-.6-1.4-.8-2.8-.6-4 .2-1.2.8-2.1 1.7-2.5 1.8-.7 4.3.9 5.5 3.7.6 1.5.8 2.9.6 4.1-.2 1.2-.8 2.1-1.7 2.5-1.8.7-4.3-.9-5.5-3.7v-.1z" fill="#a1aeb5"/>
  <circle class="st4" cx="358.1" cy="18.5" r="6"/>
  <circle class="st4" cx="333.1" cy="18" r="6"/>
  <circle class="st4" cx="345.4" cy="30.9" r="6"/>
  <circle class="st4" cx="357.7" cy="43.9" r="6"/>
  <circle class="st4" cx="332.6" cy="43.3" r="6"/>
  <circle class="st4" cx="320.6" cy="30" r="6"/>
  <circle class="st4" cx="308.6" cy="16.8" r="6"/>
  <circle class="st4" cx="344.7" cy="56.5" r="6"/>
  <circle class="st4" cx="356.7" cy="69.8" r="6"/>
  <ellipse transform="rotate(-40.456 307.999131 41.609635)" class="st5" cx="308" cy="41.6" rx="5.9" ry="6"/>
  <ellipse transform="rotate(-40.456 319.591751 55.211262)" class="st5" cx="319.6" cy="55.2" rx="5.9" ry="6"/>
  <ellipse transform="rotate(-40.456 331.159574 68.865548)" class="st5" cx="331.2" cy="68.9" rx="5.9" ry="6"/>
  <ellipse transform="rotate(-40.456 316.999148 80.385416)" class="st5" cx="317" cy="80.4" rx="5.9" ry="6"/>
  <ellipse transform="rotate(-40.456 306.131338 66.156731)" class="st5" cx="306.1" cy="66.2" rx="5.9" ry="6"/>
  <ellipse transform="rotate(-40.456 295.335137 51.904348)" class="st5" cx="295.3" cy="51.9" rx="5.9" ry="6"/>
  <ellipse transform="rotate(-33.431 282.395872 61.148343)" class="st6" cx="282.4" cy="61.1" rx="5.8" ry="6"/>
  <ellipse transform="rotate(-33.322 292.20654 76.100046)" class="st6" cx="292.2" cy="76.1" rx="5.8" ry="6"/>
  <ellipse transform="rotate(-33.238 302.002361 91.0361)" class="st6" cx="302" cy="91" rx="5.8" ry="6"/>
  <ellipse transform="rotate(-29.704 277.9154 84.358594)" class="st6" cx="277.9" cy="84.4" rx="5.3" ry="6"/>
  <ellipse transform="rotate(-29.704 269.052178 68.821506)" class="st6" cx="269.1" cy="68.8" rx="5.3" ry="6"/>
  <ellipse transform="rotate(-29.704 286.816586 99.861351)" class="st6" cx="286.8" cy="99.9" rx="5.3" ry="6"/>
  <ellipse transform="rotate(-26.865 263.822149 90.465588)" class="st7" cx="263.8" cy="90.5" rx="5" ry="6"/>
  <ellipse transform="rotate(-26.865 255.708928 74.550023)" class="st7" cx="255.7" cy="74.6" rx="5" ry="6"/>
  <ellipse transform="rotate(-26.865 271.93641 106.45)" class="st7" cx="272" cy="106.5" rx="5" ry="6"/>
  <ellipse transform="rotate(-25.177 242.097597 77.047183)" class="st7" cx="242.1" cy="77" rx="4.6" ry="6"/>
  <ellipse transform="rotate(-25.11 249.560774 93.36152)" class="st7" cx="249.6" cy="93.4" rx="4.6" ry="6"/>
  <ellipse transform="rotate(-24.838 257.049304 109.53716)" class="st7" cx="257" cy="109.5" rx="4.6" ry="6"/>
  <path class="st7" d="M235.5 96.6c-2.3-.2-4.5-2.9-5.2-6-.3-1.8-.1-3.4.8-4.4.5-.7 1.3-1.1 2.1-1.1 2.6.1 5 2.9 5.6 6.1.3 1.8.1 3.4-.8 4.4-.5.7-1.3 1-2.1 1.1l-.4-.1zm-6.8-15.5c-2.3-.2-4.5-2.9-5.2-6-.3-1.8-.1-3.4.8-4.4.5-.7 1.3-1.1 2.1-1.1 2.6.1 5 2.9 5.6 6.1.3 1.8.1 3.4-.8 4.4-.5.7-1.3 1-2.1 1.1l-.4-.1zm14 31.9c-2.3-.2-4.5-2.9-5.2-6-.3-1.8-.1-3.4.8-4.4.5-.7 1.3-1.1 2.1-1.1 2.6.1 5 2.9 5.6 6.1.3 1.8.1 3.4-.8 4.4-.5.7-1.3 1-2.1 1.1l-.4-.1z"/>
  <path class="st4" d="M2 70.6c0-3.8 3-6.8 6.8-6.8h34.4c3.4 0 6.2 2.7 6.2 6.1 0 3.4-2.7 6.2-6.2 6.2H15.5v13.1h23.7c3.4 0 6.1 2.7 6.1 6.2 0 3.4-2.7 6.1-6.1 6.1H15.5v17.6c0 3.8-3 6.8-6.8 6.8s-6.8-3-6.8-6.8c.1 0 .1-48.5.1-48.5zm52.7 47.9v-48c0-3.8 3-6.8 6.8-6.8h34.1c3.3 0 6.1 2.7 6.1 6.1 0 3.3-2.7 6-6.1 6H68.2v12.5h23.5c3.3 0 6.1 2.7 6.1 6.1s-2.7 6-6.1 6H68.2v12.9H96c3.3 0 6.1 2.7 6.1 6.1s-2.7 6-6.1 6H61.5c-3.8-.1-6.8-3.1-6.8-6.9zm98.1.6c0 3.7-3 6.7-6.7 6.7s-6.7-3-6.7-6.7v-.6c-3.3 4.4-7.7 7.6-14.7 7.6-11 0-21.4-8.6-21.4-24.3v-.2c0-15.7 10.3-24.3 21.4-24.3 7.1 0 11.5 3.3 14.7 7v-17c0-3.7 3-6.7 6.7-6.7s6.7 3 6.7 6.7v51.8zm-36.1-17.4v.2c0 7.8 5.3 13 11.5 13s11.4-5.2 11.4-13v-.2c0-7.8-5.2-13-11.4-13s-11.5 5.1-11.5 13zm40.1 14.9l21.4-48.4c1.5-3.3 4.2-5.4 7.9-5.4h.8c3.7 0 6.3 2 7.8 5.4l21.4 48.4c.4 1 .7 1.8.7 2.7 0 3.6-2.8 6.5-6.4 6.5-3.2 0-5.3-1.8-6.5-4.7l-4.1-9.7h-27.1l-4.3 10.1c-1.1 2.6-3.4 4.2-6.2 4.2-3.5 0-6.2-2.8-6.2-6.3 0-.9.4-1.8.8-2.8zm38.1-17l-8.5-20.3-8.5 20.3h17z"/>
  <path class="st8" d="M387.1 76.2h6.1c3.4 0 5.1 1.4 5.1 4.3 0 2-.8 3.4-2.3 4 1.9.6 2.9 2 2.9 4.1 0 1.7-.5 3-1.4 3.7-.9.7-2.2 1.1-3.9 1.1h-6.5V76.2zm6.1 1.4h-4.5V84h4.8c1.2 0 2-.3 2.5-.8.5-.6.8-1.4.8-2.5s-.3-1.9-.9-2.4-1.5-.7-2.7-.7zm.3 7.8h-4.8v6.7h4.9c1.2 0 2.1-.3 2.8-.8.6-.5 1-1.4 1-2.7-.1-2.1-1.4-3.2-3.9-3.2zM402.4 93.5V76.2h2.9l5.3 15.1 5.3-15.1h2.9v17.2h-1.5V77.8h-.3l-5.4 15.1h-1.8l-5.4-15.1h-.4v15.6h-1.6zM423.1 76.2h6.1c3.4 0 5.1 1.4 5.1 4.3 0 2-.8 3.4-2.3 4 1.9.6 2.9 2 2.9 4.1 0 1.7-.5 3-1.4 3.7-.9.7-2.2 1.1-3.9 1.1h-6.5V76.2zm6.1 1.4h-4.5V84h4.8c1.2 0 2-.3 2.5-.8.5-.6.8-1.4.8-2.5s-.3-1.9-.9-2.4-1.5-.7-2.7-.7zm.3 7.8h-4.8v6.7h4.9c1.2 0 2.1-.3 2.8-.8.6-.5 1-1.4 1-2.7 0-2.1-1.3-3.2-3.9-3.2zM438.4 93.5V76.2h10.2v1.4H440v7.1h7.3v1.4H440v7.4h-1.6zM451.1 87.3v-1.4h7.5v1.4h-7.5zM462.5 93.5V76.2h10.2v1.4H464v7.1h7.3v1.4H464v7.4h-1.5zM474.2 87.2c0-2.3.4-4 1.2-5 .8-1 2.1-1.5 4-1.5s3.2.5 4 1.5c.8 1 1.2 2.6 1.2 5 0 2.3-.4 4-1.1 5-.7 1-2.1 1.5-4.1 1.5s-3.4-.5-4.1-1.5c-.7-1-1.1-2.6-1.1-5zm1.6 0c0 2 .2 3.3.7 4.1.5.8 1.4 1.1 3 1.1 1.5 0 2.5-.4 3-1.1.5-.8.7-2.1.7-4.1 0-1.9-.3-3.3-.8-4-.5-.7-1.5-1.1-2.9-1.1s-2.4.4-2.9 1.1-.8 2.1-.8 4zM487.8 93.5V81.1h1.5v1.8c.6-.4 1.4-.8 2.2-1.2.9-.4 1.7-.7 2.4-.8v1.5c-.7.1-1.5.4-2.2.7-.8.3-1.4.6-1.8.8l-.6.4v9.3h-1.5zM500 82.2c-2 0-2.9.7-2.9 2.1 0 .6.2 1.1.6 1.4.4.3 1.4.5 2.9.8 1.5.3 2.6.6 3.2 1.1.6.4.9 1.3.9 2.6s-.4 2.2-1.2 2.8c-.8.6-2 .9-3.6.9-.9 0-2.1-.1-3.5-.3l-.7-.1.1-1.3c1.9.3 3.3.4 4.3.4s1.8-.2 2.3-.5c.6-.3.8-.9.8-1.8 0-.8-.2-1.4-.7-1.6-.5-.3-1.4-.5-2.9-.8s-2.5-.6-3.2-1c-.6-.4-.9-1.2-.9-2.4s.4-2.1 1.3-2.6c.8-.5 1.9-.8 3.1-.8 1 0 2.2.1 3.7.3l.7.1v1.3c-1.8-.5-3.2-.6-4.3-.6zM512.4 80.8c.7 0 1.6.1 2.7.2l.6.1-.1 1.3c-1.3-.2-2.3-.2-2.9-.2-1.5 0-2.5.4-3 1.1-.5.7-.8 2-.8 4 0 1.9.2 3.3.7 4s1.5 1.1 3.1 1.1l3-.2v1.3c-1.5.2-2.6.3-3.3.3-2 0-3.3-.5-4-1.5-.7-1-1.1-2.7-1.1-5 0-2.4.4-4 1.2-5s2-1.5 3.9-1.5zM519.9 93.5h-1.5V75.6h1.5v6.2c1.4-.6 2.7-1 4-1 1.7 0 2.8.4 3.3 1.3s.8 2.5.8 4.8v6.5h-1.5V87c0-1.9-.2-3.2-.5-3.9-.4-.7-1.1-1-2.3-1-.6 0-1.2.1-1.8.2-.6.1-1.1.3-1.5.4l-.5.2v10.6zM539.5 81.1h1.5v12.4h-1.5v-.9c-1.3.8-2.5 1.2-3.8 1.2-1.7 0-2.8-.4-3.3-1.3s-.8-2.5-.8-4.9v-6.5h1.5v6.4c0 1.9.2 3.2.5 3.9s1.1 1 2.3 1c.6 0 1.2-.1 1.8-.3s1.1-.4 1.4-.5l.5-.2V81.1zM546.2 93.5h-1.5V81.1h1.5v.9c1.4-.8 2.7-1.2 4-1.2 1.7 0 2.8.4 3.3 1.3s.8 2.5.8 4.8v6.5h-1.5V87c0-1.9-.2-3.2-.5-3.9-.4-.7-1.1-1-2.3-1-.6 0-1.2.1-1.8.3s-1.1.4-1.5.5l-.5.2v10.4zM568 95.4c0 1.4-.5 2.4-1.4 3-.9.6-2.3.9-4.2.9-1.9 0-3.2-.3-3.9-.8s-1.1-1.5-1.1-3c0-.7.1-1.3.4-1.7.3-.4.8-.9 1.6-1.5-.4-.3-.6-.8-.6-1.7 0-.3.2-.8.6-1.6l.2-.4c-1.4-.6-2-1.8-2-3.7 0-2.8 1.5-4.2 4.5-4.2.8 0 1.6.1 2.2.2l.4.1 3.6-.1v1.3h-2.5c.6.6.9 1.6.9 2.9 0 1.4-.4 2.4-1.1 3-.8.6-1.9.9-3.6.9-.5 0-.9 0-1.3-.1-.3.8-.5 1.3-.5 1.5 0 .5.2.9.5 1s1.3.2 2.9.2c1.6 0 2.7.2 3.4.7.6.7 1 1.7 1 3.1zm-9.1 0c0 1 .2 1.7.7 2.1.5.4 1.5.6 2.9.6s2.4-.2 3-.6c.6-.4.9-1.1.9-2 0-1-.2-1.6-.7-1.8-.4-.3-1.3-.4-2.6-.4l-2.8-.1c-.6.4-1 .8-1.2 1.1s-.2.6-.2 1.1zM559 85c0 1.1.2 1.8.7 2.3.5.4 1.2.7 2.3.7 1.1 0 1.9-.2 2.3-.6.5-.4.7-1.2.7-2.3s-.2-1.8-.7-2.3-1.2-.7-2.3-.7c-1.1 0-1.9.2-2.3.7-.4.4-.7 1.2-.7 2.2zM574.3 82.2c-2 0-2.9.7-2.9 2.1 0 .6.2 1.1.6 1.4.4.3 1.4.5 2.9.8 1.5.3 2.6.6 3.2 1.1.6.4.9 1.3.9 2.6s-.4 2.2-1.2 2.8c-.8.6-2 .9-3.6.9-.9 0-2.1-.1-3.5-.3l-.7-.1.1-1.3c1.9.3 3.3.4 4.3.4s1.8-.2 2.3-.5c.6-.3.8-.9.8-1.8 0-.8-.2-1.4-.7-1.6-.5-.3-1.4-.5-2.9-.8s-2.5-.6-3.2-1c-.6-.4-.9-1.2-.9-2.4s.4-2.1 1.3-2.6c.8-.5 1.9-.8 3.1-.8 1 0 2.2.1 3.7.3l.7.1v1.3c-1.8-.5-3.2-.6-4.3-.6zM582.1 78v-1.9h1.5V78h-1.5zm0 15.5V81.1h1.5v12.4h-1.5zM588.7 93.5h-1.5V81.1h1.5v.9c1.4-.8 2.7-1.2 4-1.2 1.7 0 2.8.4 3.3 1.3s.8 2.5.8 4.8v6.5h-1.5V87c0-1.9-.2-3.2-.5-3.9-.4-.7-1.1-1-2.3-1-.6 0-1.2.1-1.8.3-.6.2-1.1.4-1.5.5l-.5.2v10.4zM600.5 78v-1.9h1.5V78h-1.5zm0 15.5V81.1h1.5v12.4h-1.5zM611.9 82.4h-4.1v6.1c0 1.6.1 2.7.3 3.1.2.5.8.7 1.6.7l2.3-.2.1 1.3c-1.1.2-1.9.2-2.5.2-1.3 0-2.1-.3-2.6-.9-.5-.6-.7-1.8-.7-3.6v-6.9h-1.8v-1.3h1.8V77h1.5v3.9h4.1v1.5zM614.2 78v-1.9h1.5V78h-1.5zm0 15.5V81.1h1.5v12.4h-1.5zM628 84.8v6.6c.1.6.6 1 1.6 1.1l-.1 1.2c-1.3 0-2.2-.3-2.8-1-1.6.7-3.1 1-4.7 1-1.1 0-2-.3-2.5-1-.6-.6-.9-1.5-.9-2.7 0-1.2.3-2.1.9-2.6s1.5-.9 2.8-1.1l4.2-.4v-1.2c0-.9-.2-1.6-.6-2-.4-.4-.9-.6-1.6-.6-1.1 0-2.4.1-4.1.3l-.8.1-.1-1.2c1.8-.3 3.4-.5 4.8-.5s2.4.3 3 1c.5.6.9 1.6.9 3zm-7.8 5.2c0 1.7.7 2.5 2.1 2.5.6 0 1.2-.1 2-.2.7-.1 1.3-.3 1.7-.4l.6-.2v-4.5l-4 .4c-.8.1-1.4.3-1.7.7s-.7.9-.7 1.7zM638.1 82.4H634v6.1c0 1.6.1 2.7.3 3.1.2.5.8.7 1.6.7l2.3-.2.1 1.3c-1.1.2-1.9.2-2.5.2-1.3 0-2.1-.3-2.6-.9-.5-.6-.7-1.8-.7-3.6v-6.9h-1.8v-1.3h1.8V77h1.5v3.9h4.1v1.5zM640.4 78v-1.9h1.5V78h-1.5zm0 15.5V81.1h1.5v12.4h-1.5zM644.4 81.1h1.6l3.1 11.1h1l3.2-11.1h1.5l-3.6 12.4H648l-3.6-12.4zM665.4 92.2l.7-.1v1.2c-1.9.2-3.4.3-4.7.3-1.8 0-3-.5-3.7-1.6-.7-1-1.1-2.6-1.1-4.8 0-4.3 1.7-6.5 5.1-6.5 1.6 0 2.9.5 3.7 1.4.8.9 1.2 2.4 1.2 4.5v1.2h-8.4c0 1.5.3 2.6.8 3.4.5.7 1.4 1.1 2.7 1.1s2.4 0 3.7-.1zm-7.2-5.5h7c0-1.6-.3-2.8-.8-3.5s-1.4-1-2.6-1-2.1.4-2.7 1.1-.9 1.8-.9 3.4zM386 113.8v-1.3h9.2v1.3l-7.4 9.7h7.4v1.3H386v-1.3l7.4-9.7H386zM406 112.5h1.5v12.4H406v-.9c-1.3.8-2.5 1.2-3.8 1.2-1.7 0-2.8-.4-3.3-1.3s-.8-2.5-.8-4.9v-6.5h1.5v6.4c0 1.9.2 3.2.5 3.9s1.1 1 2.3 1c.6 0 1.2-.1 1.8-.3s1.1-.4 1.4-.5l.5-.2v-10.3zM412.6 124.9h-1.5v-12.4h1.5v.9c1.3-.8 2.6-1.2 4-1.2s2.4.4 3 1.3c.6-.4 1.3-.7 2.2-.9.9-.3 1.6-.4 2.3-.4 1.7 0 2.8.4 3.3 1.3.6.9.8 2.5.8 4.8v6.5h-1.5v-6.4c0-1.9-.2-3.2-.5-3.9-.4-.7-1.1-1-2.3-1-.6 0-1.2.1-1.8.3-.6.2-1.1.4-1.4.5l-.5.2c.2.6.4 1.9.4 3.8v6.4H419v-6.4c0-1.9-.2-3.2-.5-3.9-.4-.7-1.1-1-2.3-1-.6 0-1.2.1-1.8.3-.6.2-1.1.4-1.4.5l-.5.2v10.5zM437.6 124.9v-17.2h10.3v1.4h-8.8v6.4h7.3v1.4h-7.3v6.7h8.8v1.4h-10.3zM451 124.9v-12.4h1.5v1.8c.6-.4 1.4-.8 2.2-1.2.9-.4 1.7-.7 2.4-.8v1.5c-.7.1-1.5.4-2.2.7-.8.3-1.4.6-1.8.8l-.6.4v9.3H451zM460.8 124.9h-1.5V107h1.5v6.2c1.4-.6 2.7-1 4-1 1.7 0 2.8.4 3.3 1.3.6.9.8 2.5.8 4.8v6.5h-1.5v-6.4c0-1.9-.2-3.2-.5-3.9-.4-.7-1.1-1-2.3-1-.6 0-1.2.1-1.8.2s-1.1.3-1.5.4l-.5.2v10.6zM481.1 116.2v6.6c.1.6.6 1 1.6 1.1l-.1 1.2c-1.3 0-2.2-.3-2.8-1-1.6.7-3.1 1-4.7 1-1.1 0-2-.3-2.5-1-.6-.6-.9-1.5-.9-2.7 0-1.2.3-2.1.9-2.6s1.5-.9 2.8-1.1l4.2-.4v-1.2c0-.9-.2-1.6-.6-2-.4-.4-.9-.6-1.6-.6-1.1 0-2.4.1-4.1.3l-.8.1-.1-1.2c1.8-.3 3.4-.5 4.8-.5s2.4.3 3 1c.6.6.9 1.6.9 3zm-7.8 5.2c0 1.7.7 2.5 2.1 2.5.6 0 1.2-.1 2-.2s1.3-.3 1.7-.4l.6-.2v-4.5l-4 .4c-.8.1-1.4.3-1.7.7s-.7.9-.7 1.7zM485.1 124.9V107h1.5v17.9h-1.5zM496.7 113.8h-4.1v6.1c0 1.6.1 2.7.3 3.1.2.5.8.7 1.6.7l2.3-.2.1 1.3c-1.1.2-1.9.2-2.5.2-1.3 0-2.1-.3-2.6-.9-.5-.6-.7-1.8-.7-3.6v-6.9h-1.8v-1.3h1.8v-3.9h1.5v3.9h4.1v1.5zM513.8 107v17.9h-1.5v-.9c-1.3.8-2.6 1.2-4 1.2-.6 0-1.1-.1-1.6-.2s-.9-.4-1.4-.8c-.9-.8-1.4-2.5-1.4-4.9s.4-4.2 1.2-5.3c.8-1.1 2.1-1.6 4-1.6.7 0 1.8.1 3.1.3V107h1.6zm-6.4 16.6c.3.1.7.2 1.2.2s1-.1 1.7-.3c.6-.2 1.1-.4 1.5-.5l.5-.3v-8.9c-1.3-.2-2.3-.3-3.1-.3-1.4 0-2.4.4-2.9 1.3s-.8 2.2-.8 4c0 2.1.3 3.5 1 4.1.3.4.6.6.9.7zM525.7 123.6l.7-.1v1.2c-1.9.2-3.4.3-4.7.3-1.8 0-3-.5-3.7-1.6-.7-1-1.1-2.6-1.1-4.8 0-4.3 1.7-6.5 5.1-6.5 1.6 0 2.9.5 3.7 1.4.8.9 1.2 2.4 1.2 4.5v1.2h-8.4c0 1.5.3 2.6.8 3.4s1.4 1.1 2.7 1.1 2.4 0 3.7-.1zm-7.2-5.5h7c0-1.6-.3-2.8-.8-3.5s-1.4-1-2.6-1c-1.2 0-2.1.4-2.7 1.1-.6.6-.9 1.8-.9 3.4zM530 124.9v-12.4h1.5v1.8c.6-.4 1.4-.8 2.2-1.2.9-.4 1.7-.7 2.4-.8v1.5c-.7.1-1.5.4-2.2.7s-1.4.6-1.8.8l-.6.4v9.3H530zM542.6 124.9l5-17.2h3.6l4.9 17.2h-1.5l-1.4-4.8h-7.7l-1.4 4.8h-1.5zm6.1-15.9l-2.8 9.8h6.9L550 109h-1.3zM558.6 124.9v-12.4h1.5v1.8c.6-.4 1.4-.8 2.2-1.2.9-.4 1.7-.7 2.4-.8v1.5c-.7.1-1.5.4-2.2.7s-1.4.6-1.8.8l-.6.4v9.3h-1.5zM573.3 113.8h-4.1v6.1c0 1.6.1 2.7.3 3.1.2.5.8.7 1.6.7l2.3-.2.1 1.3c-1.1.2-1.9.2-2.5.2-1.3 0-2.1-.3-2.6-.9-.5-.6-.7-1.8-.7-3.6v-6.9h-1.8v-1.3h1.8v-3.9h1.5v3.9h4.1v1.5zM583.8 123.6l.7-.1v1.2c-1.9.2-3.4.3-4.7.3-1.8 0-3-.5-3.7-1.6-.7-1-1.1-2.6-1.1-4.8 0-4.3 1.7-6.5 5.1-6.5 1.6 0 2.9.5 3.7 1.4.8.9 1.2 2.4 1.2 4.5v1.2h-8.4c0 1.5.3 2.6.8 3.4.5.7 1.4 1.1 2.7 1.1s2.4 0 3.7-.1zm-7.2-5.5h7c0-1.6-.3-2.8-.8-3.5s-1.4-1-2.6-1-2.1.4-2.7 1.1-.9 1.8-.9 3.4zM589.5 124.9H588v-12.4h1.5v.9c1.4-.8 2.7-1.2 4-1.2 1.7 0 2.8.4 3.3 1.3s.8 2.5.8 4.8v6.5h-1.5v-6.4c0-1.9-.2-3.2-.5-3.9-.4-.7-1.1-1-2.3-1-.6 0-1.2.1-1.8.3-.6.2-1.1.4-1.5.5l-.5.2v10.4zM600 112.5h1.6l3.1 11.1h1l3.2-11.1h1.5l-3.6 12.4h-3.2l-3.6-12.4zM613 109.4v-1.9h1.5v1.9H613zm0 15.5v-12.4h1.5v12.4H613zM626.4 123.6l.7-.1v1.2c-1.9.2-3.4.3-4.7.3-1.8 0-3-.5-3.7-1.6-.7-1-1.1-2.6-1.1-4.8 0-4.3 1.7-6.5 5.1-6.5 1.6 0 2.9.5 3.7 1.4.8.9 1.2 2.4 1.2 4.5v1.2h-8.4c0 1.5.3 2.6.8 3.4.5.7 1.4 1.1 2.7 1.1s2.4 0 3.7-.1zm-7.3-5.5h7c0-1.6-.3-2.8-.8-3.5s-1.4-1-2.6-1-2.1.4-2.7 1.1-.9 1.8-.9 3.4zM630.8 124.9V107h1.5v17.9h-1.5zM638.1 113.8v11.1h-1.5v-11.1H635v-1.3h1.6v-1.3c0-1.8.2-2.9.7-3.6.5-.6 1.3-.9 2.6-.9l2.4.1v1.3h-2.2c-.8 0-1.3.2-1.6.6-.3.4-.4 1.3-.4 2.5v1.2h3.7v1.3h-3.7zM652.7 116.2v6.6c.1.6.6 1 1.6 1.1l-.1 1.2c-1.3 0-2.2-.3-2.8-1-1.6.7-3.1 1-4.7 1-1.1 0-2-.3-2.5-1-.6-.6-.9-1.5-.9-2.7 0-1.2.3-2.1.9-2.6s1.5-.9 2.8-1.1l4.2-.4v-1.2c0-.9-.2-1.6-.6-2-.4-.4-.9-.6-1.6-.6-1.1 0-2.4.1-4.1.3l-.8.1-.1-1.2c1.8-.3 3.4-.5 4.8-.5s2.4.3 3 1c.6.6.9 1.6.9 3zm-7.8 5.2c0 1.7.7 2.5 2.1 2.5.6 0 1.2-.1 2-.2.7-.1 1.3-.3 1.7-.4l.6-.2v-4.5l-4 .4c-.8.1-1.4.3-1.7.7s-.7.9-.7 1.7zM656.7 124.9V107h1.5v17.9h-1.5zM668.3 113.8h-4.1v6.1c0 1.6.1 2.7.3 3.1.2.5.8.7 1.6.7l2.3-.2.1 1.3c-1.1.2-1.9.2-2.5.2-1.3 0-2.1-.3-2.6-.9-.5-.6-.7-1.8-.7-3.6v-6.9h-1.8v-1.3h1.8v-3.9h1.5v3.9h4.1v1.5z"/>
</svg>
