<?xml version="1.0" encoding="UTF-8" standalone="no"?>
<!-- Created with Inkscape (http://www.inkscape.org/) -->

<svg
   width="42.499001mm"
   height="11.684mm"
   viewBox="0 0 42.499001 11.684"
   version="1.1"
   id="svg1751"
   inkscape:version="1.1 (c68e22c387, 2021-05-23)"
   sodipodi:docname="idiv-logo.svg"
   xmlns:inkscape="http://www.inkscape.org/namespaces/inkscape"
   xmlns:sodipodi="http://sodipodi.sourceforge.net/DTD/sodipodi-0.dtd"
   xmlns="http://www.w3.org/2000/svg"
   xmlns:svg="http://www.w3.org/2000/svg">
  <sodipodi:namedview
     id="namedview1753"
     pagecolor="#ffffff"
     bordercolor="#666666"
     borderopacity="1.0"
     inkscape:pageshadow="2"
     inkscape:pageopacity="0.0"
     inkscape:pagecheckerboard="0"
     inkscape:document-units="mm"
     showgrid="false"
     inkscape:zoom="0.77771465"
     inkscape:cx="396.67505"
     inkscape:cy="560.61693"
     inkscape:window-width="3840"
     inkscape:window-height="2066"
     inkscape:window-x="-11"
     inkscape:window-y="-11"
     inkscape:window-maximized="1"
     inkscape:current-layer="layer1" />
  <defs
     id="defs1748" />
  <g
     inkscape:label="Ebene 1"
     inkscape:groupmode="layer"
     id="layer1">
    <path
       d="m 9.7272384,5.1813207 h 0.9620246 c 0.233539,0 0.421569,-0.01164 0.569383,-0.02293 0.370417,-0.03986 0.723195,-0.244827 0.962378,-0.569383 0.261761,-0.364419 0.398639,-0.808567 0.398639,-1.349375 0,-0.711553 -0.176389,-1.218494 -0.540808,-1.577269 -0.244828,-0.233539 -0.529873,-0.364067 -0.865717,-0.392642 -0.159456,-0.01129 -0.461081,-0.02293 -0.688622,-0.02293 H 9.7272384 Z m 1.1729856,-3.30835 c 0.312914,0 0.494947,0.113947 0.626181,0.330553 0.159455,0.261761 0.198966,0.649111 0.198966,1.110191 0,0.837142 -0.239183,1.218495 -0.762705,1.218495 h -0.426861 v -2.659239 z m 2.659239,-0.88229695 c 0.256116,0 0.46108,0.21096095 0.46108,0.47272195 0,0.261761 -0.210961,0.472722 -0.473075,0.472722 -0.256116,0 -0.466725,-0.210961 -0.466725,-0.472722 0,-0.261761 0.216606,-0.47272195 0.47872,-0.47272195 m -0.393347,1.32679695 0.763058,-0.119945 v 2.983795 h -0.763058 z m 2.174875,2.86385 h 0.63253 l 1.064683,-2.915003 h -0.797277 l -0.392642,1.223786 c -0.09102,0.290336 -0.154164,0.569384 -0.176742,0.740128 -0.03986,-0.187678 -0.125236,-0.506589 -0.187677,-0.700264 l -0.42157,-1.315155 -0.779992,0.09666 z"
       style="fill:#231f20;fill-opacity:1;fill-rule:nonzero;stroke:none;stroke-width:0.352778"
       id="path65" />
    <path
       d="M 18.372763,11.260105 V 9.9206077 H 18.099007 V 10.440955 H 17.713421 V 9.9206077 h -0.267758 v 1.3394973 h 0.267758 V 10.6625 h 0.385586 v 0.597605 z m 1.108075,-0.10795 c -0.08678,-0.06562 -0.09454,-0.11183 -0.09243,-0.219428 l 0.0056,-0.331611 c 0.0021,-0.105833 -0.0035,-0.13723 -0.01729,-0.177447 -0.03845,-0.110067 -0.152047,-0.17145 -0.317853,-0.17145 -0.09066,0 -0.173566,0.01729 -0.270227,0.05786 -0.06915,0.02893 -0.107597,0.04798 -0.159456,0.08079 l 0.109714,0.185208 c 0.105833,-0.07161 0.202494,-0.112183 0.285397,-0.112183 0.09419,0 0.115359,0.03704 0.115359,0.146755 v 0.04057 l -0.05786,-0.0021 c -0.313972,0 -0.474133,0.10795 -0.474133,0.339372 0,0.196497 0.119591,0.308328 0.339372,0.308328 0.08079,0 0.150283,-0.0194 0.198261,-0.05398 l 0.05997,-0.05186 c 0.02505,0.05009 0.07902,0.09419 0.138642,0.119239 z m -0.345017,-0.323497 -0.0039,0.211667 c -0.03845,0.04269 -0.08678,0.06773 -0.134761,0.06773 -0.06562,0 -0.113594,-0.05221 -0.113594,-0.12947 0,-0.117475 0.06138,-0.14993 0.240947,-0.14993 z m 0.945444,0.427567 -0.04445,-0.154164 -0.02893,0.0039 -0.05186,-0.02681 c -0.01552,-0.02681 -0.01729,-0.05009 -0.01729,-0.21978 v -0.769056 c 0,-0.1386423 -0.0039,-0.2024943 -0.0134,-0.2564693 l -0.264231,0.05962 c 0.0095,0.0889 0.01341,0.1679223 0.01341,0.2970393 v 0.736247 c 0,0.140758 0.0042,0.171803 0.02328,0.221897 0.03069,0.0829 0.119239,0.134761 0.229306,0.134761 0.05574,0 0.109713,-0.0095 0.154163,-0.02716 m 0.562328,0 -0.04445,-0.154164 -0.02893,0.0039 -0.05221,-0.02681 c -0.01517,-0.02681 -0.01729,-0.05009 -0.01729,-0.21978 V 10.09034 c 0,-0.1386423 -0.0035,-0.2024943 -0.01305,-0.2564693 l -0.26423,0.05962 c 0.0099,0.0889 0.0134,0.1679223 0.0134,0.2970393 v 0.736247 c 0,0.140758 0.0039,0.171803 0.02293,0.221897 0.03104,0.0829 0.119944,0.134761 0.229658,0.134761 0.05574,0 0.109714,-0.0095 0.154164,-0.02716 M 21.5855,10.847758 v -0.05997 c 0,-0.206022 -0.04022,-0.33902 -0.130881,-0.431447 -0.0635,-0.06562 -0.17145,-0.10407 -0.285397,-0.10407 -0.13088,0 -0.229305,0.04233 -0.310092,0.132997 -0.08678,0.09631 -0.123472,0.213784 -0.123472,0.391231 0,0.310091 0.183092,0.510822 0.466725,0.510822 0.138642,0 0.257881,-0.04445 0.371828,-0.136878 l -0.100189,-0.154164 c -0.07937,0.06526 -0.162278,0.09807 -0.250825,0.09807 -0.132644,0 -0.208139,-0.08643 -0.208139,-0.238831 v -0.0078 z m -0.267406,-0.188736 h -0.299155 v -0.0039 c 0,-0.136877 0.05609,-0.214136 0.154164,-0.214136 0.05221,0 0.0889,0.0194 0.113947,0.05786 0.02328,0.03669 0.03104,0.07514 0.03104,0.148519 z m 0.938389,-0.03845 h -0.462844 v 0.223661 h 0.462844 z m 0.5461,0.379589 V 9.9206607 h -0.273755 v 1.1084283 c 0,0.144286 -0.0056,0.198261 -0.02681,0.246591 -0.02293,0.05397 -0.08678,0.119592 -0.156281,0.161925 l 0.125236,0.138642 c 0.121356,-0.04621 0.274108,-0.150283 0.312561,-0.313972 0.01341,-0.05397 0.01905,-0.0889 0.01905,-0.262114 m 1.091142,-0.1524 v -0.05997 c 0,-0.206022 -0.04057,-0.33902 -0.131234,-0.431447 -0.0635,-0.06562 -0.171449,-0.10407 -0.285044,-0.10407 -0.13088,0 -0.229305,0.04233 -0.310444,0.132997 -0.08678,0.09631 -0.123473,0.213784 -0.123473,0.391231 0,0.310091 0.183445,0.510822 0.466725,0.510822 0.138642,0 0.258234,-0.04445 0.371828,-0.136878 l -0.100189,-0.154164 c -0.07902,0.06526 -0.161925,0.09807 -0.250472,0.09807 -0.13335,0 -0.208492,-0.08643 -0.208492,-0.238831 v -0.0078 z m -0.268111,-0.188736 h -0.29845 v -0.0039 c 0,-0.136877 0.05574,-0.214136 0.154164,-0.214136 0.05186,0 0.0889,0.0194 0.113594,0.05786 0.02328,0.03669 0.03069,0.07514 0.03069,0.148519 z m 1.265061,0.601133 v -0.720725 c 0,-0.06174 -0.0056,-0.104069 -0.0194,-0.140758 -0.03069,-0.08502 -0.127353,-0.142522 -0.237067,-0.142522 -0.05786,0 -0.125236,0.01552 -0.177447,0.04233 -0.04233,0.02293 -0.07514,0.04621 -0.113594,0.07303 0,-0.04022 -0.01341,-0.08255 -0.03634,-0.123119 l -0.229659,0.06526 c 0.02328,0.06597 0.03457,0.146756 0.03457,0.231423 v 0.71508 h 0.258587 v -0.697441 c 0.05927,-0.05398 0.127,-0.0889 0.178858,-0.0889 0.06773,0 0.08714,0.03281 0.08714,0.144638 v 0.641703 z m 1.093964,-0.10795 C 25.8975,11.086588 25.8901,11.040378 25.89186,10.93278 l 0.0056,-0.331611 c 0.0021,-0.105833 -0.0035,-0.13723 -0.01729,-0.177447 -0.03845,-0.110067 -0.152047,-0.17145 -0.317852,-0.17145 -0.09031,0 -0.173214,0.01729 -0.269875,0.05786 -0.0695,0.02893 -0.10795,0.04798 -0.160161,0.08079 l 0.110066,0.185208 c 0.105834,-0.07161 0.202495,-0.112183 0.285397,-0.112183 0.09419,0 0.115712,0.03704 0.115712,0.146755 v 0.04057 l -0.05786,-0.0021 c -0.314325,0 -0.474486,0.10795 -0.474486,0.339372 0,0.196497 0.119592,0.308328 0.339372,0.308328 0.08079,0 0.150636,-0.0194 0.198614,-0.05398 l 0.05962,-0.05186 c 0.02505,0.05009 0.07902,0.09419 0.138995,0.119239 z m -0.345017,-0.323497 -0.0039,0.211667 c -0.03881,0.04269 -0.08714,0.06773 -0.135113,0.06773 -0.06526,0 -0.113595,-0.05221 -0.113595,-0.12947 0,-0.117475 0.06138,-0.14993 0.240947,-0.14993 z m 0.969081,-0.208139 h -0.462845 v 0.223661 h 0.462845 z m 1.029052,0.415925 h -0.48013 V 9.9206077 h -0.275872 v 1.3394973 h 0.707672 z m 0.977548,-0.188736 v -0.05997 c 0,-0.206022 -0.04057,-0.33902 -0.131234,-0.431447 -0.06385,-0.06562 -0.17145,-0.10407 -0.285397,-0.10407 -0.131233,0 -0.229306,0.04233 -0.310092,0.132997 -0.08678,0.09631 -0.123119,0.213784 -0.123119,0.391231 0,0.310091 0.183092,0.510822 0.466372,0.510822 0.138289,0 0.257881,-0.04445 0.371475,-0.136878 L 28.50312,10.996282 c -0.07902,0.06526 -0.161572,0.09807 -0.250472,0.09807 -0.132644,0 -0.208139,-0.08643 -0.208139,-0.238831 v -0.0078 z m -0.268103,-0.188789 h -0.298802 v -0.0039 c 0,-0.136877 0.05609,-0.214136 0.154516,-0.214136 0.05186,0 0.08819,0.0194 0.113242,0.05786 0.02328,0.03669 0.03104,0.07514 0.03104,0.148519 z m 0.741539,0.601133 v -1.010003 l -0.258233,0.04057 v 0.969433 z m 0.03069,-1.258358 c 0,-0.0889 -0.06914,-0.1601613 -0.155928,-0.1601613 -0.0889,0 -0.161925,0.07126 -0.161925,0.1601613 0,0.08855 0.07126,0.159808 0.158045,0.159808 0.08855,0 0.159808,-0.07126 0.159808,-0.159808 m 1.102783,0.738011 c 0,-0.227542 -0.0769,-0.354542 -0.183091,-0.426156 -0.05397,-0.03634 -0.125237,-0.05927 -0.194381,-0.05927 -0.100542,0 -0.198614,0.03845 -0.243064,0.09243 -0.0018,-0.03105 -0.0078,-0.05786 -0.01729,-0.09243 l -0.229658,0.04022 c 0.01376,0.0829 0.01588,0.119239 0.01588,0.248709 v 1.140883 l 0.248708,-0.06526 v -0.30868 l -0.0039,-0.08079 c 0.05574,0.03281 0.128764,0.05221 0.20567,0.05221 0.108303,0 0.19685,-0.04057 0.26423,-0.112184 0.102306,-0.109714 0.136878,-0.217311 0.136878,-0.429683 m -0.281516,0.02505 c 0,0.225425 -0.04974,0.312208 -0.177095,0.312208 -0.05221,0 -0.107597,-0.02893 -0.142522,-0.05785 v -0.479778 c 0.04621,-0.04833 0.10795,-0.07549 0.17145,-0.07549 0.0635,0 0.104069,0.02928 0.123119,0.0829 0.01764,0.04833 0.02505,0.123472 0.02505,0.218016 m 1.208263,0.316089 h -0.452966 l 0.43568,-0.630414 v -0.177094 h -0.732366 v 0.180975 h 0.425802 l -0.464255,0.645936 v 0.159808 h 0.726369 z m 0.455437,0.179211 V 10.25011 l -0.258587,0.04057 v 0.969433 z m 0.03069,-1.258358 c 0,-0.0889 -0.06914,-0.1601613 -0.155928,-0.1601613 -0.08855,0 -0.161925,0.07126 -0.161925,0.1601613 0,0.08855 0.07126,0.159808 0.158045,0.159808 0.08855,0 0.159808,-0.07126 0.159808,-0.159808 m 1.229784,0.379589 -0.10795,-0.163689 c -0.05997,0.05397 -0.132998,0.08467 -0.204259,0.08467 -0.03281,0 -0.06738,-0.0078 -0.121355,-0.02117 -0.07161,-0.01729 -0.121356,-0.02505 -0.177448,-0.02505 -0.252588,0 -0.416277,0.13088 -0.416277,0.333375 0,0.146402 0.0695,0.237066 0.212019,0.273755 -0.161925,0.04233 -0.181328,0.101953 -0.181328,0.165806 0,0.06738 0.02928,0.11183 0.07514,0.129116 0.04657,0.01905 0.121708,0.02858 0.237067,0.03069 l 0.110066,0.0021 c 0.102306,0.0018 0.181328,0.02858 0.181328,0.117122 0,0.04092 -0.0254,0.07726 -0.06385,0.100542 -0.04022,0.02505 -0.09631,0.03246 -0.161572,0.03246 -0.119592,0 -0.185208,-0.04198 -0.185208,-0.121003 l 0.01164,-0.06385 h -0.239183 c -0.0095,0.0194 -0.02293,0.04621 -0.02293,0.100541 0,0.06738 0.02681,0.125236 0.08114,0.175331 0.08855,0.08255 0.232834,0.105833 0.373592,0.105833 0.154164,0 0.302683,-0.03457 0.389114,-0.127353 0.05397,-0.0575 0.07937,-0.121002 0.07937,-0.203905 0,-0.0889 -0.02716,-0.156281 -0.08502,-0.210256 -0.0695,-0.0635 -0.14852,-0.08678 -0.298803,-0.08855 l -0.138642,-0.0021 -0.04233,-0.02293 c 0,-0.02716 0.03669,-0.05009 0.101953,-0.08114 l 0.0388,0.0018 c 0.209903,0 0.364067,-0.12312 0.364067,-0.292806 0,-0.06562 -0.0194,-0.115358 -0.05786,-0.161925 l 0.06773,0.0056 c 0.07126,0 0.125236,-0.02117 0.180975,-0.07303 m -0.456848,0.210255 c 0,0.09031 -0.05574,0.140406 -0.158044,0.140406 -0.09066,0 -0.1524,-0.04022 -0.1524,-0.140406 0,-0.09278 0.05609,-0.146755 0.154517,-0.146755 0.09807,0 0.155927,0.05398 0.155927,0.146755"
       style="fill:#231f20;fill-opacity:1;fill-rule:nonzero;stroke:none;stroke-width:0.352778"
       id="path69" />
    <path
       d="m 18.390049,8.5735607 c 0,-0.17533 -0.100189,-0.289277 -0.265995,-0.337608 0.06174,-0.01905 0.08467,-0.03246 0.123473,-0.06914 0.05927,-0.05609 0.09066,-0.132998 0.09066,-0.223662 0,-0.09631 -0.03493,-0.173213 -0.110067,-0.239183 -0.08079,-0.07091 -0.165806,-0.09631 -0.329495,-0.09631 h -0.452966 v 1.339497 h 0.421922 c 0.07338,0 0.129117,-0.0018 0.171803,-0.0035 0.23495,-0.01164 0.350661,-0.185208 0.350661,-0.370064 m -0.304447,-0.03281 c 0,0.0635 -0.02893,0.124883 -0.06985,0.156281 -0.02858,0.02293 -0.06915,0.03069 -0.124884,0.03069 h -0.17533 v -0.362303 h 0.167569 c 0.05009,0 0.07126,0.0018 0.10407,0.01129 0.05962,0.01729 0.09843,0.08678 0.09843,0.164042 m -0.02893,-0.551392 c 0,0.05398 -0.03281,0.117828 -0.0695,0.137231 -0.02328,0.01129 -0.05221,0.01693 -0.115711,0.01693 H 17.7113 v -0.306564 h 0.156281 c 0.05962,0 0.0889,0.0078 0.111831,0.01764 0.04833,0.0194 0.07726,0.07902 0.07726,0.134761 m 0.824794,0.957792 v -1.010003 l -0.258233,0.04057 v 0.969433 z m 0.03069,-1.258358 c 0,-0.08855 -0.06915,-0.160161 -0.155928,-0.160161 -0.08855,0 -0.161925,0.07161 -0.161925,0.160161 0,0.0889 0.07126,0.159808 0.158045,0.159808 0.08855,0 0.159808,-0.07091 0.159808,-0.159808 m 1.081617,0.761294 c 0,-0.159808 -0.03493,-0.267758 -0.113948,-0.360539 -0.08502,-0.100189 -0.194733,-0.148166 -0.335491,-0.148166 -0.265995,0 -0.443089,0.206022 -0.443089,0.516466 0,0.310092 0.17533,0.510822 0.443089,0.510822 0.1524,0 0.250472,-0.05221 0.325966,-0.13723 0.08467,-0.09631 0.123473,-0.211667 0.123473,-0.381353 m -0.28187,-0.0018 c 0,0.232834 -0.04798,0.333375 -0.159808,0.333375 -0.05009,0 -0.10795,-0.02716 -0.131234,-0.08114 -0.02117,-0.05009 -0.03245,-0.134761 -0.03245,-0.248708 0,-0.09807 0.0095,-0.167569 0.02681,-0.219428 0.02152,-0.06174 0.07126,-0.100189 0.132997,-0.100189 0.04621,0 0.08678,0.01905 0.111831,0.05186 0.03457,0.04445 0.05186,0.131233 0.05186,0.26423 m 1.337733,0.498828 c -0.01729,-0.03845 -0.03669,-0.117122 -0.03669,-0.360186 v -1.025525 l -0.25647,-0.04057 v 0.339373 c 0,0.05785 0.0039,0.125236 0.0078,0.146755 -0.04833,-0.03881 -0.104069,-0.05609 -0.17533,-0.05609 -0.250473,0 -0.421923,0.212019 -0.421923,0.520347 0,0.306564 0.157692,0.500944 0.408517,0.500944 0.08855,0 0.163689,-0.02681 0.227189,-0.0829 l 0.01552,0.05786 z m -0.289277,-0.256117 c -0.02505,0.03104 -0.07902,0.0635 -0.127353,0.0635 -0.134761,0 -0.179211,-0.0695 -0.179211,-0.281164 0,-0.21978 0.05009,-0.316088 0.165805,-0.316088 0.04657,0 0.09278,0.02081 0.140759,0.0635 z m 0.794808,0.256117 v -1.010003 l -0.258233,0.04057 v 0.969433 z m 0.03069,-1.258358 c 0,-0.08855 -0.06914,-0.160161 -0.156281,-0.160161 -0.08855,0 -0.161572,0.07161 -0.161572,0.160161 0,0.0889 0.07091,0.159808 0.158044,0.159808 0.08855,0 0.159809,-0.07091 0.159809,-0.159808 m 1.060097,0.271639 h -0.269875 l -0.132997,0.414513 c -0.03069,0.09842 -0.05221,0.192617 -0.05962,0.250473 -0.01376,-0.0635 -0.04233,-0.17145 -0.0635,-0.237067 l -0.142875,-0.445206 -0.26423,0.03246 0.358422,0.97155 h 0.214489 z m 0.921808,0.574322 v -0.05962 c 0,-0.206375 -0.04057,-0.339372 -0.131233,-0.4318 -0.0635,-0.06562 -0.17145,-0.104069 -0.285045,-0.104069 -0.131233,0 -0.229658,0.04233 -0.310444,0.132997 -0.08678,0.09631 -0.123119,0.213783 -0.123119,0.391231 0,0.310444 0.183091,0.510822 0.466372,0.510822 0.138641,0 0.258233,-0.0441 0.37218,-0.136878 l -0.100541,-0.154164 c -0.07867,0.06526 -0.161573,0.09842 -0.250473,0.09842 -0.132997,0 -0.208138,-0.08678 -0.208138,-0.239183 v -0.0078 z M 23.30001,8.3460097 h -0.298803 v -0.0039 c 0,-0.136878 0.05574,-0.214136 0.154164,-0.214136 0.05186,0 0.0889,0.0194 0.113594,0.05786 0.02328,0.03669 0.03104,0.07514 0.03104,0.148519 z m 1.049866,-0.38735 c -0.04057,-0.01729 -0.05821,-0.02152 -0.09666,-0.02152 -0.09631,0 -0.17533,0.06562 -0.231069,0.140759 -0.0039,-0.05574 -0.01764,-0.100189 -0.04057,-0.140759 l -0.231422,0.06174 c 0.02117,0.05609 0.03669,0.156281 0.03669,0.289278 v 0.658989 h 0.258233 v -0.697442 c 0.04833,-0.05609 0.100189,-0.0829 0.158045,-0.0829 l 0.07514,0.01905 z m 0.874537,0.676275 c 0,-0.06526 -0.01729,-0.121003 -0.05362,-0.16757 -0.03493,-0.04445 -0.07549,-0.08079 -0.19685,-0.11183 l -0.119591,-0.03105 c -0.09031,-0.02293 -0.12312,-0.04974 -0.12312,-0.09984 0,-0.05786 0.05009,-0.09666 0.125236,-0.09666 0.07338,0 0.144286,0.02152 0.242711,0.07161 l 0.08467,-0.17392 c -0.09031,-0.0441 -0.19438,-0.09207 -0.352425,-0.09207 -0.229305,0 -0.381705,0.129117 -0.381705,0.321734 0,0.0635 0.02117,0.135114 0.05609,0.177447 0.03457,0.04233 0.115359,0.08855 0.180975,0.09984 l 0.115711,0.02152 c 0.10407,0.0194 0.152048,0.05398 0.152048,0.121355 0,0.0635 -0.0575,0.111831 -0.130881,0.111831 -0.111831,0 -0.248708,-0.0635 -0.327731,-0.111831 l -0.09243,0.188736 c 0.144639,0.07514 0.277636,0.113947 0.398991,0.113947 0.252589,0 0.421923,-0.138994 0.421923,-0.343252 m 0.470252,0.312208 v -1.010003 l -0.258233,0.04057 v 0.969433 z m 0.03069,-1.258358 c 0,-0.08855 -0.0695,-0.160161 -0.155928,-0.160161 -0.0889,0 -0.161925,0.07161 -0.161925,0.160161 0,0.0889 0.07126,0.159808 0.157692,0.159808 0.08925,0 0.160161,-0.07091 0.160161,-0.159808 m 0.752122,1.237191 -0.03281,-0.154164 c -0.04621,0.01376 -0.06915,0.0194 -0.09243,0.0194 -0.08855,0 -0.111478,-0.03281 -0.111478,-0.158044 v -0.4953 h 0.16581 l 0.06526,-0.177447 h -0.23107 c 0,-0.100189 0.0056,-0.208139 0.01517,-0.298803 l -0.262114,0.06562 c -0.0099,0.07338 -0.0099,0.136878 -0.0099,0.233187 h -0.09843 v 0.177447 h 0.09843 v 0.535869 c 0,0.09031 0.0021,0.109714 0.01764,0.152047 0.03069,0.08678 0.134761,0.144639 0.265994,0.144639 0.06738,0 0.134762,-0.01341 0.209903,-0.04445 m 1.084817,-0.96554 h -0.271992 l -0.148166,0.470605 c -0.01552,0.04586 -0.03069,0.103717 -0.03845,0.136525 -0.01164,0.04798 -0.03104,0.1524 -0.03104,0.158045 -0.0035,-0.01341 -0.03669,-0.146403 -0.05186,-0.204259 l -0.171803,-0.576439 -0.263878,0.03069 0.233187,0.694267 c 0.0095,0.03069 0.06174,0.184855 0.09243,0.277283 h 0.06562 c -0.02328,0.05786 -0.03069,0.07514 -0.05574,0.115711 -0.02152,0.03281 -0.04445,0.05962 -0.07338,0.08114 -0.03881,0.02681 -0.104069,0.05009 -0.160161,0.06562 l 0.0889,0.169333 c 0.08855,-0.01129 0.173567,-0.04233 0.238831,-0.09066 0.07161,-0.05186 0.121355,-0.134408 0.189089,-0.325614 z m 1.588205,0.986719 c 0,0 -0.24518,-0.423686 -0.322086,-0.520347 l -0.05574,-0.05574 c 0.165806,-0.0039 0.29845,-0.169686 0.29845,-0.370064 0,-0.235303 -0.155575,-0.393347 -0.392641,-0.393347 h -0.499534 v 1.339497 h 0.264231 v -0.5588 l 0.04233,0.01164 c 0.04798,0.02117 0.08855,0.08678 0.221545,0.32773 0.05221,0.09419 0.07303,0.130881 0.125589,0.219428 z m -0.362655,-0.940153 c 0,0.05574 -0.0194,0.103717 -0.05186,0.134761 -0.03669,0.03281 -0.08678,0.0441 -0.202495,0.0441 h -0.09031 v -0.362303 h 0.09631 c 0.06526,0 0.121356,0.0078 0.1524,0.0194 0.0635,0.02328 0.09596,0.08114 0.09596,0.164041 m 1.314803,0.527756 v -0.05962 c 0,-0.206375 -0.04057,-0.339372 -0.130881,-0.4318 -0.0635,-0.06562 -0.17145,-0.104069 -0.285397,-0.104069 -0.131234,0 -0.229306,0.04233 -0.310445,0.132997 -0.08643,0.09631 -0.123119,0.213783 -0.123119,0.391231 0,0.310444 0.183092,0.510822 0.466725,0.510822 0.138289,0 0.25788,-0.0441 0.371828,-0.136878 l -0.100189,-0.154164 c -0.07937,0.06526 -0.162278,0.09842 -0.250825,0.09842 -0.132997,0 -0.208139,-0.08678 -0.208139,-0.239183 v -0.0078 z M 29.83487,8.3460187 h -0.298803 v -0.0039 c 0,-0.136878 0.05574,-0.214136 0.154164,-0.214136 0.05221,0 0.0889,0.0194 0.113595,0.05786 0.02328,0.03669 0.03104,0.07514 0.03104,0.148519 z m 1.232606,0.288925 c 0,-0.06526 -0.01729,-0.121003 -0.05398,-0.16757 -0.03457,-0.04445 -0.07514,-0.08079 -0.196497,-0.11183 l -0.119592,-0.03105 c -0.09066,-0.02293 -0.123472,-0.04974 -0.123472,-0.09984 0,-0.05786 0.05009,-0.09666 0.125589,-0.09666 0.07303,0 0.144638,0.02152 0.242711,0.07161 l 0.08502,-0.17392 c -0.09102,-0.0441 -0.195086,-0.09207 -0.35313,-0.09207 -0.228953,0 -0.381353,0.129117 -0.381353,0.321734 0,0.0635 0.02117,0.135114 0.05574,0.177447 0.03457,0.04233 0.116064,0.08855 0.181327,0.09984 l 0.115712,0.02152 c 0.103716,0.0194 0.152047,0.05398 0.152047,0.121355 0,0.0635 -0.05786,0.111831 -0.131234,0.111831 -0.111477,0 -0.248355,-0.0635 -0.327377,-0.111831 l -0.09243,0.188736 c 0.144286,0.07514 0.277283,0.113947 0.398992,0.113947 0.252236,0 0.421922,-0.138994 0.421922,-0.343252 m 1.014941,-0.100189 v -0.05962 c 0,-0.206375 -0.04057,-0.339372 -0.131233,-0.4318 -0.0635,-0.06562 -0.17145,-0.104069 -0.285397,-0.104069 -0.130881,0 -0.229306,0.04233 -0.310092,0.132997 -0.08678,0.09631 -0.123472,0.213783 -0.123472,0.391231 0,0.310444 0.183092,0.510822 0.466725,0.510822 0.138642,0 0.258233,-0.0441 0.371828,-0.136878 l -0.100189,-0.154164 c -0.07902,0.06526 -0.161925,0.09842 -0.250825,0.09842 -0.132997,0 -0.208139,-0.08678 -0.208139,-0.239183 v -0.0078 z m -0.268111,-0.188732 h -0.298802 v -0.0039 c 0,-0.136878 0.05609,-0.214136 0.154163,-0.214136 0.05221,0 0.08855,0.0194 0.113595,0.05786 0.02328,0.03669 0.03104,0.07514 0.03104,0.148519 z m 1.292225,0.493183 c -0.08714,-0.06526 -0.09454,-0.111478 -0.09278,-0.219428 l 0.0056,-0.331611 c 0.0021,-0.105833 -0.0035,-0.136878 -0.01729,-0.177447 -0.0381,-0.109714 -0.152047,-0.17145 -0.317853,-0.17145 -0.09031,0 -0.173214,0.01729 -0.269522,0.05786 -0.0695,0.02857 -0.108303,0.04798 -0.160161,0.08079 l 0.109714,0.185208 c 0.106186,-0.07161 0.202494,-0.111831 0.285397,-0.111831 0.09454,0 0.115711,0.03669 0.115711,0.146403 v 0.04057 l -0.05786,-0.0018 c -0.314325,0 -0.474134,0.10795 -0.474134,0.339019 0,0.196497 0.119592,0.308328 0.339373,0.308328 0.08079,0 0.150283,-0.01905 0.198261,-0.05362 l 0.05962,-0.05221 c 0.0254,0.05009 0.07937,0.09419 0.138995,0.119238 z m -0.345016,-0.323497 -0.0039,0.212019 c -0.0388,0.04233 -0.08678,0.06738 -0.135114,0.06738 -0.06526,0 -0.113241,-0.05221 -0.113241,-0.12947 0,-0.117475 0.06174,-0.14993 0.240594,-0.14993 z m 1.103841,-0.557036 c -0.04057,-0.01729 -0.05786,-0.02152 -0.09666,-0.02152 -0.09596,0 -0.17533,0.06562 -0.231069,0.140759 -0.0039,-0.05574 -0.01693,-0.100189 -0.04057,-0.140759 l -0.231422,0.06174 c 0.02152,0.05609 0.03669,0.156281 0.03669,0.289278 v 0.658989 h 0.258233 v -0.697442 c 0.04868,-0.05609 0.100189,-0.0829 0.158045,-0.0829 l 0.07514,0.01905 z m 0.830086,0.877005 -0.117475,-0.15628 -0.01552,0.0134 c -0.0635,0.05574 -0.117475,0.08114 -0.177447,0.08114 -0.0441,0 -0.08855,-0.02117 -0.115358,-0.05609 -0.03281,-0.04233 -0.05009,-0.119591 -0.05009,-0.248708 0,-0.231069 0.05186,-0.331258 0.16757,-0.331258 0.04833,0 0.104069,0.02893 0.155927,0.07726 l 0.125236,-0.170039 c -0.04233,-0.03634 -0.05962,-0.05009 -0.09596,-0.0695 -0.05398,-0.02858 -0.125236,-0.0441 -0.190853,-0.0441 -0.0829,0 -0.179211,0.02893 -0.244828,0.07338 -0.115711,0.07902 -0.202141,0.229305 -0.202141,0.456847 0,0.319969 0.158044,0.508705 0.429683,0.508705 0.09419,0 0.17145,-0.02117 0.240594,-0.06174 0.03493,-0.02117 0.05221,-0.03457 0.09066,-0.07303 m 1.006828,0.111478 v -0.689681 c 0,-0.09454 -0.0056,-0.127352 -0.02505,-0.183091 -0.03069,-0.08678 -0.130881,-0.140759 -0.25647,-0.140759 -0.100188,0 -0.212019,0.04198 -0.2794,0.105834 l 0.0039,-0.0829 v -0.196497 c 0,-0.09455 -0.0056,-0.186972 -0.01764,-0.240947 l -0.263878,0.06174 c 0.01164,0.04022 0.0194,0.132997 0.0194,0.225425 v 1.140883 h 0.262114 v -0.706967 c 0.05786,-0.05221 0.140758,-0.09066 0.204258,-0.09066 0.07338,0 0.100189,0.03634 0.100189,0.134762 v 0.662869 z m 1.26612,0.175331 c -0.09807,-0.05362 -0.146403,-0.100189 -0.194381,-0.18662 -0.05009,-0.0889 -0.07549,-0.177447 -0.09102,-0.316089 -0.0092,-0.100541 -0.01517,-0.210255 -0.01517,-0.296686 0,-0.04833 0,-0.102305 0.0039,-0.158397 0.0056,-0.111831 0.0194,-0.180975 0.04445,-0.252589 0.02858,-0.08855 0.07902,-0.167569 0.144639,-0.232833 0.03246,-0.03281 0.04974,-0.04621 0.103717,-0.08502 l -0.06738,-0.1524 c -0.107597,0.04621 -0.202141,0.113947 -0.2794,0.19685 -0.0829,0.09031 -0.146402,0.208139 -0.173566,0.321734 -0.02293,0.09666 -0.03845,0.235302 -0.03845,0.366183 0,0.04445 0.0018,0.09454 0.0056,0.150283 0.01199,0.173567 0.03493,0.293159 0.07726,0.397228 0.07902,0.192617 0.225778,0.335492 0.412397,0.398992 z m 0.416983,-0.175331 v -1.010003 l -0.258233,0.04057 v 0.969433 z m 0.03069,-1.258358 c 0,-0.08855 -0.06914,-0.160161 -0.155928,-0.160161 -0.08855,0 -0.161925,0.07161 -0.161925,0.160161 0,0.0889 0.07126,0.159808 0.158044,0.159808 0.08855,0 0.159809,-0.07091 0.159809,-0.159808 m 1.241425,0.593725 c 0,-0.240948 -0.05962,-0.41275 -0.183092,-0.534106 -0.08079,-0.08079 -0.179211,-0.123119 -0.292806,-0.132997 -0.05397,-0.0039 -0.155927,-0.0078 -0.233186,-0.0078 h -0.269522 v 1.339497 h 0.325261 c 0.07902,0 0.142522,-0.0035 0.19297,-0.0078 0.125236,-0.0092 0.244475,-0.0829 0.325613,-0.192264 0.09031,-0.121708 0.134762,-0.281869 0.134762,-0.464608 m -0.302331,0.02505 c 0,0.28328 -0.08114,0.420158 -0.258233,0.420158 h -0.144639 v -0.90805 h 0.123472 c 0.105833,0 0.167569,0.03881 0.212019,0.111831 0.05398,0.08855 0.06738,0.21978 0.06738,0.376061 m 0.797992,0.639586 v -1.010003 l -0.258242,0.04057 v 0.969433 z m 0.031,-1.258358 c 0,-0.08855 -0.0695,-0.160161 -0.15628,-0.160161 -0.0886,0 -0.161577,0.07161 -0.161577,0.160161 0,0.0889 0.07126,0.159808 0.157697,0.159808 0.0889,0 0.16016,-0.07091 0.16016,-0.159808 m 1.0601,0.271639 h -0.26988 l -0.13299,0.414513 c -0.0307,0.09842 -0.0519,0.192617 -0.06,0.250473 -0.0131,-0.0635 -0.0423,-0.17145 -0.0635,-0.237067 l -0.14252,-0.445206 -0.26388,0.03246 0.35843,0.97155 h 0.21378 z m 0.50376,0.422275 c 0,-0.04233 0,-0.09066 -0.004,-0.144639 -0.0113,-0.173567 -0.0349,-0.293159 -0.0751,-0.396875 -0.0773,-0.19685 -0.22578,-0.335492 -0.41239,-0.401109 l -0.0677,0.150284 c 0.0984,0.05397 0.14464,0.100189 0.19509,0.187325 0.0519,0.09031 0.073,0.177094 0.0885,0.315736 0.0116,0.09807 0.0152,0.208139 0.0152,0.293158 0,0.0501 -10e-4,0.10407 -0.006,0.161572 -0.008,0.112184 -0.0194,0.183092 -0.0423,0.252589 -0.031,0.09066 -0.0808,0.167922 -0.14641,0.233186 -0.0346,0.03281 -0.0501,0.04621 -0.10443,0.08502 l 0.0656,0.152047 c 0.11183,-0.04621 0.20426,-0.111478 0.28152,-0.196497 0.0829,-0.09066 0.1464,-0.206022 0.17533,-0.31997 0.025,-0.09807 0.0367,-0.23883 0.0367,-0.371827"
       style="fill:#231f20;fill-opacity:1;fill-rule:nonzero;stroke:none;stroke-width:0.352778"
       id="path73" />
    <path
       d="m 18.432382,6.5303777 v -0.639939 h -0.518583 l 0.03493,0.219781 h 0.204258 v 0.304447 c -0.0441,0.02328 -0.09278,0.03281 -0.1524,0.03281 -0.08678,0 -0.159808,-0.02716 -0.209903,-0.07514 -0.06773,-0.06738 -0.100188,-0.190853 -0.100188,-0.381706 0,-0.200377 0.02293,-0.344664 0.113594,-0.4318 0.04621,-0.0441 0.113594,-0.06738 0.192617,-0.06738 0.102305,0 0.192969,0.03281 0.2794,0.104069 l 0.142875,-0.167569 c -0.117828,-0.102306 -0.264231,-0.154164 -0.426156,-0.154164 -0.127,0 -0.227189,0.02893 -0.325614,0.09454 -0.186972,0.125236 -0.2794,0.325614 -0.2794,0.608895 0,0.200378 0.0441,0.3429 0.142522,0.468489 0.10795,0.138641 0.256117,0.203905 0.456848,0.203905 0.158044,0 0.308327,-0.03845 0.445205,-0.119239 m 1.074914,-0.308327 v -0.05997 c 0,-0.206022 -0.04057,-0.339019 -0.131233,-0.431447 -0.0635,-0.06562 -0.171098,-0.104069 -0.285398,-0.104069 -0.13088,0 -0.229305,0.04233 -0.310091,0.132997 -0.08678,0.09631 -0.12312,0.213783 -0.12312,0.39123 0,0.310092 0.183092,0.51047 0.46602,0.51047 0.138994,0 0.258586,-0.0441 0.372533,-0.136525 L 19.39547,6.3702187 c -0.07902,0.06562 -0.161925,0.09842 -0.250472,0.09842 -0.132997,0 -0.208139,-0.08643 -0.208139,-0.23883 v -0.0078 z M 19.23919,6.0329607 h -0.29845 v -0.0039 c 0,-0.136525 0.05574,-0.213783 0.154164,-0.213783 0.05186,0 0.08855,0.0194 0.113594,0.05785 0.02328,0.03669 0.03069,0.07514 0.03069,0.148167 z m 1.050219,-0.386998 c -0.04092,-0.01764 -0.05821,-0.02152 -0.09666,-0.02152 -0.09631,0 -0.17533,0.06562 -0.231422,0.140758 -0.0035,-0.05574 -0.01729,-0.100189 -0.04022,-0.140758 l -0.231422,0.06174 c 0.02117,0.05609 0.03669,0.156281 0.03669,0.289278 v 0.658989 h 0.258233 v -0.697795 c 0.04833,-0.05574 0.100189,-0.0829 0.158045,-0.0829 l 0.07514,0.0194 z m 1.428398,0.988484 v -0.701675 c 0,-0.134761 -0.01729,-0.192617 -0.07338,-0.240947 -0.0441,-0.03845 -0.117475,-0.06138 -0.194381,-0.06138 -0.108303,0 -0.189089,0.03634 -0.279753,0.129117 l -0.03845,-0.04833 c -0.05186,-0.05398 -0.119239,-0.08079 -0.200731,-0.08079 -0.09066,0 -0.173567,0.03457 -0.240594,0.100189 -0.0095,-0.05009 -0.01729,-0.07338 -0.03457,-0.100189 l -0.233538,0.0635 c 0.02716,0.04833 0.03669,0.109714 0.03669,0.252589 v 0.687917 h 0.252589 v -0.718961 c 0.05609,-0.05009 0.121356,-0.07514 0.169686,-0.07514 0.07126,0 0.08855,0.02893 0.08855,0.1524 v 0.641703 h 0.244827 v -0.709084 c 0.05574,-0.05009 0.12312,-0.0829 0.17145,-0.0829 0.06738,0 0.08114,0.02293 0.08114,0.140405 v 0.651581 z m 1.095727,-0.10795 c -0.08678,-0.06562 -0.09454,-0.111831 -0.09243,-0.219781 l 0.0056,-0.331258 c 0.0021,-0.106186 -0.0035,-0.136878 -0.01729,-0.177447 -0.03881,-0.109714 -0.152047,-0.17145 -0.317853,-0.17145 -0.09066,0 -0.173567,0.01729 -0.269875,0.0575 -0.0695,0.02928 -0.10795,0.04833 -0.160161,0.08114 l 0.110067,0.185209 c 0.106186,-0.07126 0.202141,-0.111831 0.285044,-0.111831 0.0949,0 0.115711,0.03669 0.115711,0.146403 v 0.04057 l -0.05786,-0.0021 c -0.313973,0 -0.474134,0.10795 -0.474134,0.339372 0,0.196497 0.119592,0.308328 0.339373,0.308328 0.08114,0 0.150636,-0.0194 0.198613,-0.05398 l 0.05962,-0.05186 c 0.02505,0.05009 0.07902,0.09454 0.138994,0.119239 z m -0.344664,-0.32385 -0.0042,0.212019 c -0.03845,0.04269 -0.08643,0.06773 -0.134761,0.06773 -0.06562,0 -0.113947,-0.05221 -0.113947,-0.12947 0,-0.117122 0.06209,-0.150283 0.240947,-0.150283 z m 1.318331,0.4318 v -0.721078 c 0,-0.06138 -0.0056,-0.103717 -0.01905,-0.140406 -0.03104,-0.08467 -0.127,-0.142522 -0.237067,-0.142522 -0.05786,0 -0.125589,0.01552 -0.177447,0.04233 -0.04233,0.02328 -0.07514,0.04621 -0.113947,0.07338 0,-0.04057 -0.01305,-0.0829 -0.03634,-0.123472 l -0.229306,0.06562 c 0.02293,0.06526 0.03457,0.146403 0.03457,0.231069 v 0.715081 h 0.258234 v -0.697795 c 0.05997,-0.05398 0.127,-0.08855 0.179211,-0.08855 0.06738,0 0.08678,0.03281 0.08678,0.144639 v 0.641703 z m 1.674636,-0.101953 -0.122767,-0.169686 c -0.07937,0.0635 -0.150636,0.08678 -0.229658,0.08678 -0.115711,0 -0.204258,-0.05221 -0.258233,-0.150283 -0.04057,-0.07338 -0.05609,-0.175683 -0.05609,-0.358775 0,-0.155928 0.02328,-0.267758 0.07549,-0.345017 0.04798,-0.07126 0.136525,-0.115358 0.227189,-0.115358 0.0755,0 0.146756,0.02505 0.213784,0.07514 l 0.121708,-0.183092 c -0.07338,-0.06385 -0.206375,-0.106186 -0.339372,-0.106186 -0.2159,0 -0.408517,0.115711 -0.512586,0.310444 -0.06174,0.115359 -0.09066,0.248356 -0.09066,0.416278 0,0.196497 0.05397,0.358422 0.161925,0.479778 0.110066,0.125236 0.252589,0.185208 0.437444,0.185208 0.1524,0 0.265995,-0.03881 0.371828,-0.125236 m 0.961672,-0.310444 v -0.05997 c 0,-0.206022 -0.04057,-0.339019 -0.13088,-0.431447 -0.06385,-0.06562 -0.171803,-0.104069 -0.285398,-0.104069 -0.131233,0 -0.229305,0.04233 -0.310444,0.132997 -0.08643,0.09631 -0.123119,0.213783 -0.123119,0.39123 0,0.310092 0.182738,0.51047 0.466019,0.51047 0.138994,0 0.258586,-0.0441 0.372181,-0.136525 l -0.100189,-0.154517 c -0.07902,0.06562 -0.161925,0.09842 -0.250473,0.09842 -0.132997,0 -0.208138,-0.08643 -0.208138,-0.23883 v -0.0078 z M 26.1554,6.0329557 h -0.29845 v -0.0039 c 0,-0.136525 0.05539,-0.213783 0.153811,-0.213783 0.05221,0 0.0889,0.0194 0.113947,0.05785 0.02328,0.03669 0.03069,0.07514 0.03069,0.148167 z m 1.264708,0.601486 v -0.721078 c 0,-0.06138 -0.0056,-0.103717 -0.01905,-0.140406 -0.03104,-0.08467 -0.127,-0.142522 -0.237066,-0.142522 -0.05786,0 -0.125589,0.01552 -0.177095,0.04233 -0.04233,0.02328 -0.07549,0.04621 -0.1143,0.07338 0,-0.04057 -0.01305,-0.0829 -0.03598,-0.123472 l -0.229658,0.06562 c 0.02328,0.06526 0.03457,0.146403 0.03457,0.231069 v 0.715081 h 0.258586 v -0.697795 c 0.05962,-0.05398 0.127353,-0.08855 0.178858,-0.08855 0.06773,0 0.08678,0.03281 0.08678,0.144639 v 0.641703 z m 0.782814,-0.02117 -0.03281,-0.154164 c -0.04657,0.01341 -0.0695,0.01905 -0.09243,0.01905 -0.0889,0 -0.11183,-0.03246 -0.11183,-0.158044 v -0.4953 h 0.165805 l 0.06526,-0.177447 h -0.231069 c 0,-0.09984 0.0056,-0.207787 0.01517,-0.29845 l -0.262114,0.06562 c -0.0095,0.07338 -0.0095,0.136878 -0.0095,0.232834 h -0.09807 v 0.177447 h 0.09807 v 0.535869 c 0,0.09066 0.0021,0.110067 0.01729,0.1524 0.03104,0.08678 0.135114,0.144639 0.265995,0.144639 0.06738,0 0.135114,-0.01376 0.210255,-0.04445 m 0.75812,-0.967317 c -0.04022,-0.01764 -0.0575,-0.02152 -0.09596,-0.02152 -0.09666,0 -0.175683,0.06562 -0.231422,0.140758 -0.0039,-0.05574 -0.01729,-0.100189 -0.04057,-0.140758 l -0.231423,0.06174 c 0.02152,0.05609 0.03669,0.156281 0.03669,0.289278 v 0.658989 h 0.258586 v -0.697795 c 0.04798,-0.05574 0.100189,-0.0829 0.157692,-0.0829 l 0.07514,0.0194 z m 0.922161,0.576087 v -0.05997 c 0,-0.206022 -0.04057,-0.339019 -0.131234,-0.431447 -0.0635,-0.06562 -0.17145,-0.104069 -0.285044,-0.104069 -0.131233,0 -0.229658,0.04233 -0.310444,0.132997 -0.08643,0.09631 -0.12312,0.213783 -0.12312,0.39123 0,0.310092 0.183092,0.51047 0.466372,0.51047 0.138642,0 0.257881,-0.0441 0.371828,-0.136525 l -0.100189,-0.154517 c -0.07937,0.06562 -0.161925,0.09842 -0.250825,0.09842 -0.132644,0 -0.208139,-0.08643 -0.208139,-0.23883 v -0.0078 z m -0.268111,-0.189089 h -0.29845 v -0.0039 c 0,-0.136525 0.05574,-0.213783 0.154164,-0.213783 0.05186,0 0.08819,0.0194 0.113241,0.05785 0.02364,0.03669 0.03105,0.07514 0.03105,0.148167 z m 1.48978,-0.765175 c -0.07902,-0.0441 -0.148166,-0.06138 -0.233186,-0.06138 -0.202494,0 -0.318205,0.111831 -0.318205,0.306211 0,0.04445 0.0042,0.09454 0.0099,0.134762 h -0.09454 v 0.177447 h 0.0889 v 0.809625 h 0.252236 v -0.809625 h 0.183092 l 0.06562,-0.177447 h -0.250825 v -0.140406 c 0,-0.07126 0.04269,-0.111831 0.10795,-0.111831 0.03105,0 0.05045,0.0056 0.106186,0.03281 z m 0.890059,0.869244 c 0,-0.159808 -0.03422,-0.267758 -0.113242,-0.360186 -0.08502,-0.100189 -0.195086,-0.148519 -0.335845,-0.148519 -0.265994,0 -0.443088,0.206375 -0.443088,0.516466 0,0.310445 0.175683,0.510822 0.443088,0.510822 0.1524,0 0.250825,-0.05186 0.325967,-0.136877 0.08467,-0.09631 0.12312,-0.21202 0.12312,-0.381706 m -0.281164,-0.0018 c 0,0.233186 -0.04833,0.333375 -0.160161,0.333375 -0.05009,0 -0.10795,-0.02681 -0.130881,-0.08079 -0.02117,-0.05045 -0.03281,-0.135114 -0.03281,-0.248708 0,-0.09842 0.0095,-0.167922 0.02716,-0.219781 0.02081,-0.06174 0.07126,-0.100189 0.132997,-0.100189 0.04621,0 0.08643,0.0194 0.111478,0.05221 0.03493,0.0441 0.05221,0.130881 0.05221,0.263878 m 1.064683,-0.489303 c -0.04057,-0.01764 -0.05821,-0.02152 -0.09666,-0.02152 -0.09631,0 -0.175331,0.06562 -0.23107,0.140758 -0.0039,-0.05574 -0.01729,-0.100189 -0.04057,-0.140758 l -0.231422,0.06174 c 0.02117,0.05609 0.03669,0.156281 0.03669,0.289278 v 0.658989 h 0.258233 v -0.697795 c 0.04833,-0.05574 0.100189,-0.0829 0.158044,-0.0829 l 0.07549,0.0194 z m 0.878417,-0.351013 h -0.281517 v 1.339497 h 0.281517 z m 1.072797,1.339497 v -0.721078 c 0,-0.06138 -0.0056,-0.103717 -0.01905,-0.140406 -0.03105,-0.08467 -0.127,-0.142522 -0.237067,-0.142522 -0.05786,0 -0.125589,0.01552 -0.177447,0.04233 -0.04233,0.02328 -0.07514,0.04621 -0.113595,0.07338 0,-0.04057 -0.01341,-0.0829 -0.03704,-0.123472 l -0.228953,0.06562 c 0.02293,0.06526 0.03457,0.146403 0.03457,0.231069 v 0.715081 h 0.258234 v -0.697795 c 0.05962,-0.05398 0.127352,-0.08855 0.179211,-0.08855 0.06773,0 0.08678,0.03281 0.08678,0.144639 v 0.641703 z m 0.782461,-0.02117 -0.03246,-0.154164 c -0.04657,0.01341 -0.0695,0.01905 -0.09278,0.01905 -0.08855,0 -0.111478,-0.03246 -0.111478,-0.158044 v -0.4953 h 0.165806 l 0.06526,-0.177447 h -0.231069 c 0,-0.09984 0.0056,-0.207787 0.01517,-0.29845 l -0.262113,0.06562 c -0.0095,0.07338 -0.0095,0.136878 -0.0095,0.232834 h -0.09807 v 0.177447 h 0.09807 v 0.535869 c 0,0.09066 0.0021,0.110067 0.01729,0.1524 0.03104,0.08678 0.134761,0.144639 0.265994,0.144639 0.06738,0 0.134761,-0.01376 0.209903,-0.04445 m 0.95638,-0.39123 v -0.05997 c 0,-0.206022 -0.04022,-0.339019 -0.13088,-0.431447 -0.0635,-0.06562 -0.171803,-0.104069 -0.285045,-0.104069 -0.131233,0 -0.229305,0.04233 -0.310444,0.132997 -0.08678,0.09631 -0.123472,0.213783 -0.123472,0.39123 0,0.310092 0.183091,0.51047 0.466372,0.51047 0.138642,0 0.258233,-0.0441 0.372181,-0.136525 l -0.100234,-0.154475 c -0.07902,0.06562 -0.161925,0.09842 -0.250825,0.09842 -0.132998,0 -0.208139,-0.08643 -0.208139,-0.23883 v -0.0078 z m -0.267758,-0.189089 h -0.298803 v -0.0039 c 0,-0.136525 0.05574,-0.213783 0.154164,-0.213783 0.05221,0 0.0889,0.0194 0.113947,0.05785 0.02293,0.03669 0.03069,0.07514 0.03069,0.148167 z m 1.462617,-0.277284 -0.10795,-0.164041 c -0.05962,0.05433 -0.132645,0.08502 -0.204259,0.08502 -0.03281,0 -0.06738,-0.0078 -0.121355,-0.02152 -0.07126,-0.01693 -0.121356,-0.0247 -0.177447,-0.0247 -0.252236,0 -0.416278,0.130881 -0.416278,0.333375 0,0.146403 0.0695,0.237067 0.212019,0.273403 -0.161925,0.04269 -0.181327,0.102306 -0.181327,0.165806 0,0.06773 0.02893,0.11183 0.07549,0.129469 0.04621,0.01905 0.121356,0.02857 0.236714,0.03069 l 0.110067,0.0021 c 0.102305,0.0018 0.180975,0.02857 0.180975,0.117475 0,0.04057 -0.0247,0.07691 -0.0635,0.100189 -0.04057,0.02505 -0.09631,0.03281 -0.161925,0.03281 -0.119239,0 -0.184856,-0.04233 -0.184856,-0.121709 l 0.01164,-0.0635 h -0.239184 c -0.0095,0.01905 -0.02293,0.04621 -0.02293,0.100189 0,0.06773 0.02681,0.125589 0.08079,0.175683 0.08855,0.0829 0.233186,0.105834 0.373944,0.105834 0.154164,0 0.302684,-0.03492 0.389114,-0.127353 0.05398,-0.05786 0.07937,-0.121356 0.07937,-0.204258 0,-0.08855 -0.02681,-0.155928 -0.08502,-0.209903 -0.06915,-0.06385 -0.14852,-0.08678 -0.29845,-0.08855 l -0.138995,-0.0021 -0.04269,-0.02328 c 0,-0.02681 0.03704,-0.05009 0.102306,-0.08079 l 0.0388,0.0018 c 0.209903,0 0.364067,-0.123472 0.364067,-0.292805 0,-0.06562 -0.0194,-0.115711 -0.0575,-0.161925 l 0.06703,0.006 c 0.07161,0 0.125236,-0.02152 0.181328,-0.07338 m -0.456847,0.209903 c 0,0.09066 -0.05609,0.140758 -0.157692,0.140758 -0.09066,0 -0.152753,-0.04057 -0.152753,-0.140758 0,-0.09243 0.05609,-0.146403 0.154164,-0.146403 0.09878,0 0.156281,0.05398 0.156281,0.146403 m 1.178983,-0.319617 c -0.04057,-0.01764 -0.05786,-0.02152 -0.09631,-0.02152 -0.09631,0 -0.175331,0.06562 -0.231423,0.140758 -0.0039,-0.05574 -0.01729,-0.100189 -0.04057,-0.140758 l -0.23107,0.06174 c 0.02117,0.05609 0.03669,0.156281 0.03669,0.289278 v 0.658989 h 0.258234 v -0.697795 c 0.04833,-0.05574 0.100189,-0.0829 0.158044,-0.0829 l 0.0755,0.0194 z m 0.967665,0.880534 c -0.0864,-0.06562 -0.0945,-0.111831 -0.0924,-0.219781 l 0.006,-0.331258 c 0.002,-0.106186 -0.004,-0.136878 -0.0176,-0.177447 -0.0384,-0.109714 -0.15205,-0.17145 -0.31785,-0.17145 -0.09067,0 -0.173565,0.01729 -0.269873,0.0575 -0.0695,0.02928 -0.107597,0.04833 -0.159808,0.08114 l 0.109361,0.185209 c 0.106539,-0.07126 0.202847,-0.111831 0.285397,-0.111831 0.0949,0 0.115713,0.03669 0.115713,0.146403 v 0.04057 l -0.0575,-0.0021 c -0.31432,0 -0.474481,0.10795 -0.474481,0.339372 0,0.196497 0.119945,0.308328 0.339725,0.308328 0.08079,0 0.149926,-0.0194 0.198256,-0.05398 l 0.0596,-0.05186 c 0.025,0.05009 0.0794,0.09454 0.139,0.119239 z m -0.34502,-0.32385 -0.004,0.212019 c -0.0385,0.04269 -0.08643,0.06773 -0.134754,0.06773 -0.06562,0 -0.113947,-0.05221 -0.113947,-0.12947 0,-0.117122 0.06209,-0.150283 0.241301,-0.150283 z m 1.03894,0.410633 -0.0328,-0.154164 c -0.0459,0.01341 -0.0692,0.01905 -0.0924,0.01905 -0.0889,0 -0.11183,-0.03246 -0.11183,-0.158044 v -0.4953 h 0.1658 l 0.0656,-0.177447 h -0.23142 c 0,-0.09984 0.006,-0.207787 0.0155,-0.29845 l -0.26211,0.06562 c -0.01,0.07338 -0.01,0.136878 -0.01,0.232834 h -0.0984 v 0.177447 h 0.0984 v 0.535869 c 0,0.09066 0.002,0.110067 0.0169,0.1524 0.031,0.08678 0.13511,0.144639 0.26599,0.144639 0.0677,0 0.13511,-0.01376 0.21026,-0.04445 m 0.43991,0.02117 v -1.010003 l -0.25788,0.04057 v 0.969434 z m 0.031,-1.258711 c 0,-0.08855 -0.0695,-0.159809 -0.15592,-0.159809 -0.0889,0 -0.16193,0.07126 -0.16193,0.159809 0,0.0889 0.0709,0.160161 0.15769,0.160161 0.0889,0 0.16016,-0.07126 0.16016,-0.160161 m 1.0601,0.271639 h -0.26987 l -0.133,0.414513 c -0.031,0.09843 -0.0519,0.192617 -0.0596,0.250825 -0.0138,-0.0635 -0.0427,-0.171802 -0.0639,-0.237066 l -0.14253,-0.445206 -0.26423,0.03281 0.35878,0.971197 h 0.21378 z m 0.92181,0.574675 v -0.05997 c 0,-0.206022 -0.0402,-0.339019 -0.13123,-0.431447 -0.0635,-0.06562 -0.17145,-0.104069 -0.28505,-0.104069 -0.13123,0 -0.2293,0.04233 -0.31009,0.132997 -0.0871,0.09631 -0.12383,0.213783 -0.12383,0.39123 0,0.310092 0.1831,0.51047 0.46638,0.51047 0.13899,0 0.25858,-0.0441 0.37218,-0.136525 l -0.10019,-0.154517 c -0.079,0.06562 -0.16193,0.09842 -0.25047,0.09842 -0.133,0 -0.20814,-0.08643 -0.20814,-0.23883 v -0.0078 z m -0.26811,-0.189089 h -0.2988 v -0.0039 c 0,-0.136525 0.0561,-0.213783 0.15451,-0.213783 0.0519,0 0.0886,0.0194 0.1136,0.05785 0.0229,0.03669 0.0307,0.07514 0.0307,0.148167 z"
       style="fill:#231f20;fill-opacity:1;fill-rule:nonzero;stroke:none;stroke-width:0.352778"
       id="path77" />
    <path
       d="m 1.9280274,4.5599727 c 0.576439,0.332317 1.309511,0.356659 1.927225,0 0.617714,-0.356658 0.96273,-1.003652 0.963083,-1.669344 l 0.914753,0.528108 c -0.149225,0.801864 -0.634647,1.535995 -1.396294,1.975909 -1.089731,0.629355 -2.418292,0.467077 -3.32352,-0.306564 z"
       style="fill:#a6bde6;fill-opacity:1;fill-rule:nonzero;stroke:none;stroke-width:0.352778"
       id="path81" />
    <path
       d="m 3.3730054,3.7255127 c 0.46108,-0.266347 0.619125,-0.855486 0.35313,-1.316567 -0.08925,-0.154516 -0.214841,-0.274461 -0.359833,-0.356305 l 3.53e-4,-3.53e-4 1.45168,0.838553 c -3.53e-4,0.665338 -0.345369,1.312686 -0.963436,1.668991 -0.617361,0.357011 -1.350433,0.332317 -1.926872,0 z"
       style="fill:#568cd1;fill-opacity:1;fill-rule:nonzero;stroke:none;stroke-width:0.352778"
       id="path85" />
    <path
       d="m 1.2221194,3.8544527 c -0.53198898,-0.921808 -0.216606,-2.100792 0.705555,-2.63278 v 1.669697 c 0,0.163689 0.04163,0.329494 0.129117,0.481189 0.265994,0.46108 0.855839,0.619125 1.316214,0.352777 l -1.445331,0.834673 c -0.283633,-0.163689 -0.529872,-0.401109 -0.705555,-0.705556"
       style="fill:#66c544;fill-opacity:1;fill-rule:nonzero;stroke:none;stroke-width:0.352778"
       id="path89" />
    <path
       d="M 1.0125694,5.0885397 C 0.76985842,4.8804007 0.55678042,4.6292237 0.38779942,4.3364177 c -0.798336,-1.382889 -0.324555,-3.150658 1.05833398,-3.94934695 0.15628,-0.08996 0.3175,-0.163336 0.481894,-0.221544 V 1.2213897 c -0.922161,0.532342 -1.23789698,1.711325 -0.705908,2.633134 0.175683,0.304094 0.421922,0.541866 0.705908,0.705555 z"
       style="fill:#b3e194;fill-opacity:1;fill-rule:nonzero;stroke:none;stroke-width:0.352778"
       id="path93" />
    <path
       d="m 2.0567914,3.3726287 c 0.265994,0.461081 0.855486,0.618772 1.316214,0.352778 0.46108,-0.265994 0.618772,-0.855486 0.352777,-1.316214 -0.265994,-0.46108 -0.855486,-0.618772 -1.316566,-0.35313 -0.460728,0.266347 -0.618772,0.855838 -0.352425,1.316566"
       style="fill:#231f20;fill-opacity:1;fill-rule:nonzero;stroke:none;stroke-width:0.352778"
       id="path97" />
    <path
       d="m 3.3666554,2.0524997 c -0.287514,-0.162631 -0.650875,-0.173214 -0.957086,0.0039 -0.309034,0.178153 -0.481542,0.502003 -0.481542,0.835025 v 0 -1.669697 c 0.921808,-0.53234195 2.100439,-0.216253 2.632428,0.705555 0.175683,0.304095 0.258586,0.636059 0.258233,0.963437 l -1.45168,-0.838553 z"
       style="fill:#fcd405;fill-opacity:1;fill-rule:nonzero;stroke:none;stroke-width:0.352778"
       id="path101" />
    <path
       d="m 4.8186884,2.8906997 c 3.53e-4,-0.327378 -0.08255,-0.659342 -0.258233,-0.963437 -0.531989,-0.921808 -1.71062,-1.23789695 -2.632428,-0.705555 V 0.16549075 c 1.288344,-0.4572 2.759075,0.05327 3.467453,1.27987795 0.358422,0.621242 0.459316,1.319389 0.337608,1.973439 z"
       style="fill:#feeb96;fill-opacity:1;fill-rule:nonzero;stroke:none;stroke-width:0.352778"
       id="path105" />
    <path
       d="m 8.4748774,0.99074375 c 0.256469,0 0.46108,0.21060895 0.46108,0.47236995 0,0.262114 -0.210608,0.472722 -0.472722,0.472722 -0.256116,0 -0.466725,-0.210608 -0.466725,-0.472722 0,-0.261761 0.216253,-0.47236995 0.478367,-0.47236995 m -0.392995,1.32644495 0.763059,-0.119592 v 2.983794 h -0.763059 z"
       style="fill:#231f20;fill-opacity:1;fill-rule:nonzero;stroke:none;stroke-width:0.352778"
       id="path109" />
  </g>
</svg>
