<?xml version="1.0" encoding="UTF-8" standalone="no"?>
<!-- Created with Inkscape (http://www.inkscape.org/) -->

<svg
   width="94.352997mm"
   height="19.113001mm"
   viewBox="0 0 94.352997 19.113001"
   version="1.1"
   id="svg616"
   inkscape:version="1.1 (c68e22c387, 2021-05-23)"
   sodipodi:docname="iöw-logo.svg"
   xmlns:inkscape="http://www.inkscape.org/namespaces/inkscape"
   xmlns:sodipodi="http://sodipodi.sourceforge.net/DTD/sodipodi-0.dtd"
   xmlns="http://www.w3.org/2000/svg"
   xmlns:svg="http://www.w3.org/2000/svg">
  <sodipodi:namedview
     id="namedview618"
     pagecolor="#ffffff"
     bordercolor="#666666"
     borderopacity="1.0"
     inkscape:pageshadow="2"
     inkscape:pageopacity="0.0"
     inkscape:pagecheckerboard="0"
     inkscape:document-units="mm"
     showgrid="false"
     inkscape:zoom="0.27496365"
     inkscape:cx="-1452.9193"
     inkscape:cy="1331.085"
     inkscape:window-width="3840"
     inkscape:window-height="2066"
     inkscape:window-x="-11"
     inkscape:window-y="-11"
     inkscape:window-maximized="1"
     inkscape:current-layer="layer1" />
  <defs
     id="defs613">
    <clipPath
       clipPathUnits="userSpaceOnUse"
       id="clipPath211">
      <path
         d="M 0,0 H 595.276 V 841.89 H 0 Z"
         id="path209" />
    </clipPath>
  </defs>
  <g
     inkscape:label="Ebene 1"
     inkscape:groupmode="layer"
     id="layer1">
    <path
       d="M 69.730246,0 V 13.251039"
       style="fill:none;stroke:#231f20;stroke-width:0.342547;stroke-linecap:butt;stroke-linejoin:miter;stroke-miterlimit:4;stroke-dasharray:none;stroke-opacity:1"
       id="path199" />
    <path
       d="M 82.347556,0 V 13.251039"
       style="fill:none;stroke:#231f20;stroke-width:0.342547;stroke-linecap:butt;stroke-linejoin:miter;stroke-miterlimit:4;stroke-dasharray:none;stroke-opacity:1"
       id="path203" />
    <path
       d="m 91.516676,9.251169 -1.38924,-3.50908 c -0.0575,-0.157339 -0.11465,-0.300567 -0.11465,-0.458259 0,-0.472722 0.52987,-0.529872 0.8449,-0.529872 V 4.496077 h -3.05047 v 0.257881 c 0.71614,0 0.87348,0.315031 1.08832,0.873478 l 0.28646,0.773641 -1.36067,2.99332 -1.31762,-3.537656 c -0.0857,-0.200377 -0.18627,-0.444147 -0.18627,-0.658989 0,-0.386644 0.3295,-0.443794 0.60184,-0.443794 V 4.496077 h -2.67829 v 0.257881 c 0.73025,0.128764 0.83044,0.501297 1.07421,1.131358 l 1.99072,5.21335 h 0.25789 l 1.87607,-4.096103 1.58997,4.096103 h 0.30056 l 2.06234,-5.370689 c 0.18627,-0.444147 0.42969,-0.93098 0.95991,-0.974019 V 4.496077 h -2.01965 v 0.257881 c 0.25788,0 0.6731,0.02857 0.6731,0.386644 0,0.214842 -0.12877,0.544337 -0.20038,0.730603 z"
       style="fill:#231f20;fill-opacity:1;fill-rule:nonzero;stroke:none;stroke-width:0.352778"
       id="path215" />
    <path
       d="m 76.157186,4.295559 c -1.87607,0 -3.10797,1.704269 -3.10797,3.466042 0,1.718733 1.18886,3.337277 3.00778,3.337277 2.26272,0 3.17959,-2.076802 3.17959,-3.552119 0,-1.747308 -1.28905,-3.2512 -3.0794,-3.2512 m -0.24342,0.486833 c 1.58962,0 2.0193,2.119842 2.0193,3.365853 0,1.002594 -0.24341,2.463447 -1.54657,2.463447 -1.58997,0 -2.03377,-2.234141 -2.03377,-3.466041 0,-1.833034 0.85902,-2.363259 1.56104,-2.363259"
       style="fill:#231f20;fill-opacity:1;fill-rule:nonzero;stroke:none;stroke-width:0.352778"
       id="path219" />
    <path
       d="m 74.224316,2.283702 c 0,0.388408 0.31644,0.70485 0.70485,0.70485 0.38841,0 0.70485,-0.316442 0.70485,-0.70485 0,-0.388408 -0.31644,-0.70485 -0.70485,-0.70485 -0.38841,0 -0.70485,0.316442 -0.70485,0.70485"
       style="fill:#231f20;fill-opacity:1;fill-rule:nonzero;stroke:none;stroke-width:0.352778"
       id="path223" />
    <path
       d="m 76.671536,2.283702 c 0,0.388408 0.31644,0.70485 0.70485,0.70485 0.38841,0 0.70485,-0.316442 0.70485,-0.70485 0,-0.388408 -0.31644,-0.70485 -0.70485,-0.70485 -0.38841,0 -0.70485,0.316442 -0.70485,0.70485"
       style="fill:#231f20;fill-opacity:1;fill-rule:nonzero;stroke:none;stroke-width:0.352778"
       id="path227" />
    <path
       d="m 65.454726,4.295559 h -0.31503 l -1.93358,0.787753 0.10019,0.243416 c 0.14323,-0.05715 0.3295,-0.114652 0.48684,-0.114652 0.20073,0 0.50129,0 0.50129,0.974019 v 3.494617 c 0,0.845255 -0.32914,0.945444 -0.98813,0.959555 v 0.257881 h 3.13655 v -0.257881 c -0.65864,-0.01411 -0.98813,-0.1143 -0.98813,-0.959555 z"
       style="fill:#231f20;fill-opacity:1;fill-rule:nonzero;stroke:none;stroke-width:0.352778"
       id="path231" />
    <path
       d="m 64.160736,2.283702 c 0,0.388408 0.31644,0.70485 0.70485,0.70485 0.38841,0 0.70485,-0.316442 0.70485,-0.70485 0,-0.388408 -0.31644,-0.70485 -0.70485,-0.70485 -0.38841,0 -0.70485,0.316442 -0.70485,0.70485"
       style="fill:#231f20;fill-opacity:1;fill-rule:nonzero;stroke:none;stroke-width:0.352778"
       id="path235" />
    <text
       style="font-variant:normal;font-weight:300;font-stretch:normal;font-size:2.99861px;font-family:'HelveticaNeueLT Std Lt';-inkscape-font-specification:HelveticaNeueLTStd-Lt;writing-mode:lr-tb;fill:#231f20;fill-opacity:1;fill-rule:nonzero;stroke:none;stroke-width:0.352778"
       id="text239"
       x="-0.2767272"
       y="19.075287"><tspan
         x="-0.2767272 0.7188096 3.1596818 5.378653 7.3757234 8.3712683 10.368339 12.752234 14.749312 15.912772 17.852873 20.236769 22.566687 23.730154 26.281973 28.554922 31.106726 33.046837 35.598656 38.150475 39.146004 41.36499 43.805855 46.246727 48.354744 49.518204 52.56781 53.563324 55.911247 57.908318 60.127296 62.568169 65.009026 67.228004 69.168098 71.165184 73.384148 75.324257 77.876076 80.205986 82.424965 84.865837 87.306709 89.690605 92.131462"
         y="19.075287"
         sodipodi:role="line"
         id="tspan237"
         style="stroke-width:0.352778">INSTITUT FÜR ÖKOLOGISCHE WIRTSCHAFTSFORSCHUNG</tspan></text>
  </g>
</svg>
