<?xml version="1.0" encoding="UTF-8" standalone="no"?>
<!-- Created with Inkscape (http://www.inkscape.org/) -->

<svg
   width="58.370998mm"
   height="19.575001mm"
   viewBox="0 0 58.370998 19.575001"
   version="1.1"
   id="svg2470"
   inkscape:version="1.1 (c68e22c387, 2021-05-23)"
   sodipodi:docname="isoe-logo.svg"
   xmlns:inkscape="http://www.inkscape.org/namespaces/inkscape"
   xmlns:sodipodi="http://sodipodi.sourceforge.net/DTD/sodipodi-0.dtd"
   xmlns="http://www.w3.org/2000/svg"
   xmlns:svg="http://www.w3.org/2000/svg">
  <sodipodi:namedview
     id="namedview2472"
     pagecolor="#ffffff"
     bordercolor="#666666"
     borderopacity="1.0"
     inkscape:pageshadow="2"
     inkscape:pageopacity="0.0"
     inkscape:pagecheckerboard="0"
     inkscape:document-units="mm"
     showgrid="false"
     inkscape:zoom="0.77771465"
     inkscape:cx="567.68893"
     inkscape:cy="519.47073"
     inkscape:window-width="3840"
     inkscape:window-height="2066"
     inkscape:window-x="-11"
     inkscape:window-y="-11"
     inkscape:window-maximized="1"
     inkscape:current-layer="layer1" />
  <defs
     id="defs2467" />
  <g
     inkscape:label="Ebene 1"
     inkscape:groupmode="layer"
     id="layer1">
    <g
       id="g2413"
       transform="translate(-280.95658,-52.839938)">
      <path
         d="m 327.15251,57.079057 v -0.08805 h -4.6374 l 0.008,11.265817 h 4.62883 l -0.004,-0.08805 c -1.78689,0 -2.71081,-0.422628 -3.64744,-1.149703 0.22197,-0.405271 1.22301,-1.976296 1.36815,-2.271501 0.43656,0.500733 1.99005,1.012367 2.25679,0.19999 0.31591,-0.963013 -1.05128,-1.34687 -2.13618,-1.956153 -2.09134,-1.17355 -2.03073,-5.908004 2.16285,-5.912343"
         style="fill:#80cc28;fill-opacity:1;fill-rule:nonzero;stroke:none;stroke-width:0.352778"
         id="path848" />
      <path
         d="m 330.81265,55.183511 c 0,0.892351 0.72355,1.61604 1.61576,1.61604 0.89278,0 1.61604,-0.723689 1.61604,-1.61604 0,-0.892351 -0.72326,-1.615863 -1.61604,-1.615863 -0.89221,0 -1.61576,0.723512 -1.61576,1.615863"
         style="fill:#80cc28;fill-opacity:1;fill-rule:nonzero;stroke:none;stroke-width:0.352778"
         id="path850" />
      <path
         d="m 334.19526,55.183511 c 0,0.892351 0.7233,1.61604 1.61611,1.61604 0.8925,0 1.61573,-0.723689 1.61573,-1.61604 0,-0.892351 -0.72323,-1.615863 -1.61573,-1.615863 -0.89281,0 -1.61611,0.723512 -1.61611,1.615863"
         style="fill:#80cc28;fill-opacity:1;fill-rule:nonzero;stroke:none;stroke-width:0.352778"
         id="path852" />
      <path
         d="m 339.32797,56.982925 h -5.2057 v 0.09377 c 1.95295,0 4.0294,1.302597 4.0294,5.759379 0,4.185779 -1.98343,5.31936 -4.0294,5.31936 v 0.101388 h 5.2057"
         style="fill:#80cc28;fill-opacity:1;fill-rule:nonzero;stroke:none;stroke-width:0.352778"
         id="path854" />
      <path
         d="m 297.25403,58.784067 h 0.44387 v -3.483822 h -0.44387 z"
         style="fill:#231f20;fill-opacity:1;fill-rule:nonzero;stroke:none;stroke-width:0.352778"
         id="path856" />
      <path
         d="m 299.81636,58.784067 v -1.688888 c 0,-0.260633 -0.0916,-0.472829 -0.42947,-0.472829 -0.43423,0 -0.49699,0.38601 -0.49699,0.718997 v 1.44272 h -0.39564 v -1.930118 c 0,-0.168839 -0.01,-0.33782 -0.0243,-0.506624 h 0.41984 v 0.313619 h 0.0194 c 0.15441,-0.275025 0.33764,-0.361844 0.6514,-0.361844 0.52109,0 0.65148,0.31362 0.65148,0.796079 v 1.688888"
         style="fill:#231f20;fill-opacity:1;fill-rule:nonzero;stroke:none;stroke-width:0.352778"
         id="path858" />
      <path
         d="m 301.62633,58.832256 c -0.52603,0 -0.85422,-0.231598 -0.83965,-0.79128 h 0.44863 c 0,0.139876 0.005,0.468065 0.40544,0.468065 0.2364,0 0.41977,-0.120614 0.41977,-0.371581 0,-0.434269 -1.21602,-0.443865 -1.21602,-1.172492 0,-0.255834 0.15441,-0.665868 0.83965,-0.665868 0.43423,0 0.80585,0.207398 0.77201,0.689892 h -0.43903 c 0.005,-0.255658 -0.13035,-0.390842 -0.38121,-0.390842 -0.21237,0 -0.37641,0.115817 -0.37641,0.328189 0,0.429436 1.21606,0.419841 1.21606,1.162897 0,0.535622 -0.36682,0.74302 -0.84924,0.74302"
         style="fill:#231f20;fill-opacity:1;fill-rule:nonzero;stroke:none;stroke-width:0.352778"
         id="path860" />
      <path
         d="m 303.09339,56.347325 v -0.46803 l 0.3956,-0.178612 v 0.646642 h 0.53083 v 0.299226 h -0.53083 v 1.490909 c 0,0.154376 0,0.352178 0.36199,0.352178 0.0289,0 0.0917,-0.0096 0.17843,-0.01919 v 0.303989 c -0.13017,0.0096 -0.26045,0.03863 -0.3908,0.03863 -0.37642,0 -0.54522,-0.154411 -0.54522,-0.43441 v -1.732104 h -0.40051 v -0.299226"
         style="fill:#231f20;fill-opacity:1;fill-rule:nonzero;stroke:none;stroke-width:0.352778"
         id="path862" />
      <path
         d="m 304.77758,58.784067 h -0.3956 v -2.436742 h 0.3956 z m -0.4198,-3.483822 h 0.44397 v 0.424639 h -0.44397"
         style="fill:#231f20;fill-opacity:1;fill-rule:nonzero;stroke:none;stroke-width:0.352778"
         id="path864" />
      <path
         d="m 305.50625,56.347325 v -0.46803 l 0.3956,-0.178612 v 0.646642 h 0.53083 v 0.299226 h -0.53083 v 1.490909 c 0,0.154376 0,0.352178 0.36199,0.352178 0.0289,0 0.0916,-0.0096 0.17847,-0.01919 v 0.303989 c -0.13021,0.0096 -0.26046,0.03863 -0.39085,0.03863 -0.37641,0 -0.54521,-0.154411 -0.54521,-0.43441 v -1.732104 h -0.40048 v -0.299226"
         style="fill:#231f20;fill-opacity:1;fill-rule:nonzero;stroke:none;stroke-width:0.352778"
         id="path866" />
      <path
         d="m 308.10731,56.347325 h 0.39564 v 1.930118 c 0,0.168804 0.01,0.337784 0.0243,0.506624 h -0.4198 v -0.294429 h -0.0145 c -0.13028,0.222039 -0.36188,0.342618 -0.61767,0.342618 -0.42464,0 -0.65621,-0.212196 -0.65621,-0.627239 v -1.857692 h 0.39575 v 1.688888 c 0,0.294252 0.13501,0.492055 0.4149,0.492055 0.21234,0 0.47777,-0.159209 0.47777,-0.564445"
         style="fill:#231f20;fill-opacity:1;fill-rule:nonzero;stroke:none;stroke-width:0.352778"
         id="path868" />
      <path
         d="m 309.2609,56.347325 v -0.46803 l 0.39564,-0.178612 v 0.646642 h 0.53078 v 0.299226 h -0.53078 v 1.490909 c 0,0.154376 0,0.352178 0.36198,0.352178 0.0289,0 0.0916,-0.0096 0.17844,-0.01919 v 0.303989 c -0.13025,0.0096 -0.26046,0.03863 -0.39085,0.03863 -0.37627,0 -0.54521,-0.154411 -0.54521,-0.43441 v -1.732104 h -0.40048 v -0.299226"
         style="fill:#231f20;fill-opacity:1;fill-rule:nonzero;stroke:none;stroke-width:0.352778"
         id="path870" />
      <path
         d="m 311.70275,56.347325 v -0.472863 c 0,-0.492196 0.34738,-0.588787 0.69967,-0.588787 0.082,0 0.13017,0.0048 0.18817,0.01457 v 0.284621 c -0.41981,-0.02896 -0.4922,0.149613 -0.4922,0.347451 v 0.415008 h 0.4922 v 0.299226 h -0.4922 v 2.137516 h -0.39564 v -2.137516 h -0.37641 v -0.299226"
         style="fill:#231f20;fill-opacity:1;fill-rule:nonzero;stroke:none;stroke-width:0.352778"
         id="path872" />
      <path
         d="m 314.48232,55.937115 h -0.4537 v -0.501826 h 0.4537 z m -0.84927,0 h -0.45375 v -0.501826 h 0.45375 z m 0.64163,0.41021 h 0.39592 v 1.930118 c 0,0.168804 0.01,0.337784 0.024,0.506624 h -0.42005 v -0.294429 h -0.0141 c -0.1305,0.222039 -0.36195,0.342618 -0.61782,0.342618 -0.4245,0 -0.65631,-0.212196 -0.65631,-0.627239 v -1.857692 h 0.39592 v 1.688888 c 0,0.294252 0.13497,0.492055 0.41501,0.492055 0.21241,0 0.47748,-0.159209 0.47748,-0.564445"
         style="fill:#231f20;fill-opacity:1;fill-rule:nonzero;stroke:none;stroke-width:0.352778"
         id="path874" />
      <path
         d="m 315.79522,56.713967 h 0.01 c 0.16414,-0.371475 0.36667,-0.414867 0.75279,-0.414867 v 0.410034 c -0.0339,-0.0048 -0.0724,-0.0096 -0.10608,-0.01439 -0.0339,-0.0048 -0.0676,-0.0096 -0.10636,-0.0096 -0.43907,0 -0.54988,0.332881 -0.54988,0.66107 v 1.437887 h -0.39592 v -2.436742 h 0.39592"
         style="fill:#231f20;fill-opacity:1;fill-rule:nonzero;stroke:none;stroke-width:0.352778"
         id="path876" />
      <path
         d="m 281.79665,64.134577 c -0.52599,0 -0.85404,-0.231599 -0.83961,-0.791281 h 0.4488 c 0,0.139877 0.005,0.467925 0.40524,0.467925 0.23643,0 0.41984,-0.120333 0.41984,-0.371475 0,-0.434058 -1.21606,-0.444007 -1.21606,-1.172634 0,-0.255481 0.15441,-0.665691 0.83961,-0.665691 0.43427,0 0.80585,0.207398 0.77206,0.689892 h -0.43904 c 0.005,-0.255517 -0.13038,-0.390702 -0.38121,-0.390702 -0.21237,0 -0.37641,0.115676 -0.37641,0.328049 0,0.429401 1.21606,0.41984 1.21606,1.16272 0,0.535763 -0.36678,0.743197 -0.84928,0.743197"
         style="fill:#231f20;fill-opacity:1;fill-rule:nonzero;stroke:none;stroke-width:0.352778"
         id="path878" />
      <path
         d="m 284.59076,62.735284 c 0,-0.666009 -0.20758,-0.810472 -0.5116,-0.810472 -0.30399,0 -0.51142,0.144463 -0.51142,0.810472 0,0.79128 0.10135,1.075937 0.51142,1.075937 0.41021,0 0.5116,-0.284657 0.5116,-1.075937 z m -1.43803,0.168698 c 0,-0.713775 0.082,-1.302561 0.92643,-1.302561 0.84444,0 0.92646,0.588786 0.92646,1.302561 0,1.076184 -0.41003,1.230595 -0.92646,1.230595 -0.51626,0 -0.92643,-0.154411 -0.92643,-1.230595"
         style="fill:#231f20;fill-opacity:1;fill-rule:nonzero;stroke:none;stroke-width:0.352778"
         id="path880" />
      <path
         d="m 286.96026,62.011631 -1.0759,1.751506 h 1.10966 v 0.323391 h -1.53927 v -0.371757 l 1.06164,-1.732315 v -0.0096 h -1.00848 v -0.323391 h 1.45235"
         style="fill:#231f20;fill-opacity:1;fill-rule:nonzero;stroke:none;stroke-width:0.352778"
         id="path882" />
      <path
         d="m 287.89664,64.086528 h -0.39568 v -2.437059 h 0.39568 z m -0.41984,-3.483821 h 0.44397 v 0.424462 h -0.44397"
         style="fill:#231f20;fill-opacity:1;fill-rule:nonzero;stroke:none;stroke-width:0.352778"
         id="path884" />
      <path
         d="m 288.94368,63.362558 c 0,0.236573 0.11578,0.448663 0.38118,0.448663 0.24144,0 0.54045,-0.149472 0.5019,-0.935779 -0.37645,0.0047 -0.88308,-0.02914 -0.88308,0.487116 z m 0.89267,0.371757 h -0.01 c -0.12065,0.279647 -0.30886,0.400262 -0.61285,0.400262 -0.51629,0 -0.66587,-0.33267 -0.66587,-0.800876 0,-0.738541 0.72383,-0.772055 1.27872,-0.757767 0.01,-0.323074 0.0145,-0.675323 -0.41007,-0.675323 -0.2654,0 -0.40545,0.178612 -0.38125,0.434094 h -0.42944 c 0.0194,-0.545077 0.30883,-0.733284 0.82508,-0.733284 0.62727,0 0.79128,0.323391 0.79128,0.733284 v 1.172633 c 0,0.192863 0.0194,0.390666 0.0484,0.57919 h -0.43438"
         style="fill:#231f20;fill-opacity:1;fill-rule:nonzero;stroke:none;stroke-width:0.352778"
         id="path886" />
      <path
         d="m 290.98524,64.086528 h 0.39564 v -3.483821 h -0.39564 z"
         style="fill:#231f20;fill-opacity:1;fill-rule:nonzero;stroke:none;stroke-width:0.352778"
         id="path888" />
      <path
         d="m 291.98893,62.957287 h 1.06147 v -0.37144 h -1.06147 z"
         style="fill:#231f20;fill-opacity:1;fill-rule:nonzero;stroke:none;stroke-width:0.352778"
         id="path890" />
      <path
         d="m 295.18347,61.239576 h -0.45363 v -0.502002 h 0.45363 z m -0.13998,1.495708 c 0,-0.666009 -0.2075,-0.810472 -0.51149,-0.810472 -0.30399,0 -0.51142,0.144463 -0.51142,0.810472 0,0.79128 0.10139,1.075937 0.51142,1.075937 0.41025,0 0.51149,-0.284657 0.51149,-1.075937 z m -0.70926,-1.495708 h -0.45363 v -0.502002 h 0.45363 z m -0.72866,1.664406 c 0,-0.713775 0.082,-1.302561 0.92643,-1.302561 0.84444,0 0.92646,0.588786 0.92646,1.302561 0,1.076184 -0.41003,1.230595 -0.92646,1.230595 -0.51626,0 -0.92643,-0.154411 -0.92643,-1.230595"
         style="fill:#231f20;fill-opacity:1;fill-rule:nonzero;stroke:none;stroke-width:0.352778"
         id="path892" />
      <path
         d="m 296.4818,64.086528 h -0.39564 v -3.483821 h 0.39564 v 2.098816 h 0.01 l 0.74319,-1.052054 h 0.48246 l -0.81068,1.047362 0.95546,1.389697 h -0.50179 l -0.86864,-1.365497 h -0.01"
         style="fill:#231f20;fill-opacity:1;fill-rule:nonzero;stroke:none;stroke-width:0.352778"
         id="path894" />
      <path
         d="m 299.59912,62.735284 c 0,-0.666009 -0.20736,-0.810472 -0.51142,-0.810472 -0.30402,0 -0.51146,0.144463 -0.51146,0.810472 0,0.79128 0.10143,1.075937 0.51146,1.075937 0.41021,0 0.51142,-0.284657 0.51142,-1.075937 z m -1.43788,0.168698 c 0,-0.713775 0.082,-1.302561 0.92646,-1.302561 0.84445,0 0.92643,0.588786 0.92643,1.302561 0,1.076184 -0.41003,1.230595 -0.92643,1.230595 -0.51622,0 -0.92646,-0.154411 -0.92646,-1.230595"
         style="fill:#231f20;fill-opacity:1;fill-rule:nonzero;stroke:none;stroke-width:0.352778"
         id="path896" />
      <path
         d="m 300.63227,64.086528 h 0.39564 v -3.483821 h -0.39564 z"
         style="fill:#231f20;fill-opacity:1;fill-rule:nonzero;stroke:none;stroke-width:0.352778"
         id="path898" />
      <path
         d="m 303.08358,62.735284 c 0,-0.666009 -0.20761,-0.810472 -0.51156,-0.810472 -0.30406,0 -0.5115,0.144463 -0.5115,0.810472 0,0.79128 0.10143,1.075937 0.5115,1.075937 0.41021,0 0.51156,-0.284657 0.51156,-1.075937 z m -1.43806,0.168698 c 0,-0.713775 0.0821,-1.302561 0.9265,-1.302561 0.84441,0 0.92643,0.588786 0.92643,1.302561 0,1.076184 -0.41007,1.230595 -0.92643,1.230595 -0.51626,0 -0.9265,-0.154411 -0.9265,-1.230595"
         style="fill:#231f20;fill-opacity:1;fill-rule:nonzero;stroke:none;stroke-width:0.352778"
         id="path900" />
      <path
         d="m 304.95122,61.929433 c -0.44866,0 -0.46323,0.540456 -0.46323,0.863847 0,0.78165 0.17857,0.964918 0.473,0.964918 0.47763,0 0.46324,-0.564621 0.46324,-0.9023 0,-0.361844 0.024,-0.926465 -0.47301,-0.926465 z m 0.46323,-0.279964 h 0.39582 v 2.682945 c 0,0.545395 -0.36199,0.675605 -0.89768,0.675605 -0.40523,0 -0.77198,-0.202776 -0.73819,-0.651439 h 0.44397 c 0.005,0.226659 0.15442,0.352248 0.37144,0.352248 0.27507,0 0.42464,-0.16898 0.42464,-0.419805 v -0.50666 h -0.0145 c -0.10135,0.193181 -0.32322,0.304165 -0.53562,0.304165 -0.66104,0 -0.79125,-0.569595 -0.79125,-1.293248 0,-1.11961 0.56445,-1.191859 0.76228,-1.191859 0.25573,0 0.4584,0.110984 0.56939,0.347556 h 0.01"
         style="fill:#231f20;fill-opacity:1;fill-rule:nonzero;stroke:none;stroke-width:0.352778"
         id="path902" />
      <path
         d="m 306.92522,64.086528 h -0.39567 v -2.437059 h 0.39567 z m -0.41984,-3.483821 h 0.44401 v 0.424462 h -0.44401"
         style="fill:#231f20;fill-opacity:1;fill-rule:nonzero;stroke:none;stroke-width:0.352778"
         id="path904" />
      <path
         d="m 308.32949,64.134577 c -0.52603,0 -0.85425,-0.231599 -0.83965,-0.791281 h 0.44863 c 0,0.139877 0.005,0.467925 0.40545,0.467925 0.23636,0 0.41977,-0.120333 0.41977,-0.371475 0,-0.434058 -1.21602,-0.444007 -1.21602,-1.172634 0,-0.255481 0.15437,-0.665691 0.83961,-0.665691 0.43427,0 0.80585,0.207398 0.77205,0.689892 h -0.43903 c 0.005,-0.255517 -0.13035,-0.390702 -0.38125,-0.390702 -0.21234,0 -0.37638,0.115676 -0.37638,0.328049 0,0.429401 1.21606,0.41984 1.21606,1.16272 0,0.535763 -0.36682,0.743197 -0.84924,0.743197"
         style="fill:#231f20;fill-opacity:1;fill-rule:nonzero;stroke:none;stroke-width:0.352778"
         id="path906" />
      <path
         d="m 311.02701,62.431436 c 0.01,-0.400579 -0.18825,-0.506624 -0.33786,-0.506624 -0.30399,0 -0.51142,0.144463 -0.51142,0.810472 0,0.79128 0.10139,1.075937 0.51142,1.075937 0.0918,0 0.36682,-0.09645 0.35228,-0.535482 h 0.41501 c 0.0145,0.685236 -0.49706,0.858838 -0.76729,0.858838 -0.51622,0 -0.92646,-0.154411 -0.92646,-1.230595 0,-0.713775 0.082,-1.302561 0.92646,-1.302561 0.48743,0 0.77206,0.284621 0.74807,0.830015"
         style="fill:#231f20;fill-opacity:1;fill-rule:nonzero;stroke:none;stroke-width:0.352778"
         id="path908" />
      <path
         d="m 313.48827,64.086528 v -1.650435 c 0,-0.299226 -0.0966,-0.511281 -0.43434,-0.511281 -0.39561,0 -0.49696,0.3181 -0.49696,0.728627 v 1.433089 h -0.39564 v -3.483821 h 0.39564 v 1.360558 h 0.0194 c 0.15914,-0.284657 0.34262,-0.361844 0.66107,-0.361844 0.41501,0 0.64643,0.207398 0.64643,0.757484 v 1.727623"
         style="fill:#231f20;fill-opacity:1;fill-rule:nonzero;stroke:none;stroke-width:0.352778"
         id="path910" />
      <path
         d="m 315.91555,62.696831 c 0,-0.709401 -0.1978,-0.79622 -0.48704,-0.79622 -0.25118,0 -0.45847,0.120615 -0.46327,0.79622 z m -0.95031,0.298908 c 0,0.680262 0.1832,0.815482 0.49216,0.815482 0.27016,0 0.41021,-0.217065 0.42446,-0.463233 h 0.43434 c -0.005,0.540703 -0.3375,0.786589 -0.84931,0.786589 -0.51622,0 -0.92646,-0.154411 -0.92646,-1.230595 0,-0.713775 0.0823,-1.302561 0.92646,-1.302561 0.69501,0 0.86868,0.381035 0.86868,1.186885 v 0.207433"
         style="fill:#231f20;fill-opacity:1;fill-rule:nonzero;stroke:none;stroke-width:0.352778"
         id="path912" />
      <path
         d="M 296.63124,69.388531 V 65.90471 h 1.72755 v 0.386009 h -1.28351 v 1.119646 h 1.21588 v 0.385727 h -1.21588 v 1.592439"
         style="fill:#231f20;fill-opacity:1;fill-rule:nonzero;stroke:none;stroke-width:0.352778"
         id="path914" />
      <path
         d="m 300.1346,68.037287 c 0,-0.665692 -0.20739,-0.810472 -0.51142,-0.810472 -0.30399,0 -0.51149,0.14478 -0.51149,0.810472 0,0.791598 0.10142,1.076219 0.51149,1.076219 0.41021,0 0.51142,-0.284621 0.51142,-1.076219 z m -1.43785,0.16898 c 0,-0.714057 0.082,-1.302561 0.92643,-1.302561 0.84441,0 0.92643,0.588504 0.92643,1.302561 0,1.076219 -0.41007,1.23063 -0.92643,1.23063 -0.51625,0 -0.92643,-0.154411 -0.92643,-1.23063"
         style="fill:#231f20;fill-opacity:1;fill-rule:nonzero;stroke:none;stroke-width:0.352778"
         id="path916" />
      <path
         d="m 301.58756,67.318608 h 0.01 c 0.16404,-0.371475 0.36668,-0.414902 0.75269,-0.414902 v 0.409928 c -0.0335,-0.005 -0.0724,-0.0096 -0.10601,-0.01429 -0.0339,-0.0049 -0.0676,-0.0099 -0.10626,-0.0099 -0.43903,0 -0.55002,0.333022 -0.55002,0.66107 v 1.438028 h -0.39578 V 66.9518 h 0.39578"
         style="fill:#231f20;fill-opacity:1;fill-rule:nonzero;stroke:none;stroke-width:0.352778"
         id="path918" />
      <path
         d="m 303.50342,69.436897 c -0.52603,0 -0.85425,-0.231916 -0.83965,-0.79128 h 0.44863 c 0,0.139523 0.005,0.467889 0.40541,0.467889 0.2364,0 0.41981,-0.120615 0.41981,-0.371757 0,-0.434058 -1.21603,-0.443689 -1.21603,-1.172316 0,-0.255799 0.15438,-0.665727 0.83962,-0.665727 0.43427,0 0.80585,0.207151 0.77205,0.689927 h -0.43903 c 0.005,-0.255834 -0.13035,-0.391019 -0.38125,-0.391019 -0.21234,0 -0.37638,0.115994 -0.37638,0.328048 0,0.429719 1.2161,0.419841 1.2161,1.163038 0,0.535446 -0.36682,0.743197 -0.84928,0.743197"
         style="fill:#231f20;fill-opacity:1;fill-rule:nonzero;stroke:none;stroke-width:0.352778"
         id="path920" />
      <path
         d="m 306.20094,67.733439 c 0.01,-0.400579 -0.18825,-0.506624 -0.33782,-0.506624 -0.30399,0 -0.51146,0.14478 -0.51146,0.810472 0,0.791598 0.10139,1.076219 0.51146,1.076219 0.0918,0 0.36678,-0.09641 0.35224,-0.535482 h 0.41501 c 0.0145,0.685271 -0.49706,0.858873 -0.76725,0.858873 -0.51626,0 -0.9265,-0.154411 -0.9265,-1.23063 0,-0.714057 0.082,-1.302561 0.9265,-1.302561 0.48743,0 0.77201,0.284656 0.74803,0.829733"
         style="fill:#231f20;fill-opacity:1;fill-rule:nonzero;stroke:none;stroke-width:0.352778"
         id="path922" />
      <path
         d="m 308.66216,69.388531 v -1.650118 c 0,-0.299226 -0.0964,-0.511598 -0.43427,-0.511598 -0.3956,0 -0.49699,0.318417 -0.49699,0.728627 v 1.433089 h -0.39564 V 65.90471 h 0.39564 v 1.360558 h 0.0194 c 0.15921,-0.284657 0.34262,-0.361562 0.66107,-0.361562 0.41483,0 0.64643,0.207151 0.64643,0.757202 v 1.727623"
         style="fill:#231f20;fill-opacity:1;fill-rule:nonzero;stroke:none;stroke-width:0.352778"
         id="path924" />
      <path
         d="m 311.05597,66.951789 h 0.39564 v 1.930118 c 0,0.168663 0.01,0.337961 0.024,0.506624 h -0.41981 v -0.294569 h -0.0145 c -0.13028,0.222038 -0.36188,0.342935 -0.61768,0.342935 -0.4246,0 -0.65624,-0.212372 -0.65624,-0.627521 v -1.857587 h 0.39578 v 1.688889 c 0,0.294252 0.13501,0.492054 0.41491,0.492054 0.21233,0 0.47776,-0.159067 0.47776,-0.564621"
         style="fill:#231f20;fill-opacity:1;fill-rule:nonzero;stroke:none;stroke-width:0.352778"
         id="path926" />
      <path
         d="m 313.48827,69.388531 v -1.688888 c 0,-0.260456 -0.0918,-0.472828 -0.42962,-0.472828 -0.43409,0 -0.49692,0.386009 -0.49692,0.718996 v 1.44272 h -0.39557 v -1.930117 c 0,-0.168981 -0.01,-0.337644 -0.0243,-0.506625 h 0.41977 v 0.313479 h 0.0194 c 0.15431,-0.274744 0.33779,-0.361562 0.65151,-0.361562 0.52098,0 0.65116,0.313478 0.65116,0.795937 v 1.688888"
         style="fill:#231f20;fill-opacity:1;fill-rule:nonzero;stroke:none;stroke-width:0.352778"
         id="path928" />
      <path
         d="m 315.40438,67.231754 c -0.44895,0 -0.46323,0.540138 -0.46323,0.863529 0,0.78165 0.17875,0.9652 0.47275,0.9652 0.47784,0 0.46324,-0.564585 0.46324,-0.902264 0,-0.362127 0.0243,-0.926465 -0.47276,-0.926465 z m 0.46323,-0.279965 h 0.39557 v 2.682946 c 0,0.545077 -0.36163,0.675287 -0.89757,0.675287 -0.4051,0 -0.77213,-0.202459 -0.73819,-0.651122 h 0.4439 c 0.005,0.22666 0.15459,0.352214 0.37148,0.352214 0.27495,0 0.42481,-0.168946 0.42481,-0.419806 v -0.506624 h -0.0148 c -0.10128,0.192863 -0.32318,0.303847 -0.53527,0.303847 -0.66103,0 -0.79188,-0.569277 -0.79188,-1.293248 0,-1.119328 0.56484,-1.191577 0.76267,-1.191577 0.25587,0 0.45847,0.110701 0.56956,0.34731 h 0.01"
         style="fill:#231f20;fill-opacity:1;fill-rule:nonzero;stroke:none;stroke-width:0.352778"
         id="path930" />
      <path
         d="M 319.46616,52.839938 V 72.415329"
         style="fill:none;stroke:#80cc28;stroke-width:0.381;stroke-linecap:butt;stroke-linejoin:miter;stroke-miterlimit:4;stroke-dasharray:none;stroke-opacity:1"
         id="path932" />
    </g>
  </g>
</svg>
