<svg xmlns="http://www.w3.org/2000/svg" width="133.438" height="29.164" viewBox="0 0 133.438 29.164"><path fill="#96BD0D" d="M21.58 9.145h-6.067l5-9.13H18.96l-5.134 9.12h-6.07L12.762 0C6.118 0 0 6.24 0 13.702 0 21.242 6.117 27 12.988 27.297c7.03.305 13.708-5.657 13.65-13.652h.023V.125l-5.08 9.02z"/><path fill="#1A171C" d="M41.618.12c-.74 0-1.34.6-1.34 1.325 0 .74.6 1.34 1.34 1.34.724 0 1.326-.6 1.326-1.34 0-.725-.602-1.325-1.326-1.325m-8.192 1.24c0-.723-.6-1.324-1.326-1.324h-.003c-.736 0-1.337.6-1.337 1.325 0 .74.6 1.34 1.34 1.34.726 0 1.326-.6 1.326-1.34m3.428.833c-1.342 0-2.654.416-3.61 1.172-1.295 1.018-2.08 2.604-2.08 4.203 0 3.23 2.404 5.574 5.69 5.574 3.256 0 5.69-2.36 5.69-5.48a5.42 5.42 0 0 0-1.34-3.586c-1.094-1.247-2.56-1.88-4.35-1.88m0 8.36a2.894 2.894 0 0 1-2.9-2.893c0-1.583 1.296-2.875 2.9-2.875s2.9 1.292 2.9 2.876c0 1.6-1.296 2.893-2.9 2.893M51.828 5.8H48.45l-2.59 2.514V1.482h-2.467v11.3h2.467V9.95l2.714 2.835h3.47l-3.717-3.76z"/><path fill="#1A171C" d="M55.433 5.54c-2.412 0-4.202 1.557-4.202 3.676 0 2.258 1.715 3.818 4.205 3.818 2.444 0 4.188-1.56 4.188-3.757 0-2.18-1.743-3.736-4.187-3.736m-.043 5.32c-.89 0-1.594-.72-1.594-1.596 0-.89.704-1.595 1.593-1.595.874 0 1.58.704 1.58 1.594a1.59 1.59 0 0 1-1.58 1.595m4.662-2.74h3.905v2.05h-3.907zM64.56 2.5h2.668v10.286H64.56zm8.4 3.135c-1.033 0-1.604.263-2.264 1.035v-.88h-2.468v6.995h2.468V9.03c0-.463.076-.726.262-.973a1.35 1.35 0 0 1 1.03-.464c.432 0 .83.217.986.542.14.262.153.4.153 1.112v3.536h2.468V8.335c0-.958-.155-1.436-.647-1.93-.494-.51-1.157-.772-1.99-.772m7.052 2.714c-.526-.123-.603-.138-.696-.17-.28-.092-.42-.23-.42-.416 0-.305.312-.505.762-.505.43 0 .88.107 1.342.34l.83-1.604c-.77-.325-1.4-.45-2.25-.45-1.036 0-1.808.25-2.346.74a2.414 2.414 0 0 0-.77 1.76c0 1.14.54 1.665 2.047 1.97.864.188 1.05.295 1.05.65 0 .308-.325.54-.775.54-.57 0-1.324-.28-1.97-.71l-.895 1.74c.91.54 1.82.805 2.788.805 2.023 0 3.335-1.033 3.335-2.606 0-1.14-.633-1.804-2.036-2.08m5.61-4.652h-2.47v2.097h-.815v2.05h.816v4.938h2.468V7.846h1.404v-2.05h-1.404zm3.26-1.975c-.77 0-1.39.617-1.39 1.387s.616 1.386 1.39 1.386A1.38 1.38 0 0 0 90.26 3.11a1.38 1.38 0 0 0-1.387-1.387m-1.235 4.07h2.467v6.99H87.64zm6.288-2.095H91.46v2.097h-.817v2.05h.817v4.938h2.468V7.846h1.402v-2.05h-1.402zm7.012 6.057c0 .85-.416 1.28-1.252 1.28-.852 0-1.27-.43-1.27-1.28v-3.96H95.95v4.44c0 1.848 1.296 2.836 3.737 2.836 2.425 0 3.72-.985 3.72-2.834v-4.44h-2.467v3.96zm6.356-6.057h-2.468v2.097h-.816v2.05h.816v4.938h2.468V7.846h1.402v-2.05h-1.402zm8.86 1.9c-2.39 0-3.888 1.444-3.888 3.772 0 2.232 1.59 3.682 4.056 3.682 1.188 0 2.298-.432 2.914-1.172.293-.34.448-.648.617-1.226h-2.374c-.31.472-.62.654-1.19.654-1.018 0-1.51-.503-1.527-1.552h5.198V9.43c0-2.372-1.467-3.833-3.81-3.833m-1.614 2.72c.14-.73.634-1.136 1.434-1.136.695 0 1.235.44 1.404 1.14h-2.837zm7.875 1.563a1.59 1.59 0 0 0-1.602 1.59c0 .894.71 1.6 1.6 1.6.88 0 1.59-.706 1.59-1.6 0-.88-.71-1.59-1.59-1.59m7.13-7.382L127.04 8.76l-2.47-6.262h-2.912l4.316 10.285h2.083l4.38-10.285zm2.127 7.382a1.59 1.59 0 0 0-1.603 1.59 1.59 1.59 0 0 0 1.603 1.6c.878 0 1.587-.706 1.587-1.6 0-.88-.71-1.59-1.587-1.59m-100.503 6.2h1.144v4.42h-1.144zm2.995 1.426v.376c.284-.33.53-.44.974-.44.36 0 .645.11.86.327.21.21.276.413.276.823V20.5h-1.06v-1.514c0-.306-.007-.364-.067-.478-.067-.14-.24-.23-.425-.23a.582.582 0 0 0-.443.197c-.08.106-.112.22-.112.417V20.5H33.1v-2.995h1.06zm4.796.77c-.198-.1-.39-.144-.574-.144-.197 0-.33.086-.33.218 0 .08.06.138.18.178.04.012.074.02.3.072.6.118.87.4.87.89 0 .674-.56 1.12-1.43 1.12-.417 0-.806-.114-1.197-.347l.384-.748c.277.184.6.303.845.303.193 0 .335-.1.335-.23 0-.15-.08-.197-.454-.277-.648-.13-.88-.35-.88-.84 0-.282.127-.57.33-.754.232-.213.562-.318 1.01-.318.363 0 .634.054.964.192l-.357.69zM41.17 20.5h-1.06v-2.114h-.352v-.882h.35v-.902h1.062v.902h.603v.882h-.603zm2.03.002h-1.062v-3h1.06v3zm.064-4.152c0 .33-.264.595-.596.595a.593.593 0 0 1 0-1.19c.332 0 .596.265.596.595m1.81 4.15h-1.06v-2.114h-.352v-.882h.35v-.902h1.062v.902h.604v.882h-.604zm2.028-1.295c0 .363.18.55.545.55.358 0 .538-.187.538-.55v-1.7h1.06v1.905c0 .794-.556 1.218-1.598 1.218-1.05 0-1.606-.424-1.606-1.218v-1.905h1.064v1.7zM51.12 20.5h-1.062v-2.114h-.35v-.882h.35v-.902h1.062v.902h.603v.882h-.603zm3.742 0h-1.06v-2.114h-.38v-.882h.38v-.46c0-.507.092-.772.357-1.044a1.37 1.37 0 0 1 .98-.424.95.95 0 0 1 .47.113v.92c-.174-.08-.26-.107-.37-.107-.14 0-.294.087-.34.2-.034.073-.04.172-.04.42v.38h.75v.882h-.75V20.5zm2.17-1.295c0 .363.18.55.544.55.358 0 .54-.187.54-.55v-1.7h1.06v1.905c0 .794-.557 1.218-1.6 1.218-1.047 0-1.605-.424-1.605-1.218v-1.906h1.064v1.7zm.365-2.746c0 .314-.26.572-.572.572a.575.575 0 0 1-.574-.575.574.574 0 0 1 1.15 0m1.5 0c0 .316-.26.574-.57.574a.576.576 0 0 1-.575-.574c0-.312.258-.57.575-.57.31 0 .57.258.57.57m2.024 1.05v.49c.246-.376.53-.53.988-.53.073 0 .1 0 .204.008v1.017a.84.84 0 0 0-.45-.106c-.496 0-.742.285-.742.837v1.28h-1.062v-2.99h1.062zm4.934.813a.682.682 0 0 1 0 1.363.69.69 0 0 1-.69-.684.68.68 0 0 1 .69-.68m.652-.816v.293a1.213 1.213 0 0 0-.938-.394c-.856 0-1.51.69-1.51 1.596 0 .895.66 1.6 1.517 1.6.403 0 .695-.133.93-.43v.33h1.06v-2.996h-1.06zm2.806 0v.377c.284-.33.53-.44.973-.44.355 0 .64.11.853.328.212.21.276.414.276.824V20.5h-1.06v-1.514c0-.306-.007-.364-.066-.478-.066-.14-.24-.23-.424-.23a.586.586 0 0 0-.443.197c-.08.106-.11.22-.11.417V20.5h-1.062v-2.995h1.062zm4.47.8a.685.685 0 1 1 0 1.372.685.685 0 0 1 0-1.372m1.694-.806h-1.063v.31c-.253-.286-.512-.397-.897-.397-.87 0-1.525.7-1.525 1.63 0 .89.608 1.52 1.466 1.52.4 0 .64-.1.96-.39v.277c0 .447-.26.72-.69.72-.267 0-.433-.1-.506-.305H72.03c.045.257.125.415.323.62.338.364.776.528 1.388.528.574 0 1.02-.158 1.337-.482.312-.31.405-.6.405-1.232v-2.8zm1.74 1.083c.06-.31.273-.485.615-.485.3 0 .532.187.604.486h-1.22zm2.207.614v-.138c0-1.016-.63-1.646-1.638-1.646-1.03 0-1.67.623-1.67 1.618 0 .966.68 1.588 1.74 1.588.51 0 .987-.186 1.254-.503.126-.146.19-.278.265-.53h-1.02c-.135.206-.267.285-.51.285-.44 0-.65-.218-.657-.675h2.233zm1.975-.11l.756-1.58h.662l.756 1.628.757-1.628h1.18L83.94 20.5h-.715l-.75-1.64-.714 1.64h-.713L79.5 17.505h1.187zm5.974-.764a.68.68 0 0 1 0 1.364.69.69 0 0 1-.692-.684c0-.376.306-.68.692-.68m.652-.815v.293a1.22 1.22 0 0 0-.938-.394c-.856 0-1.513.69-1.513 1.596 0 .896.663 1.6 1.52 1.6.405 0 .698-.132.932-.43v.33h1.06v-2.995h-1.064zm2.804 0v.377c.285-.33.53-.44.975-.44.356 0 .642.11.855.327.21.21.278.413.278.823V20.5h-1.062v-1.514c0-.306-.005-.364-.065-.478-.065-.14-.238-.23-.424-.23a.58.58 0 0 0-.446.197c-.08.106-.113.22-.113.417V20.5h-1.06v-2.995h1.06zm4.478.817a.68.68 0 0 1 0 1.36.693.693 0 0 1-.692-.682c0-.376.307-.678.693-.678m.654-2.674v2.15a1.214 1.214 0 0 0-.938-.393c-.855 0-1.512.69-1.512 1.595 0 .896.662 1.6 1.52 1.6.404 0 .696-.132.93-.43v.33h1.06v-4.852h-1.06zm2.93 4.852h-1.06v-2.114h-.353v-.882h.355v-.902h1.06v.902h.604v.882h-.604zm2.01-1.917c.06-.312.273-.486.616-.486.3 0 .53.187.604.486h-1.22zm2.208.613v-.138c0-1.016-.63-1.646-1.64-1.646-1.024 0-1.668.623-1.668 1.618 0 .966.683 1.588 1.743 1.588.51 0 .987-.186 1.253-.503.125-.146.192-.278.265-.53h-1.02c-.134.206-.266.285-.512.285-.437 0-.65-.218-.655-.675h2.234zm4.552-2.126c.69 0 1.248.553 1.248 1.23 0 .686-.56 1.238-1.248 1.238-.69 0-1.248-.553-1.248-1.238 0-.677.558-1.23 1.248-1.23m0-1.116c-.577 0-1.142.18-1.552.505a2.333 2.333 0 0 0-.895 1.8c0 1.384 1.033 2.393 2.446 2.393 1.398 0 2.445-1.016 2.445-2.354 0-.57-.205-1.11-.576-1.535-.47-.54-1.1-.812-1.868-.812m-.796-1.432a.575.575 0 0 0-.578.57c0 .317.258.574.575.574a.572.572 0 0 0 0-1.143h.003zm1.583 0a.574.574 0 0 0-.573.57.57.57 0 1 0 .576-.57m3.307 4.058l1.114-1.08h1.45l-1.505 1.385 1.595 1.618h-1.49l-1.167-1.22v1.22h-1.06v-4.86h1.06zm4.487-.266a.68.68 0 0 1 0 1.362.68.68 0 0 1 0-1.362m0-.916c-1.043 0-1.81.67-1.81 1.578 0 .966.734 1.635 1.81 1.635 1.057 0 1.804-.67 1.804-1.61 0-.936-.744-1.606-1.8-1.606m2.38-1.755h1.06v4.86h-1.06zm3.437 2.672a.68.68 0 0 1 0 1.362.68.68 0 0 1 0-1.362m0-.916c-1.044 0-1.81.67-1.81 1.578 0 .966.734 1.635 1.81 1.635 1.055 0 1.802-.67 1.802-1.61 0-.936-.75-1.606-1.805-1.606m4.054.91a.684.684 0 1 1 0 1.373.684.684 0 0 1 0-1.373m1.69-.806h-1.06v.31c-.252-.286-.512-.397-.897-.397-.87 0-1.525.7-1.525 1.63 0 .89.607 1.52 1.464 1.52.398 0 .638-.1.957-.39v.277c0 .447-.258.72-.69.72-.267 0-.433-.1-.506-.305h-1.193c.048.257.127.415.325.62.34.364.776.528 1.388.528.57 0 1.016-.158 1.334-.482.31-.31.403-.6.403-1.232v-2.8zm1.753 3.002h-1.06v-3h1.06v3zm.067-4.152c0 .33-.265.595-.596.595a.594.594 0 0 1 0-1.19c.33 0 .598.265.598.595m1.598 2.233c.06-.31.273-.485.616-.485.3 0 .53.187.605.486h-1.22zm2.208.614v-.138c0-1.016-.63-1.646-1.637-1.646-1.025 0-1.67.623-1.67 1.618 0 .966.685 1.588 1.745 1.588.51 0 .987-.186 1.253-.503.126-.146.192-.278.266-.53h-1.02c-.135.206-.267.285-.513.285-.437 0-.65-.218-.655-.675h2.234zM31.234 23.23h1.144v4.42h-1.144zm2.996 1.425v.376c.284-.326.53-.44.974-.44.357 0 .642.114.855.33.21.21.275.417.275.827v1.906h-1.06v-1.516c0-.305-.007-.363-.067-.477-.067-.14-.24-.23-.425-.23a.58.58 0 0 0-.443.197c-.08.105-.113.22-.113.416v1.61h-1.06v-2.996h1.06zm4.797.773c-.198-.1-.39-.145-.574-.145-.194 0-.328.086-.328.216 0 .08.06.136.18.176.042.012.075.02.3.073.6.12.872.4.872.887 0 .676-.562 1.12-1.43 1.12-.417 0-.807-.11-1.198-.344l.38-.748c.28.183.603.303.847.303.192 0 .334-.1.334-.233 0-.15-.08-.197-.453-.276-.648-.13-.88-.355-.88-.84 0-.285.127-.57.33-.757.232-.213.562-.318 1.01-.318.362 0 .634.054.964.19l-.356.69zm2.217 2.222h-1.06v-2.115h-.352v-.88h.35v-.903h1.062v.902h.603v.88h-.603zm2.026 0h-1.06v-3h1.06v3zm.068-4.15c0 .33-.266.594-.597.594a.593.593 0 0 1-.593-.594c0-.33.265-.595.596-.595.332 0 .598.264.598.595m1.808 4.15h-1.06v-2.115h-.352v-.88h.35v-.903h1.062v.902h.604v.88h-.602zm2.03-1.296c0 .365.18.55.543.55.36 0 .54-.185.54-.55v-1.7h1.06v1.905c0 .792-.556 1.22-1.6 1.22-1.047 0-1.604-.428-1.604-1.22V24.65h1.06v1.7zm4.016 1.296h-1.06v-2.115h-.35v-.88h.35v-.903h1.06v.902h.603v.88h-.603zm2.01-1.917c.06-.313.273-.487.617-.487.3 0 .53.188.606.487h-1.22zm2.208.613v-.14c0-1.012-.63-1.643-1.637-1.643-1.028 0-1.67.623-1.67 1.618 0 .97.682 1.59 1.743 1.59.51 0 .988-.186 1.252-.502.127-.146.192-.278.265-.53h-1.02c-.133.206-.266.285-.51.285-.438 0-.65-.217-.656-.675h2.23zm3.348 1.304H57.7v-2.115h-.38v-.88h.38v-.463c0-.507.092-.77.357-1.043a1.37 1.37 0 0 1 .982-.428.97.97 0 0 1 .47.113v.922c-.175-.08-.26-.107-.374-.107-.14 0-.292.087-.338.2-.035.074-.04.174-.04.42v.38h.75v.883h-.75v2.115zm2.854-2.187a.68.68 0 0 1 0 1.36.685.685 0 0 1-.692-.68c0-.38.306-.68.692-.68m0-.917c-1.043 0-1.81.67-1.81 1.577 0 .967.734 1.636 1.81 1.636 1.056 0 1.803-.67 1.803-1.61 0-.935-.747-1.606-1.803-1.606m3.44.112v.492c.245-.38.53-.534.988-.534.072 0 .1 0 .205.007v1.018a.85.85 0 0 0-.45-.104c-.498 0-.743.283-.743.836v1.28h-1.06v-2.994h1.06zm5.73 1.357h-.954l.484-1.414.47 1.41zm.312.874l.285.764h1.23l-1.664-4.42H69.69l-1.696 4.42h1.213l.304-.76H71.1zm3.604-1.415a.68.68 0 0 1 0 1.362c-.38 0-.69-.31-.69-.684s.304-.678.69-.678m-.657 3.683v-1.797c.266.273.552.392.938.392.86 0 1.517-.696 1.517-1.595 0-.896-.664-1.6-1.52-1.6-.406 0-.7.132-.932.43v-.33H72.98v4.5h1.063zm4.734-3.683a.68.68 0 0 1 0 1.362c-.378 0-.69-.31-.69-.684s.305-.678.69-.678m-.658 3.683v-1.797c.264.273.55.392.935.392.855 0 1.512-.696 1.512-1.595 0-.896-.664-1.6-1.52-1.6-.405 0-.698.132-.932.43v-.33h-1.06v4.5h1.06zm3.016-6.365h1.06v4.86h-1.06zm2.81 4.86h-1.062v-3h1.062v3zm.066-4.15c0 .33-.265.594-.597.594s-.595-.264-.595-.594c0-.33.263-.595.595-.595s.597.264.597.595m1.6 2.233c.06-.313.27-.487.618-.487.298 0 .53.188.603.487h-1.22zm2.21.613v-.14c0-1.012-.63-1.643-1.638-1.643-1.027 0-1.672.623-1.672 1.618 0 .97.685 1.59 1.745 1.59.51 0 .988-.186 1.253-.502.126-.146.192-.278.265-.53h-1.02c-.134.206-.266.285-.512.285-.437 0-.648-.217-.654-.675h2.233zm2.252-.874a.682.682 0 0 1 0 1.363.69.69 0 0 1-.69-.685.68.68 0 0 1 .69-.678m.653-2.674v2.148a1.218 1.218 0 0 0-.94-.392c-.853 0-1.51.69-1.51 1.595 0 .894.663 1.6 1.52 1.6.404 0 .697-.135.93-.434v.332h1.06v-4.854h-1.06zm4.62 1.404v.74h1.292v.972h-1.296v.766h1.366v.972H94.2V23.23h2.51v.972zm4.223 1.428c-.205-.14-.357-.193-.55-.193-.416 0-.73.304-.73.715 0 .437.3.735.744.735a.857.857 0 0 0 .536-.2v.9a1.733 1.733 0 0 1-2.068-.455 1.488 1.488 0 0 1-.317-.953c0-.936.71-1.617 1.684-1.617.262 0 .46.046.7.166v.9zm2.26-.167a.68.68 0 0 1 0 1.36.685.685 0 0 1-.69-.68c0-.38.305-.68.69-.68m0-.917c-1.042 0-1.808.67-1.808 1.577 0 .967.732 1.636 1.81 1.636 1.055 0 1.802-.67 1.802-1.61 0-.935-.747-1.606-1.803-1.606m2.38-1.754h1.06v4.86h-1.06zm3.44 2.673a.68.68 0 0 1 0 1.36.684.684 0 0 1-.69-.68c0-.38.304-.68.69-.68m0-.917c-1.042 0-1.81.67-1.81 1.577 0 .967.734 1.636 1.81 1.636 1.056 0 1.803-.67 1.803-1.61 0-.935-.747-1.606-1.802-1.606m4.054.91c.38 0 .685.306.685.684a.685.685 0 1 1-.686-.686m1.693-.807h-1.062v.312c-.252-.286-.512-.398-.896-.398-.87 0-1.527.7-1.527 1.63 0 .89.61 1.52 1.466 1.52.4 0 .64-.1.956-.392v.28c0 .447-.26.717-.69.717-.267 0-.434-.098-.505-.303h-1.193c.046.257.125.416.324.62.34.365.776.528 1.39.528.57 0 1.016-.157 1.333-.48.313-.313.405-.6.405-1.235v-2.8zm.33.008h1.232l.8 1.536.78-1.54h1.214l-2.413 4.5h-1.187l1.023-1.903z"/></svg>