<?xml version="1.0" encoding="UTF-8" standalone="no"?>
<!-- Created with Inkscape (http://www.inkscape.org/) -->

<svg
   width="126.15mm"
   height="24.436001mm"
   viewBox="0 0 126.15 24.436001"
   version="1.1"
   id="svg230"
   inkscape:version="1.1 (c68e22c387, 2021-05-23)"
   sodipodi:docname="uni-kassel.svg"
   xmlns:inkscape="http://www.inkscape.org/namespaces/inkscape"
   xmlns:sodipodi="http://sodipodi.sourceforge.net/DTD/sodipodi-0.dtd"
   xmlns="http://www.w3.org/2000/svg"
   xmlns:svg="http://www.w3.org/2000/svg">
  <sodipodi:namedview
     id="namedview232"
     pagecolor="#ffffff"
     bordercolor="#666666"
     borderopacity="1.0"
     inkscape:pageshadow="2"
     inkscape:pageopacity="0.0"
     inkscape:pagecheckerboard="0"
     inkscape:document-units="mm"
     showgrid="false"
     inkscape:zoom="0.38885732"
     inkscape:cx="357.45759"
     inkscape:cy="1222.8136"
     inkscape:window-width="2269"
     inkscape:window-height="1387"
     inkscape:window-x="1289"
     inkscape:window-y="476"
     inkscape:window-maximized="0"
     inkscape:current-layer="layer1" />
  <defs
     id="defs227">
    <clipPath
       clipPathUnits="userSpaceOnUse"
       id="clipPath308">
      <path
         d="m 617.524,402.675 h 549.375 V 561.259 H 617.524 Z"
         id="path306" />
    </clipPath>
  </defs>
  <g
     inkscape:label="Ebene 1"
     inkscape:groupmode="layer"
     id="layer1">
    <g
       id="g592"
       transform="translate(-156.65675,-233.38859)">
      <path
         d="m 207.91191,241.63738 v -4.28625 l 3.7278,4.28625 h 1.57762 l -4.01743,-4.46617 3.61527,-3.6142 h -1.53423 l -3.36903,3.50273 v -3.50273 h -1.11866 v 8.08037 z"
         style="fill:#231f20;fill-opacity:1;fill-rule:nonzero;stroke:none;stroke-width:0.352778"
         id="path296" />
      <path
         d="m 224.02701,234.66504 1.46685,3.90596 h -3.01237 z m -2.79859,6.9723 0.87278,-2.10326 h 3.75038 l 0.87277,2.10326 h 1.2199 l -3.26883,-8.08037 h -1.19733 l -3.40219,8.08037 z"
         style="fill:#231f20;fill-opacity:1;fill-rule:evenodd;stroke:none;stroke-width:0.352778"
         id="path300" />
      <g
         id="g310"
         transform="matrix(0.35277777,0,0,-0.35277777,235.43489,239.2761)">
        <path
           d="m 0,0 c -0.126,-5.14 3.362,-7.171 8.155,-7.171 4.633,0 9.296,1.841 9.296,7.045 0,5.773 -5.744,5.773 -9.964,7.136 -1.996,0.636 -3.836,0.794 -3.836,3.396 0,2.728 3.077,3.552 5.328,3.552 2.285,0 4.442,-0.888 4.571,-3.458 h 3.329 c 0,4.443 -3.839,6.189 -7.742,6.189 -4.281,0 -8.818,-1.84 -8.818,-6.82 0,-5.142 6.28,-5.998 10.057,-6.822 1.905,-0.381 3.743,-1.301 3.743,-3.524 0,-3.204 -3.171,-3.965 -5.773,-3.965 -3.08,0 -4.95,1.204 -5.012,4.442 z"
           style="fill:#231f20;fill-opacity:1;fill-rule:nonzero;stroke:none"
           id="path312" />
      </g>
      <g
         id="g314"
         transform="matrix(0.35277777,0,0,-0.35277777,249.64629,239.2761)">
        <path
           d="m 0,0 c -0.124,-5.14 3.364,-7.171 8.158,-7.171 4.63,0 9.295,1.841 9.295,7.045 0,5.773 -5.746,5.773 -9.963,7.136 -1.999,0.636 -3.839,0.794 -3.839,3.396 0,2.728 3.079,3.552 5.33,3.552 2.283,0 4.443,-0.888 4.569,-3.458 h 3.332 c 0,4.443 -3.842,6.189 -7.742,6.189 -4.284,0 -8.821,-1.84 -8.821,-6.82 0,-5.142 6.283,-5.998 10.055,-6.822 1.907,-0.381 3.745,-1.301 3.745,-3.524 0,-3.204 -3.169,-3.965 -5.773,-3.965 -3.077,0 -4.95,1.204 -5.012,4.442 z"
           style="fill:#231f20;fill-opacity:1;fill-rule:nonzero;stroke:none"
           id="path316" />
      </g>
      <g
         id="g318"
         transform="matrix(0.35277777,0,0,-0.35277777,269.26465,241.63738)">
        <path
           d="m 0,0 v 2.731 h -11.453 v 7.579 h 10.661 v 2.728 h -10.661 v 7.141 h 11.198 v 2.726 H -14.626 V 0 Z"
           style="fill:#231f20;fill-opacity:1;fill-rule:nonzero;stroke:none"
           id="path320" />
      </g>
      <g
         id="g322"
         transform="matrix(0.35277777,0,0,-0.35277777,282.79777,241.63738)">
        <path
           d="m 0,0 v 2.731 h -10.661 v 20.174 h -3.173 V 0 Z"
           style="fill:#231f20;fill-opacity:1;fill-rule:nonzero;stroke:none"
           id="path324" />
      </g>
      <g
         id="g326"
         transform="matrix(0.35277777,0,0,-0.35277777,160.97722,255.42958)">
        <path
           d="m 0,0 h -0.064 l -5.17,16.592 h -7.013 l 8.091,-22.907 h 7.584 l 8.344,22.907 H 5.459 Z"
           style="fill:#c71365;fill-opacity:1;fill-rule:nonzero;stroke:none"
           id="path328" />
      </g>
      <g
         id="g330"
         transform="matrix(0.35277777,0,0,-0.35277777,181.80346,257.65709)">
        <path
           d="m 0,0 v 4.442 h -11.104 v 4.856 h 10.216 v 4.44 h -10.216 v 4.727 H 0 v 4.442 H -17.451 V 0 Z"
           style="fill:#c71365;fill-opacity:1;fill-rule:nonzero;stroke:none"
           id="path332" />
      </g>
      <g
         id="g334"
         transform="matrix(0.35277777,0,0,-0.35277777,194.59222,254.56891)">
        <path
           d="m 0,0 h 2.38 c 3.237,0 3.364,-1.14 3.613,-3.901 0.161,-1.615 0.354,-3.265 0.703,-4.853 h 6.884 c -0.54,1.838 -0.891,3.646 -1.047,5.553 -0.413,3.555 -1.177,5.615 -5.236,5.712 v 0.126 c 3.206,0.378 5.84,2.186 5.84,5.617 0,4.853 -5.014,5.9 -8.885,5.9 H -6.345 V -8.754 H 0 Z m 0,4.445 v 5.266 h 2.474 c 2.03,0 3.997,-0.282 3.997,-2.634 0,-2.348 -1.967,-2.632 -3.997,-2.632 z"
           style="fill:#c71365;fill-opacity:1;fill-rule:evenodd;stroke:none"
           id="path336" />
      </g>
      <g
         id="g338"
         transform="matrix(0.35277777,0,0,-0.35277777,216.54463,251.94847)">
        <path
           d="m 0,0 c 0.381,5.518 -4.475,7.2 -9.202,7.2 -4.791,0 -9.552,-1.489 -9.802,-6.918 0,-2.471 1.14,-4.564 3.458,-5.583 4.979,-2.189 9.676,-1.521 9.676,-4.63 0,-1.526 -1.87,-2.286 -3.332,-2.286 -2.285,0 -3.871,1.173 -3.841,3.332 h -6.342 c 0.094,-6.218 4.791,-7.772 10.119,-7.772 5.301,0 10.058,2.281 10.058,7.107 0,6.186 -5.583,6.567 -9.422,7.549 -1.682,0.443 -3.713,0.987 -3.713,2.669 0,1.14 1.269,2.092 2.728,2.092 1.079,0 1.903,-0.254 2.442,-0.729 C -6.599,1.553 -6.312,0.888 -6.347,0 Z"
           style="fill:#c71365;fill-opacity:1;fill-rule:nonzero;stroke:none"
           id="path340" />
      </g>
      <path
         d="m 229.81052,249.57643 h -2.23838 v 8.08108 h 2.23838 z"
         style="fill:#c71365;fill-opacity:1;fill-rule:nonzero;stroke:none;stroke-width:0.352778"
         id="path342" />
      <g
         id="g344"
         transform="matrix(0.35277777,0,0,-0.35277777,242.66627,257.65709)">
        <path
           d="m 0,0 h 6.347 v 18.465 h 7.173 v 4.442 H -7.008 V 18.465 H 0 Z"
           style="fill:#c71365;fill-opacity:1;fill-rule:nonzero;stroke:none"
           id="path346" />
      </g>
      <g
         id="g348"
         transform="matrix(0.35277777,0,0,-0.35277777,260.27955,254.51264)">
        <path
           d="M 0,0 3.112,9.521 H 3.206 L 6.127,0 Z m -3.107,-8.915 1.492,4.475 h 9.293 l 1.523,-4.475 h 7.174 L 7.331,13.993 h -7.742 l -9.04,-22.908 z"
           style="fill:#c71365;fill-opacity:1;fill-rule:evenodd;stroke:none"
           id="path350" />
      </g>
      <g
         id="g352"
         transform="matrix(0.35277777,0,0,-0.35277777,278.03767,257.65709)">
        <path
           d="m 0,0 h 6.347 v 18.465 h 7.171 v 4.442 H -7.012 V 18.465 H 0 Z"
           style="fill:#c71365;fill-opacity:1;fill-rule:nonzero;stroke:none"
           id="path354" />
      </g>
      <g
         id="g356"
         transform="matrix(0.35277777,0,0,-0.35277777,162.82419,233.55725)">
        <path
           d="m 0,0 v -14.178 c -0.094,-2.919 -1.618,-4.764 -4.598,-4.764 -2.986,0 -4.507,1.845 -4.604,4.764 V 0 h -6.347 v -14.497 c 0.065,-6.38 5.175,-8.885 10.951,-8.885 5.773,0 10.881,2.505 10.943,8.885 L 6.345,0 Z"
           style="fill:#c71365;fill-opacity:1;fill-rule:nonzero;stroke:none"
           id="path358" />
      </g>
      <g
         id="g360"
         transform="matrix(0.35277777,0,0,-0.35277777,175.11959,241.63738)">
        <path
           d="M 0,0 H 5.711 V 17.547 H 5.773 L 13.548,0 h 8.788 V 22.905 H 16.625 V 5.899 L 16.563,5.838 8.885,22.905 H 0 Z"
           style="fill:#c71365;fill-opacity:1;fill-rule:nonzero;stroke:none"
           id="path362" />
      </g>
      <path
         d="m 196.2543,233.55715 h -2.23838 v 8.08037 h 2.23838 z"
         style="fill:#c71365;fill-opacity:1;fill-rule:nonzero;stroke:none;stroke-width:0.352778"
         id="path364" />
      <path
         d="m 255.57,248.81373 h 2.01401 v 1.78964 H 255.57 Z"
         style="fill:#c71365;fill-opacity:1;fill-rule:nonzero;stroke:none;stroke-width:0.352778"
         id="path366" />
      <path
         d="m 265.47847,248.81373 h 2.01401 v 1.78964 h -2.01401 z"
         style="fill:#c71365;fill-opacity:1;fill-rule:nonzero;stroke:none;stroke-width:0.352778"
         id="path368" />
    </g>
  </g>
</svg>
