<svg xmlns="http://www.w3.org/2000/svg" width="250" height="100" viewBox="0 0 250 100">
  <g fill="none" fill-rule="evenodd" transform="translate(1 3)">
    <polyline fill="#5E5E5E" points="89.388 48.9 93.744 43.114 89.546 43.114 89.546 41.239 96.036 41.239 96.036 43.114 91.766 48.9 96.181 48.9 96.181 50.856 89.388 50.856 89.388 48.9"/>
    <path fill="#5E5E5E" d="M102.198102 46.8084172C102.206151 46.4648221 102.105035 46.1700245 101.894752 45.9255337 101.68447 45.6810429 101.41382 45.5587975 101.081795 45.5587975 100.880065 45.5587975 100.701979 45.5950184 100.548544 45.6674601 100.394605 45.7399018 100.263304 45.8329693 100.154139 45.9456564 100.044973 46.0593497 99.9599547 46.1906503 99.8995866 46.3400613 99.8387155 46.4889693 99.8040038 46.6454233 99.7964578 46.8084172L102.198102 46.8084172zM103.738495 49.7151411C103.447722 50.132184 103.079476 50.4531411 102.634765 50.6800245 102.190053 50.9059018 101.729243 51.019092 101.251832 51.019092 100.799071 51.019092 100.37247 50.9375951 99.9720284 50.7746012 99.5720897 50.6116074 99.223967 50.3786871 98.9291695 50.0748344 98.6338689 49.7719877 98.4014517 49.4072638 98.2314149 48.9816687 98.0618811 48.5560736 97.9768627 48.0806748 97.9768627 47.5559755 97.9768627 47.030773 98.0618811 46.5548712 98.2314149 46.1292761 98.4014517 45.703681 98.6338689 45.3394601 98.9291695 45.0361104 99.223967 44.7327607 99.5720897 44.4993374 99.9720284 44.3363436 100.37247 44.1733497 100.799071 44.0918528 101.251832 44.0918528 101.672396 44.0918528 102.054728 44.1733497 102.398323 44.3363436 102.741918 44.4993374 103.032691 44.7327607 103.271648 45.0361104 103.510102 45.3394601 103.694225 45.703681 103.823513 46.1292761 103.952801 46.5548712 104.017697 47.030773 104.017697 47.5559755L104.017697 48.193865 99.7964578 48.193865C99.8688995 48.5832393 100.026863 48.8936319 100.269341 49.1245399 100.51182 49.3554479 100.811145 49.4706503 101.166814 49.4706503 101.466139 49.4706503 101.719182 49.3961963 101.924936 49.2467853 102.131194 49.0973742 102.311292 48.9046994 102.464728 48.6692638L103.738495 49.7151411 103.738495 49.7151411zM105.546016 44.2548466L107.292666 44.2548466 107.292666 45.1513129 107.316814 45.1513129C107.373157 45.0245399 107.454151 44.8977669 107.559292 44.7709939 107.664433 44.6442209 107.789697 44.5315337 107.935587 44.4314233 108.080973 44.331816 108.246985 44.250319 108.432617 44.1869325 108.618752 44.123546 108.820985 44.0918528 109.039317 44.0918528 109.500127 44.0918528 109.872396 44.1713374 110.155623 44.3293006 110.438347 44.4882699 110.658691 44.7076074 110.816654 44.988319 110.974114 45.2695337 111.081268 45.599546 111.138114 45.979865 111.194458 46.3606871 111.22263 46.7721963 111.22263 47.2159018L111.22263 50.8560982 109.403035 50.8560982 109.403035 47.6233865C109.403035 47.433227 109.396998 47.2365276 109.384924 47.0327853 109.37285 46.8285399 109.33663 46.6408957 109.275758 46.4688466 109.214887 46.2973006 109.122323 46.1564417 108.997059 46.0482822 108.871292 45.9391166 108.691194 45.8847853 108.457268 45.8847853 108.222335 45.8847853 108.032679 45.9325767 107.886789 46.0271534 107.741403 46.1227362 107.630225 46.2495092 107.553255 46.4074724 107.476286 46.5664417 107.425979 46.7450307 107.401832 46.9442454 107.377685 47.1434601 107.365611 47.3517301 107.365611 47.5690552L107.365611 50.8560982 105.546016 50.8560982 105.546016 44.2548466M117.675979 45.8847853L116.074715 45.8847853 116.074715 48.0852025C116.074715 48.2668098 116.082765 48.431816 116.098863 48.581227 116.114961 48.730638 116.151685 48.8594233 116.208028 48.9680859 116.264372 49.0767485 116.351403 49.1607607 116.468617 49.2191166 116.585832 49.2784785 116.741783 49.3076564 116.935967 49.3076564 117.033059 49.3076564 117.160335 49.296589 117.317795 49.2739509 117.475758 49.2513129 117.594985 49.1989939 117.675979 49.1174969L117.675979 50.8153497C117.473746 50.8968466 117.263464 50.951681 117.045133 50.9783436 116.826801 51.0055092 116.612495 51.019092 116.402212 51.019092 116.094838 51.019092 115.811611 50.9828712 115.553035 50.9109325 115.293955 50.8379877 115.068077 50.7222822 114.87339 50.564319 114.679709 50.4058528 114.527783 50.1995951 114.41912 49.9465521 114.309452 49.6930061 114.25512 49.3846258 114.25512 49.0229202L114.25512 45.8847853 113.090519 45.8847853 113.090519 44.2548466 114.25512 44.2548466 114.25512 42.2989202 116.074715 42.2989202 116.074715 44.2548466 117.675979 44.2548466 117.675979 45.8847853M119.022188 44.2548466L120.841783 44.2548466 120.841783 45.3143067 120.866433 45.3143067C121.059611 44.9068221 121.290519 44.6009571 121.557145 44.3972147 121.824274 44.1939755 122.159317 44.0918528 122.564286 44.0918528 122.669427 44.0918528 122.774568 44.0968834 122.879709 44.1054356 122.98485 44.1149939 123.081942 44.1326012 123.170482 44.1602699L123.170482 46.0206135C123.041697 45.9753374 122.913918 45.9416319 122.788151 45.9189939 122.66339 45.8963558 122.531587 45.8847853 122.394249 45.8847853 122.046127 45.8847853 121.770949 45.9391166 121.569722 46.0482822 121.367488 46.1564417 121.211035 46.3083681 121.101869 46.5030552 120.993206 46.6977423 120.922274 46.9306626 120.889574 47.202319 120.857378 47.4739755 120.841783 47.7727975 120.841783 48.0987853L120.841783 50.8560982 119.022188 50.8560982 119.022188 44.2548466M130.302973 50.8560982L128.556826 50.8560982 128.556826 49.9596319 128.532176 49.9596319C128.46728 50.086908 128.384777 50.2131779 128.28366 50.3399509 128.182544 50.467227 128.058789 50.5799141 127.913403 50.6800245 127.768016 50.7796319 127.602004 50.8606258 127.416372 50.9240123 127.230237 50.9873988 127.028004 51.019092 126.809673 51.019092 126.348863 51.019092 125.974581 50.9396074 125.687832 50.7816442 125.400581 50.6231779 125.178225 50.4038405 125.020261 50.1226258 124.862801 49.8419141 124.75766 49.5113988 124.704838 49.1310798 124.652519 48.7512638 124.62636 48.3387485 124.62636 47.8950429L124.62636 44.2548466 126.445452 44.2548466 126.445452 47.4875583C126.445452 47.6777178 126.451992 47.8744172 126.464065 48.0786626 126.476139 48.2824049 126.51236 48.4700491 126.573231 48.6420982 126.633599 48.8146503 126.726666 48.9545031 126.85193 49.0631656 126.977194 49.1718282 127.157292 49.2261595 127.391722 49.2261595 127.626151 49.2261595 127.816311 49.1783681 127.9622 49.0837914 128.107587 48.9882086 128.218765 48.8614356 128.295734 48.7034724 128.372703 48.5450061 128.42301 48.3659141 128.447157 48.1666994 128.471808 47.9674847 128.483378 47.7592147 128.483378 47.5418896L128.483378 44.2548466 130.302973 44.2548466 130.302973 50.8560982M132.498863 44.2548466L134.24501 44.2548466 134.24501 45.1513129 134.26966 45.1513129C134.326004 45.0245399 134.406998 44.8977669 134.512139 44.7709939 134.61728 44.6442209 134.742544 44.5315337 134.888433 44.4314233 135.03382 44.331816 135.199329 44.250319 135.385464 44.1869325 135.571599 44.123546 135.773329 44.0918528 135.992163 44.0918528 136.404176 44.0918528 136.770409 44.1869325 137.089857 44.377092 137.408801 44.5672515 137.649771 44.8660736 137.811255 45.2735583 138.021538 44.8484663 138.276593 44.5446135 138.575918 44.3635092 138.87474 44.1824049 139.242985 44.0918528 139.679648 44.0918528 140.075562 44.0918528 140.409096 44.1663067 140.680249 44.3157178 140.9509 44.4656319 141.165206 44.6688712 141.323169 44.9274479 141.48063 45.1855215 141.594323 45.4888712 141.66274 45.8374969 141.731157 46.1861227 141.766372 46.5593988 141.766372 46.9578282L141.766372 50.8560982 139.946274 50.8560982 139.946274 47.0121595C139.946274 46.7042822 139.887415 46.4396687 139.770703 46.2173129 139.652985 45.9959632 139.444715 45.8847853 139.145893 45.8847853 138.935611 45.8847853 138.759538 45.9230184 138.618176 46.0004908 138.476311 46.0774601 138.363623 46.1836074 138.278605 46.3194356 138.193587 46.4552638 138.133219 46.6142331 138.096998 46.7948344 138.060274 46.9759387 138.04166 47.1660982 138.04166 47.3653129L138.04166 50.8560982 136.222568 50.8560982 136.222568 47.3653129C136.222568 47.2475951 136.218041 47.1027117 136.210495 46.9306626 136.202446 46.7591166 136.173771 46.5956196 136.125476 46.441681 136.077182 46.2877423 135.9982 46.1564417 135.889035 46.0482822 135.779869 45.9391166 135.619893 45.8847853 135.410114 45.8847853 135.175182 45.8847853 134.985022 45.9325767 134.839636 46.0271534 134.694249 46.1227362 134.582568 46.2495092 134.506102 46.4074724 134.429133 46.5664417 134.378826 46.7450307 134.354176 46.9442454 134.330028 47.1434601 134.317955 47.3517301 134.317955 47.5690552L134.317955 50.8560982 132.498863 50.8560982 132.498863 44.2548466M148.850065 45.8847853L147.64874 45.8847853 147.64874 44.2548466 148.850065 44.2548466 148.850065 43.0867239C148.850065 42.7245153 148.877734 42.3824294 148.934581 42.0614724 148.990924 41.7400123 149.100593 41.4572883 149.262077 41.2122945 149.423562 40.9678037 149.656482 40.7756319 149.959832 40.6352761 150.262679 40.4944172 150.661108 40.4244908 151.154617 40.4244908 151.340249 40.4244908 151.52236 40.433546 151.700446 40.4516564 151.878028 40.4702699 152.05209 40.5014601 152.222127 40.5467362L152.137108 42.2717546C152.031967 42.2264785 151.934372 42.1922699 151.845832 42.170135 151.756789 42.1474969 151.655673 42.1359264 151.542482 42.1359264 151.251206 42.1359264 151.032875 42.2063558 150.887488 42.3467117 150.741599 42.4870675 150.669157 42.774319 150.669157 43.2089693L150.669157 44.2548466 152.015869 44.2548466 152.015869 45.8847853 150.669157 45.8847853 150.669157 50.8560982 148.850065 50.8560982 148.850065 45.8847853M157.462581 43.2768834C157.316691 43.2768834 157.183378 43.2451902 157.062139 43.1818037 156.9409 43.1184172 156.835758 43.0323926 156.746715 42.9237301 156.657169 42.8150675 156.58674 42.6908098 156.534421 42.5499509 156.481599 42.4100982 156.455439 42.2626994 156.455439 42.1087607 156.455439 41.9638773 156.481599 41.8235215 156.534421 41.6881963 156.58674 41.551865 156.657169 41.4346503 156.746715 41.3345399 156.835758 41.2349325 156.938887 41.1534356 157.055599 41.0900491 157.173317 41.0266626 157.30009 40.9949693 157.43793 40.9949693 157.720654 40.9949693 157.96766 41.0996074 158.177942 41.3073742 158.388225 41.5161472 158.493366 41.782773 158.493366 42.1087607 158.493366 42.4347485 158.396274 42.7114356 158.20209 42.9373129 158.008409 43.1636933 157.7609 43.2768834 157.462581 43.2768834zM154.939194 43.2768834C154.793304 43.2768834 154.659992 43.2451902 154.538752 43.1818037 154.417513 43.1184172 154.312372 43.0323926 154.223329 42.9237301 154.134286 42.8150675 154.063857 42.6908098 154.011035 42.5499509 153.958715 42.4100982 153.932053 42.2626994 153.932053 42.1087607 153.932053 41.9638773 153.958715 41.8235215 154.011035 41.6881963 154.063857 41.551865 154.134286 41.4346503 154.223329 41.3345399 154.312372 41.2349325 154.415501 41.1534356 154.532715 41.0900491 154.64993 41.0266626 154.777206 40.9949693 154.914544 40.9949693 155.197771 40.9949693 155.444274 41.0996074 155.655059 41.3073742 155.864838 41.5161472 155.970482 41.782773 155.970482 42.1087607 155.970482 42.4347485 155.87339 42.7114356 155.679206 42.9373129 155.485022 43.1636933 155.238519 43.2768834 154.939194 43.2768834zM159.051268 50.8560982L157.304617 50.8560982 157.304617 49.9596319 157.279967 49.9596319C157.215071 50.086908 157.132568 50.2131779 157.031452 50.3399509 156.930335 50.467227 156.807084 50.5799141 156.661697 50.6800245 156.516311 50.7796319 156.350298 50.8606258 156.164666 50.9240123 155.978531 50.9873988 155.775795 51.019092 155.557967 51.019092 155.097157 51.019092 154.722372 50.9396074 154.435623 50.7816442 154.148875 50.6231779 153.926016 50.4038405 153.768556 50.1226258 153.610593 49.8419141 153.505452 49.5113988 153.453133 49.1310798 153.400311 48.7512638 153.374654 48.3387485 153.374654 47.8950429L153.374654 44.2548466 155.193746 44.2548466 155.193746 47.4875583C155.193746 47.6777178 155.200286 47.8744172 155.211857 48.0786626 155.22393 48.2824049 155.260654 48.4700491 155.321525 48.6420982 155.381893 48.8146503 155.474961 48.9545031 155.600225 49.0631656 155.725488 49.1718282 155.905587 49.2261595 156.140016 49.2261595 156.374446 49.2261595 156.564605 49.1783681 156.710495 49.0837914 156.855881 48.9882086 156.966556 48.8614356 157.044028 48.7034724 157.120495 48.5450061 157.171304 48.3659141 157.194949 48.1666994 157.219599 47.9674847 157.231673 47.7592147 157.231673 47.5418896L157.231673 44.2548466 159.051268 44.2548466 159.051268 50.8560982 159.051268 50.8560982zM161.004176 44.2548466L162.823268 44.2548466 162.823268 45.3143067 162.847918 45.3143067C163.042102 44.9068221 163.272507 44.6009571 163.539133 44.3972147 163.805758 44.1939755 164.141304 44.0918528 164.545771 44.0918528 164.650912 44.0918528 164.756053 44.0968834 164.861194 44.1054356 164.966335 44.1149939 165.063427 44.1326012 165.15247 44.1602699L165.15247 46.0206135C165.023182 45.9753374 164.895403 45.9416319 164.770139 45.9189939 164.644875 45.8963558 164.513071 45.8847853 164.376237 45.8847853 164.028114 45.8847853 163.753439 45.9391166 163.551206 46.0482822 163.348973 46.1564417 163.193022 46.3083681 163.08436 46.5030552 162.975194 46.6977423 162.904261 46.9306626 162.872065 47.202319 162.839366 47.4739755 162.823268 47.7727975 162.823268 48.0987853L162.823268 50.8560982 161.004176 50.8560982 161.004176 44.2548466"/>
    <polyline fill="#5E5E5E" points="171.338 41.239 173.909 41.239 177.561 47.922 177.585 47.922 177.585 41.239 179.477 41.239 179.477 50.856 177.003 50.856 173.254 44.01 173.23 44.01 173.23 50.856 171.338 50.856 171.338 41.239"/>
    <path fill="#5E5E5E" d="M184.911452 47.9629571C184.774114 47.9629571 184.602065 47.97 184.395808 47.9830798 184.190053 47.9966626 183.991341 48.0359018 183.801685 48.0987853 183.611525 48.1626748 183.450041 48.2572515 183.316225 48.3840245 183.182912 48.5107975 183.116507 48.6878773 183.116507 48.9137546 183.116507 49.1582454 183.209071 49.3393497 183.395206 49.4570675 183.581341 49.5747853 183.775022 49.6336442 183.977758 49.6336442 184.155341 49.6336442 184.326887 49.6064785 184.4929 49.5521472 184.658409 49.497816 184.806311 49.4213497 184.935599 49.3212393 185.064887 49.2216319 185.168016 49.0948589 185.244985 48.9409202 185.321955 48.7869816 185.360188 48.6058773 185.360188 48.3976074L185.360188 47.9629571 184.911452 47.9629571zM185.360188 50.027546L185.336041 50.027546C185.133808 50.3806994 184.864666 50.6347485 184.52912 50.788184 184.193574 50.9421227 183.839918 51.019092 183.468151 51.019092 183.192973 51.019092 182.92836 50.9758282 182.673304 50.8898037 182.418752 50.8042822 182.194384 50.6754969 182.0002 50.5029448 181.806016 50.3308957 181.652581 50.1180982 181.53939 49.8645521 181.425697 49.6115092 181.369354 49.3172147 181.369354 48.9816687 181.369354 48.6013497 181.431734 48.2798896 181.557501 48.0172883 181.682765 47.7546871 181.852298 47.537362 182.067108 47.3653129 182.281415 47.1937669 182.525906 47.0594479 182.801084 46.9648712 183.075758 46.8692883 183.360495 46.799865 183.655795 46.7540859 183.951096 46.7088098 184.246396 46.6816442 184.541697 46.672589 184.836495 46.6635337 185.10966 46.6590061 185.360188 46.6590061 185.360188 46.2973006 185.244985 46.0090429 185.014581 45.7962454 184.784176 45.5839509 184.51101 45.4773006 184.195587 45.4773006 183.896765 45.4773006 183.623599 45.547227 183.376593 45.6880859 183.13009 45.8284417 182.910249 46.0206135 182.716065 46.2651043L181.745145 45.1513129C182.085219 44.7981595 182.481133 44.533546 182.934396 44.3564663 183.387157 44.1803926 183.856519 44.0918528 184.340973 44.0918528 184.875231 44.0918528 185.313906 44.1663067 185.657501 44.3157178 186.001096 44.4656319 186.276274 44.6849693 186.482028 44.9747362 186.688286 45.2650061 186.832163 45.6201718 186.913157 46.0412393 186.993648 46.4623067 187.034396 46.948773 187.034396 47.5011411L187.034396 50.8560982 185.360188 50.8560982 185.360188 50.027546 185.360188 50.027546zM193.075231 46.3873497C192.986188 46.2424663 192.860924 46.1227362 192.699439 46.0271534 192.536949 45.9325767 192.36339 45.8847853 192.177758 45.8847853 191.716949 45.8847853 191.358765 46.0387239 191.104212 46.3466012 190.849157 46.6544785 190.721881 47.0574356 190.721881 47.5559755 190.721881 48.0535092 190.849157 48.4569693 191.104212 48.7643436 191.358765 49.0722209 191.716949 49.2261595 192.177758 49.2261595 192.379488 49.2261595 192.55355 49.1763558 192.699439 49.0767485 192.844826 48.9776442 192.97009 48.8594233 193.075231 48.7235951L194.27555 50.1362086C193.992826 50.4621963 193.659292 50.691092 193.274949 50.8223926 192.891108 50.9531902 192.524875 51.019092 192.177758 51.019092 191.724495 51.019092 191.297893 50.9375951 190.897955 50.7746012 190.497513 50.6116074 190.14939 50.3786871 189.854593 50.0748344 189.558789 49.7719877 189.326875 49.4072638 189.157341 48.9816687 188.987304 48.5560736 188.902286 48.0806748 188.902286 47.5559755 188.902286 47.030773 188.987304 46.5548712 189.157341 46.1292761 189.326875 45.703681 189.558789 45.3394601 189.854593 45.0361104 190.14939 44.7327607 190.497513 44.4993374 190.897955 44.3363436 191.297893 44.1733497 191.724495 44.0918528 192.177758 44.0918528 192.524875 44.0918528 192.891108 44.1577546 193.274949 44.2885521 193.659292 44.4203558 193.992826 44.6487485 194.27555 44.9747362L193.075231 46.3873497M197.417709 40.5874847L197.417709 45.1513129 197.441857 45.1513129C197.482102 45.0245399 197.551022 44.8977669 197.648114 44.7709939 197.745206 44.6442209 197.861918 44.5315337 197.999758 44.4314233 198.137096 44.331816 198.299084 44.250319 198.485219 44.1869325 198.671354 44.123546 198.873084 44.0918528 199.091918 44.0918528 199.552728 44.0918528 199.924495 44.1713374 200.207219 44.3293006 200.490446 44.4882699 200.710789 44.7076074 200.868752 44.988319 201.026212 45.2695337 201.133366 45.599546 201.190212 45.979865 201.246556 46.3606871 201.275231 46.7721963 201.275231 47.2159018L201.275231 50.8560982 199.455133 50.8560982 199.455133 47.6233865C199.455133 47.433227 199.449599 47.2365276 199.437022 47.0327853 199.425452 46.8285399 199.388728 46.6408957 199.327857 46.4688466 199.267488 46.2973006 199.174421 46.1564417 199.049157 46.0482822 198.923893 45.9391166 198.743795 45.8847853 198.509366 45.8847853 198.274936 45.8847853 198.084777 45.9325767 197.93939 46.0271534 197.794004 46.1227362 197.682323 46.2495092 197.605857 46.4074724 197.528384 46.5664417 197.478581 46.7450307 197.45393 46.9442454 197.429783 47.1434601 197.417709 47.3517301 197.417709 47.5690552L197.417709 50.8560982 195.598114 50.8560982 195.598114 40.5874847 197.417709 40.5874847M205.289709 40.5874847L205.289709 45.1513129 205.31436 45.1513129C205.354605 45.0245399 205.423525 44.8977669 205.520114 44.7709939 205.617206 44.6442209 205.734421 44.5315337 205.871758 44.4314233 206.009599 44.331816 206.171084 44.250319 206.357219 44.1869325 206.543354 44.123546 206.745587 44.0918528 206.963918 44.0918528 207.424728 44.0918528 207.796495 44.1713374 208.079722 44.3293006 208.362446 44.4882699 208.583292 44.7076074 208.740752 44.988319 208.898715 45.2695337 209.005869 45.599546 209.062212 45.979865 209.118556 46.3606871 209.147231 46.7721963 209.147231 47.2159018L209.147231 50.8560982 207.327636 50.8560982 207.327636 47.6233865C207.327636 47.433227 207.321599 47.2365276 207.309525 47.0327853 207.297452 46.8285399 207.261231 46.6408957 207.20036 46.4688466 207.139992 46.2973006 207.046421 46.1564417 206.921157 46.0482822 206.795893 45.9391166 206.616298 45.8847853 206.381869 45.8847853 206.146936 45.8847853 205.956777 45.9325767 205.81139 46.0271534 205.666004 46.1227362 205.554323 46.2495092 205.477857 46.4074724 205.400887 46.5664417 205.350581 46.7450307 205.32593 46.9442454 205.301783 47.1434601 205.289709 47.3517301 205.289709 47.5690552L205.289709 50.8560982 203.470617 50.8560982 203.470617 40.5874847 205.289709 40.5874847M214.350961 47.9629571C214.21312 47.9629571 214.041071 47.97 213.834814 47.9830798 213.629059 47.9966626 213.43085 48.0359018 213.241194 48.0987853 213.051035 48.1626748 212.889047 48.2572515 212.755734 48.3840245 212.621918 48.5107975 212.555513 48.6878773 212.555513 48.9137546 212.555513 49.1582454 212.648581 49.3393497 212.834212 49.4570675 213.020347 49.5747853 213.214531 49.6336442 213.416765 49.6336442 213.59485 49.6336442 213.766396 49.6064785 213.932409 49.5521472 214.097918 49.497816 214.24582 49.4213497 214.375108 49.3212393 214.503893 49.2216319 214.607022 49.0948589 214.684495 48.9409202 214.760961 48.7869816 214.799194 48.6058773 214.799194 48.3976074L214.799194 47.9629571 214.350961 47.9629571zM214.799194 50.027546L214.775047 50.027546C214.572814 50.3806994 214.304176 50.6347485 213.96863 50.788184 213.633084 50.9421227 213.279427 51.019092 212.90766 51.019092 212.632482 51.019092 212.367366 50.9758282 212.112311 50.8898037 211.858261 50.8042822 211.63339 50.6754969 211.439709 50.5029448 211.245525 50.3308957 211.091587 50.1180982 210.9789 49.8645521 210.865206 49.6115092 210.808863 49.3172147 210.808863 48.9816687 210.808863 48.6013497 210.871243 48.2798896 210.99701 48.0172883 211.122274 47.7546871 211.291808 47.537362 211.506114 47.3653129 211.720421 47.1937669 211.965415 47.0594479 212.24009 46.9648712 212.514765 46.8692883 212.800004 46.799865 213.095304 46.7540859 213.390605 46.7088098 213.685403 46.6816442 213.980703 46.672589 214.275501 46.6635337 214.548666 46.6590061 214.799194 46.6590061 214.799194 46.2973006 214.684495 46.0090429 214.45409 45.7962454 214.223685 45.5839509 213.950519 45.4773006 213.635096 45.4773006 213.335771 45.4773006 213.062605 45.547227 212.816102 45.6880859 212.569599 45.8284417 212.349255 46.0206135 212.155071 46.2651043L211.184654 45.1513129C211.524728 44.7981595 211.920642 44.533546 212.373403 44.3564663 212.826163 44.1803926 213.295525 44.0918528 213.780482 44.0918528 214.314237 44.0918528 214.753415 44.1663067 215.096507 44.3157178 215.440605 44.4656319 215.715783 44.6849693 215.921538 44.9747362 216.127795 45.2650061 216.271169 45.6201718 216.352163 46.0412393 216.432654 46.4623067 216.473403 46.948773 216.473403 47.5011411L216.473403 50.8560982 214.799194 50.8560982 214.799194 50.027546 214.799194 50.027546z"/>
    <polygon fill="#5E5E5E" points="218.548 50.856 220.368 50.856 220.368 40.587 218.548 40.587"/>
    <path fill="#5E5E5E" d="M226.116703 45.8847853L224.515942 45.8847853 224.515942 48.0852025C224.515942 48.2668098 224.523488 48.431816 224.540593 48.581227 224.556188 48.730638 224.592409 48.8594233 224.649255 48.9680859 224.706102 49.0767485 224.793133 49.1607607 224.910347 49.2191166 225.027059 49.2784785 225.18301 49.3076564 225.377194 49.3076564 225.474286 49.3076564 225.601562 49.296589 225.759022 49.2739509 225.916985 49.2513129 226.036212 49.1989939 226.116703 49.1174969L226.116703 50.8153497C225.914973 50.8968466 225.704691 50.951681 225.485857 50.9783436 225.268028 51.0055092 225.053722 51.019092 224.843439 51.019092 224.536065 51.019092 224.252838 50.9828712 223.994261 50.9109325 223.735182 50.8379877 223.509304 50.7222822 223.31512 50.564319 223.120936 50.4058528 222.969513 50.1995951 222.860347 49.9465521 222.751182 49.6930061 222.696347 49.3846258 222.696347 49.0229202L222.696347 45.8847853 221.531746 45.8847853 221.531746 44.2548466 222.696347 44.2548466 222.696347 42.2989202 224.515942 42.2989202 224.515942 44.2548466 226.116703 44.2548466 226.116703 45.8847853M227.730041 50.8560982L229.550139 50.8560982 229.550139 44.2548466 227.730041 44.2548466 227.730041 50.8560982zM227.584654 42.1766748C227.584654 41.8506871 227.687783 41.5724908 227.894041 41.3415828 228.100298 41.1106748 228.348814 40.9949693 228.64009 40.9949693 228.930863 40.9949693 229.179881 41.1106748 229.385636 41.3415828 229.592396 41.5724908 229.695525 41.8506871 229.695525 42.1766748 229.695525 42.5026626 229.592396 42.7808589 229.385636 43.0117669 229.179881 43.2426748 228.930863 43.3583804 228.64009 43.3583804 228.348814 43.3583804 228.100298 43.2426748 227.894041 43.0117669 227.687783 42.7808589 227.584654 42.5026626 227.584654 42.1766748L227.584654 42.1766748zM233.128458 47.5147239C233.128458 47.7320491 233.164679 47.9378037 233.237623 48.1329939 233.310065 48.327681 233.413194 48.4997301 233.54701 48.648638 233.680323 48.7980491 233.833758 48.9182822 234.00782 49.0088344 234.181881 49.0993865 234.37355 49.1446626 234.583832 49.1446626 234.786065 49.1446626 234.976225 49.0993865 235.153808 49.0088344 235.331893 48.9182822 235.487341 48.7980491 235.621157 48.648638 235.754973 48.4997301 235.857599 48.327681 235.930544 48.1329939 236.003488 47.9378037 236.039709 47.7320491 236.039709 47.5147239 236.039709 47.2973988 236.003488 47.0916442 235.930544 46.8969571 235.857599 46.7017669 235.754973 46.5302209 235.621157 46.3808098 235.487341 46.2313988 235.331893 46.1111656 235.153808 46.0206135 234.976225 45.9300613 234.786065 45.8847853 234.583832 45.8847853 234.37355 45.8847853 234.181881 45.9300613 234.00782 46.0206135 233.833758 46.1111656 233.680323 46.2313988 233.54701 46.3808098 233.413194 46.5302209 233.310065 46.7017669 233.237623 46.8969571 233.164679 47.0916442 233.128458 47.2973988 233.128458 47.5147239zM237.713415 50.2992025C237.713415 51.5488221 237.432703 52.4976074 236.870274 53.1450552 236.308347 53.792 235.453133 54.1164785 234.305133 54.1164785 233.779427 54.1164785 233.261771 54.0505767 232.752163 53.9192761 232.242556 53.7874724 231.773697 53.5319141 231.345084 53.1520982L232.352225 51.4673252C232.634949 51.7299264 232.932261 51.9376933 233.243157 52.092135 233.555059 52.2460736 233.896642 52.3230429 234.268409 52.3230429 234.826814 52.3230429 235.236814 52.1711166 235.499918 51.8682699 235.762519 51.5644172 235.89382 51.1775583 235.89382 50.7066871L235.89382 50.0682945 235.869673 50.0682945C235.65939 50.3857301 235.398801 50.6095951 235.0869 50.7408957 234.776004 50.8716933 234.482715 50.9375951 234.207538 50.9375951 233.770875 50.9375951 233.374961 50.8540859 233.019292 50.6860613 232.66312 50.5190429 232.358261 50.2831043 232.103206 49.9802577 231.848654 49.6764049 231.652458 49.3172147 231.51512 48.9001718 231.37728 48.4836319 231.308863 48.0263436 231.308863 47.5283067 231.308863 47.0941595 231.371746 46.6680613 231.49701 46.2515215 231.622274 45.8354847 231.799857 45.4682454 232.030261 45.1513129 232.260666 44.8343804 232.541881 44.5788221 232.873403 44.384135 233.204924 44.1894479 233.581219 44.0918528 234.001783 44.0918528 234.26036 44.0918528 234.497304 44.123546 234.711108 44.1869325 234.925415 44.250319 235.117587 44.331816 235.287623 44.4314233 235.45766 44.5315337 235.603047 44.6422086 235.724286 44.764454 235.845525 44.8866994 235.942617 45.0064294 236.015059 45.1246503L236.039709 45.1246503 236.039709 44.2548466 237.713415 44.2548466 237.713415 50.2992025 237.713415 50.2992025zM244.11847 46.8084172C244.126016 46.4648221 244.0249 46.1700245 243.81512 45.9255337 243.604335 45.6810429 243.333685 45.5587975 243.002163 45.5587975 242.79993 45.5587975 242.621844 45.5950184 242.468409 45.6674601 242.314973 45.7399018 242.183673 45.8329693 242.074004 45.9456564 241.964838 46.0593497 241.87982 46.1906503 241.819452 46.3400613 241.758581 46.4889693 241.724372 46.6454233 241.716323 46.8084172L244.11847 46.8084172zM245.658863 49.7151411C245.367587 50.132184 244.999844 50.4531411 244.555133 50.6800245 244.109918 50.9059018 243.649108 51.019092 243.1722 51.019092 242.718936 51.019092 242.292838 50.9375951 241.892396 50.7746012 241.491955 50.6116074 241.143832 50.3786871 240.849538 50.0748344 240.553734 49.7719877 240.321317 49.4072638 240.151783 48.9816687 239.981746 48.5560736 239.896728 48.0806748 239.896728 47.5559755 239.896728 47.030773 239.981746 46.5548712 240.151783 46.1292761 240.321317 45.703681 240.553734 45.3394601 240.849538 45.0361104 241.143832 44.7327607 241.491955 44.4993374 241.892396 44.3363436 242.292838 44.1733497 242.718936 44.0918528 243.1722 44.0918528 243.592765 44.0918528 243.97409 44.1733497 244.318188 44.3363436 244.662286 44.4993374 244.953059 44.7327607 245.191513 45.0361104 245.429967 45.3394601 245.61409 45.703681 245.743378 46.1292761 245.873169 46.5548712 245.937562 47.030773 245.937562 47.5559755L245.937562 48.193865 241.716323 48.193865C241.789268 48.5832393 241.946728 48.8936319 242.189709 49.1245399 242.432188 49.3554479 242.731513 49.4706503 243.087182 49.4706503 243.386507 49.4706503 243.638544 49.3961963 243.845304 49.2467853 244.051562 49.0973742 244.231157 48.9046994 244.385096 48.6692638L245.658863 49.7151411 245.658863 49.7151411z"/>
    <polyline fill="#5E5E5E" points="16.941 47.345 24.718 37.011 17.222 37.011 17.222 33.663 28.812 33.663 28.812 37.011 21.187 47.345 29.072 47.345 29.072 50.837 16.941 50.837 16.941 47.345"/>
    <polyline fill="#5E5E5E" points="33.014 33.663 37.607 33.663 44.128 45.598 44.171 45.598 44.171 33.663 47.55 33.663 47.55 50.837 43.131 50.837 36.437 38.611 36.394 38.611 36.394 50.837 33.014 50.837 33.014 33.663"/>
    <path fill="#5E5E5E" d="M65.2271695 44.2151043C65.2271695 45.233816 65.089832 46.1725399 64.8156603 47.0292638 64.5414885 47.8864908 64.1335008 48.6300245 63.5916971 49.2608712 63.0503965 49.8912147 62.3752799 50.385227 61.5663474 50.7403926 60.7574149 51.0960613 59.8257339 51.2741472 58.7718075 51.2741472 57.7027891 51.2741472 56.7640652 51.0960613 55.9556357 50.7403926 55.1467032 50.385227 54.4715866 49.8912147 53.929783 49.2608712 53.3884824 48.6300245 52.9804946 47.8864908 52.7058198 47.0292638 52.431648 46.1725399 52.2943106 45.233816 52.2943106 44.2151043L52.2943106 33.6632638 55.6739179 33.6632638 55.6739179 44.0697178C55.6739179 44.6029693 55.7498811 45.0969816 55.9013044 45.5492393 56.0532308 46.0025031 56.2660284 46.3943926 56.5402001 46.7259141 56.8143719 47.0574356 57.1433781 47.3165153 57.5262124 47.5021472 57.9085437 47.6882822 58.3240774 47.7813497 58.7718075 47.7813497 59.2195376 47.7813497 59.6305437 47.6882822 60.0068382 47.5021472 60.3821265 47.3165153 60.7071081 47.0574356 60.9812799 46.7259141 61.2554517 46.3943926 61.4687523 46.0025031 61.6206787 45.5492393 61.772102 45.0969816 61.8480652 44.6029693 61.8480652 44.0697178L61.8480652 33.6632638 65.2271695 33.6632638 65.2271695 44.2151043M97.0793903 61.1503681C97.0793903 61.7208466 97.002421 62.2465521 96.8489854 62.7259755 96.6950468 63.2059018 96.4666541 63.6224417 96.1633044 63.9755951 95.8604578 64.3287485 95.4821511 64.6049325 95.0293903 64.8041472 94.5761265 65.003362 94.0549486 65.1029693 93.4643474 65.1029693 92.8656971 65.1029693 92.3404946 65.003362 91.8877339 64.8041472 91.4344701 64.6049325 91.0566664 64.3287485 90.7533167 63.9755951 90.449967 63.6224417 90.2215744 63.2059018 90.0681388 62.7259755 89.9142001 62.2465521 89.8377339 61.7208466 89.8377339 61.1503681L89.8377339 55.2418405 91.7297707 55.2418405 91.7297707 61.0688712C91.7297707 61.3676933 91.7725314 61.6438773 91.8575498 61.8974233 91.9420652 62.1509693 92.0612922 62.3708098 92.2147278 62.5564417 92.3686664 62.7420736 92.5527891 62.8869571 92.7670959 62.990589 92.9808995 63.095227 93.2138198 63.1470429 93.4643474 63.1470429 93.714875 63.1470429 93.9452799 63.095227 94.1560652 62.990589 94.3658443 62.8869571 94.5479547 62.7420736 94.7018934 62.5564417 94.855329 62.3708098 94.974556 62.1509693 95.0595744 61.8974233 95.1445928 61.6438773 95.1868505 61.3676933 95.1868505 61.0688712L95.1868505 55.2418405 97.0793903 55.2418405 97.0793903 61.1503681M99.5051817 58.257227L101.251832 58.257227 101.251832 59.1536933 101.276482 59.1536933C101.332826 59.0269202 101.41382 58.9001472 101.518961 58.7733742 101.624102 58.6466012 101.749366 58.5339141 101.895255 58.4338037 102.040642 58.3341963 102.206151 58.2526994 102.392286 58.1893129 102.578421 58.1259264 102.780151 58.0942331 102.998985 58.0942331 103.459795 58.0942331 103.831562 58.1737178 104.114789 58.331681 104.398016 58.4906503 104.61836 58.7099877 104.77582 58.9906994 104.933783 59.2719141 105.040936 59.6019264 105.09728 59.9822454 105.153623 60.3630675 105.182298 60.7745767 105.182298 61.2182822L105.182298 64.8584785 103.362703 64.8584785 103.362703 61.6257669C103.362703 61.4356074 103.356666 61.238908 103.344593 61.0351656 103.332519 60.8309202 103.295795 60.6432761 103.235427 60.471227 103.174556 60.299681 103.081992 60.1588221 102.956728 60.0501595 102.830961 59.9414969 102.650863 59.8871656 102.416433 59.8871656 102.182004 59.8871656 101.992347 59.9349571 101.846458 60.0295337 101.700568 60.1251166 101.589893 60.2518896 101.512924 60.4098528 101.435955 60.5688221 101.385648 60.747411 101.361501 60.9466258 101.33685 61.1458405 101.324777 61.3541104 101.324777 61.5714356L101.324777 64.8584785 99.5051817 64.8584785 99.5051817 58.257227M111.150188 59.8871656L109.548924 59.8871656 109.548924 62.0875828C109.548924 62.2691902 109.556973 62.4341963 109.573071 62.5836074 109.589673 62.7330184 109.625893 62.8618037 109.68274 62.9704663 109.738581 63.0791288 109.826114 63.1631411 109.943329 63.2214969 110.060544 63.2808589 110.215992 63.3100368 110.410176 63.3100368 110.507268 63.3100368 110.634544 63.2989693 110.792507 63.2763313 110.949967 63.2536933 111.069194 63.2013742 111.150188 63.1198773L111.150188 64.8177301C110.947955 64.899227 110.737673 64.9540613 110.519341 64.9807239 110.30101 65.0078896 110.086703 65.0214724 109.876421 65.0214724 109.569047 65.0214724 109.286323 64.9852515 109.027243 64.9128098 108.768666 64.8403681 108.542286 64.7246626 108.348102 64.5666994 108.153918 64.4082331 108.002495 64.2019755 107.893329 63.9484294 107.784163 63.6953865 107.729329 63.3870061 107.729329 63.0253006L107.729329 59.8871656 106.564728 59.8871656 106.564728 58.257227 107.729329 58.257227 107.729329 56.3013006 109.548924 56.3013006 109.548924 58.257227 111.150188 58.257227 111.150188 59.8871656M116.778507 60.8107975C116.786556 60.4672025 116.685439 60.1724049 116.475157 59.9279141 116.264875 59.6834233 115.994225 59.5611779 115.6622 59.5611779 115.46047 59.5611779 115.282384 59.5973988 115.128949 59.6698405 114.97501 59.7422822 114.843709 59.8353497 114.734544 59.9480368 114.625378 60.0617301 114.54036 60.1930307 114.479992 60.3424417 114.41912 60.4913497 114.384409 60.6478037 114.376863 60.8107975L116.778507 60.8107975zM118.3189 63.7180245C118.028127 64.1345644 117.659881 64.4555215 117.215169 64.6824049 116.770458 64.9082822 116.309648 65.0214724 115.832237 65.0214724 115.379476 65.0214724 114.952875 64.9399755 114.552433 64.7769816 114.151992 64.6139877 113.804372 64.3810675 113.509574 64.0772147 113.214274 63.7743681 112.981857 63.4096442 112.81182 62.9845521 112.641783 62.558454 112.557268 62.0830552 112.557268 61.5583558 112.557268 61.0331534 112.641783 60.5572515 112.81182 60.1316564 112.981857 59.7060613 113.214274 59.3418405 113.509574 59.0384908 113.804372 58.7351411 114.151992 58.5017178 114.552433 58.3387239 114.952875 58.1757301 115.379476 58.0942331 115.832237 58.0942331 116.252801 58.0942331 116.63463 58.1757301 116.978728 58.3387239 117.322323 58.5017178 117.613096 58.7351411 117.852053 59.0384908 118.090507 59.3418405 118.27463 59.7060613 118.403918 60.1316564 118.533206 60.5572515 118.598102 61.0331534 118.598102 61.5583558L118.598102 62.1962454 114.376863 62.1962454C114.449304 62.5861227 114.607268 62.8960123 114.849746 63.1269202 115.092225 63.3578282 115.39155 63.4730307 115.747219 63.4730307 116.046544 63.4730307 116.299084 63.3985767 116.505341 63.2491656 116.711599 63.0997546 116.891697 62.9070798 117.045133 62.6716442L118.3189 63.7180245 118.3189 63.7180245zM120.3689 58.257227L122.187992 58.257227 122.187992 59.3166871 122.212139 59.3166871C122.406826 58.9092025 122.636728 58.6033374 122.903857 58.3995951 123.170482 58.1963558 123.506531 58.0942331 123.909992 58.0942331 124.015133 58.0942331 124.120274 58.0992638 124.225415 58.107816 124.330556 58.1173742 124.428151 58.1349816 124.517194 58.1626503L124.517194 60.0229939C124.387906 59.9777178 124.260127 59.9440123 124.135366 59.9213742 124.009599 59.8987362 123.877795 59.8871656 123.740961 59.8871656 123.393341 59.8871656 123.118163 59.9414969 122.91593 60.0501595 122.713194 60.1588221 122.558249 60.3107485 122.449084 60.5054356 122.339918 60.6996196 122.269488 60.9330429 122.236789 61.2046994 122.204593 61.4763558 122.187992 61.7751779 122.187992 62.1011656L122.187992 64.8584785 120.3689 64.8584785 120.3689 58.257227M126.433881 58.257227L128.180531 58.257227 128.180531 59.1536933 128.204679 59.1536933C128.261525 59.0269202 128.342016 58.9001472 128.447157 58.7733742 128.552298 58.6466012 128.677562 58.5339141 128.823452 58.4338037 128.968838 58.3341963 129.134347 58.2526994 129.320482 58.1893129 129.506617 58.1259264 129.70885 58.0942331 129.927182 58.0942331 130.387992 58.0942331 130.760261 58.1737178 131.042985 58.331681 131.326212 58.4906503 131.546556 58.7099877 131.704519 58.9906994 131.861979 59.2719141 131.969133 59.6019264 132.025476 59.9822454 132.082323 60.3630675 132.110495 60.7745767 132.110495 61.2182822L132.110495 64.8584785 130.2909 64.8584785 130.2909 61.6257669C130.2909 61.4356074 130.284863 61.238908 130.272789 61.0351656 130.260715 60.8309202 130.224495 60.6432761 130.163623 60.471227 130.103255 60.299681 130.009685 60.1588221 129.884421 60.0501595 129.759157 59.9414969 129.579562 59.8871656 129.345133 59.8871656 129.1102 59.8871656 128.920041 59.9349571 128.774654 60.0295337 128.629268 60.1251166 128.51809 60.2518896 128.44112 60.4098528 128.364151 60.5688221 128.313844 60.747411 128.289194 60.9466258 128.26555 61.1458405 128.252973 61.3541104 128.252973 61.5714356L128.252973 64.8584785 126.433881 64.8584785 126.433881 58.257227M138.102531 60.8107975C138.110581 60.4672025 138.009464 60.1724049 137.799685 59.9279141 137.5889 59.6834233 137.318249 59.5611779 136.986728 59.5611779 136.784495 59.5611779 136.606409 59.5973988 136.452973 59.6698405 136.299035 59.7422822 136.168237 59.8353497 136.058568 59.9480368 135.949403 60.0617301 135.864384 60.1930307 135.804016 60.3424417 135.743145 60.4913497 135.708936 60.6478037 135.700887 60.8107975L138.102531 60.8107975zM139.643427 63.7180245C139.352151 64.1345644 138.983906 64.4555215 138.539194 64.6824049 138.094482 64.9082822 137.633673 65.0214724 137.156261 65.0214724 136.703501 65.0214724 136.2769 64.9399755 135.876458 64.7769816 135.476519 64.6139877 135.128396 64.3810675 134.833599 64.0772147 134.537795 63.7743681 134.305378 63.4096442 134.136347 62.9845521 133.966311 62.558454 133.881292 62.0830552 133.881292 61.5583558 133.881292 61.0331534 133.966311 60.5572515 134.136347 60.1316564 134.305378 59.7060613 134.537795 59.3418405 134.833599 59.0384908 135.128396 58.7351411 135.476519 58.5017178 135.876458 58.3387239 136.2769 58.1757301 136.703501 58.0942331 137.156261 58.0942331 137.576826 58.0942331 137.958654 58.1757301 138.302752 58.3387239 138.646347 58.5017178 138.93712 58.7351411 139.176077 59.0384908 139.414531 59.3418405 139.598654 59.7060613 139.727942 60.1316564 139.857734 60.5572515 139.922127 61.0331534 139.922127 61.5583558L139.922127 62.1962454 135.700887 62.1962454C135.773329 62.5861227 135.931292 62.8960123 136.173771 63.1269202 136.416752 63.3578282 136.715574 63.4730307 137.071243 63.4730307 137.370568 63.4730307 137.623108 63.3985767 137.829366 63.2491656 138.035623 63.0997546 138.215722 62.9070798 138.36966 62.6716442L139.643427 63.7180245 139.643427 63.7180245zM143.754998 54.589865L143.754998 59.1536933 143.779145 59.1536933C143.819893 59.0269202 143.888311 58.9001472 143.985403 58.7733742 144.082495 58.6466012 144.199206 58.5339141 144.337047 58.4338037 144.474384 58.3341963 144.636372 58.2526994 144.822507 58.1893129 145.008642 58.1259264 145.210372 58.0942331 145.429206 58.0942331 145.890016 58.0942331 146.261783 58.1737178 146.54501 58.331681 146.827734 58.4906503 147.048581 58.7099877 147.206041 58.9906994 147.363501 59.2719141 147.470654 59.6019264 147.527501 59.9822454 147.583844 60.3630675 147.612519 60.7745767 147.612519 61.2182822L147.612519 64.8584785 145.792421 64.8584785 145.792421 61.6257669C145.792421 61.4356074 145.786887 61.238908 145.774311 61.0351656 145.76274 60.8309202 145.726519 60.6432761 145.665648 60.471227 145.604777 60.299681 145.511709 60.1588221 145.386446 60.0501595 145.261182 59.9414969 145.081084 59.8871656 144.847157 59.8871656 144.612225 59.8871656 144.422065 59.9349571 144.276679 60.0295337 144.131292 60.1251166 144.019611 60.2518896 143.943145 60.4098528 143.865673 60.5688221 143.815869 60.747411 143.791219 60.9466258 143.767071 61.1458405 143.754998 61.3541104 143.754998 61.5714356L143.754998 64.8584785 141.935403 64.8584785 141.935403 54.589865 143.754998 54.589865M149.807403 58.257227L151.554053 58.257227 151.554053 59.1536933 151.5782 59.1536933C151.635047 59.0269202 151.715538 58.9001472 151.820679 58.7733742 151.92582 58.6466012 152.051084 58.5339141 152.196973 58.4338037 152.34236 58.3341963 152.507869 58.2526994 152.694004 58.1893129 152.880139 58.1259264 153.082372 58.0942331 153.300703 58.0942331 153.713219 58.0942331 154.078949 58.1893129 154.398396 58.3794724 154.717844 58.5696319 154.958311 58.868454 155.119795 59.2759387 155.330077 58.8508466 155.585133 58.5469939 155.884458 58.3658896 156.183783 58.1847853 156.551525 58.0942331 156.988188 58.0942331 157.384102 58.0942331 157.718139 58.1686871 157.989292 58.3180982 158.259942 58.4680123 158.473746 58.6712515 158.631709 58.9298282 158.789169 59.1879018 158.902863 59.4912515 158.971783 59.8398773 159.039697 60.1885031 159.074912 60.5617791 159.074912 60.9602086L159.074912 64.8584785 157.255317 64.8584785 157.255317 61.0145399C157.255317 60.7066626 157.195955 60.4420491 157.079243 60.2196933 156.962028 59.9983436 156.753758 59.8871656 156.454433 59.8871656 156.244151 59.8871656 156.068077 59.9253988 155.926715 60.0028712 155.785354 60.0798405 155.672163 60.1859877 155.587145 60.322319 155.502127 60.4576442 155.441758 60.6161104 155.405538 60.7972147 155.369317 60.978319 155.3502 61.1684785 155.3502 61.3676933L155.3502 64.8584785 153.531108 64.8584785 153.531108 61.3676933C153.531108 61.2499755 153.526581 61.105092 153.519035 60.9330429 153.510985 60.7614969 153.482814 60.598 153.434016 60.4440613 153.385722 60.2901227 153.30674 60.1588221 153.197574 60.0501595 153.088409 59.9414969 152.928433 59.8871656 152.718654 59.8871656 152.483722 59.8871656 152.293562 59.9349571 152.148176 60.0295337 152.002789 60.1251166 151.891108 60.2518896 151.814642 60.4098528 151.737673 60.5688221 151.687366 60.747411 151.662715 60.9466258 151.639071 61.1458405 151.626495 61.3541104 151.626495 61.5714356L151.626495 64.8584785 149.807403 64.8584785 149.807403 58.257227M165.309427 60.8107975C165.317476 60.4672025 165.21636 60.1724049 165.006581 59.9279141 164.795795 59.6834233 164.525145 59.5611779 164.193623 59.5611779 163.99139 59.5611779 163.813304 59.5973988 163.659869 59.6698405 163.50593 59.7422822 163.375133 59.8353497 163.265464 59.9480368 163.156298 60.0617301 163.07128 60.1930307 163.010912 60.3424417 162.950041 60.4913497 162.915832 60.6478037 162.907783 60.8107975L165.309427 60.8107975zM166.850323 63.7180245C166.559047 64.1345644 166.190801 64.4555215 165.74609 64.6824049 165.301378 64.9082822 164.840568 65.0214724 164.363157 65.0214724 163.910396 65.0214724 163.483795 64.9399755 163.083857 64.7769816 162.683415 64.6139877 162.335292 64.3810675 162.040495 64.0772147 161.744691 63.7743681 161.512274 63.4096442 161.343243 62.9845521 161.173206 62.558454 161.088188 62.0830552 161.088188 61.5583558 161.088188 61.0331534 161.173206 60.5572515 161.343243 60.1316564 161.512274 59.7060613 161.744691 59.3418405 162.040495 59.0384908 162.335292 58.7351411 162.683415 58.5017178 163.083857 58.3387239 163.483795 58.1757301 163.910396 58.0942331 164.363157 58.0942331 164.783722 58.0942331 165.16555 58.1757301 165.509648 58.3387239 165.853243 58.5017178 166.144519 58.7351411 166.382973 59.0384908 166.621427 59.3418405 166.80555 59.7060613 166.934838 60.1316564 167.06463 60.5572515 167.129022 61.0331534 167.129022 61.5583558L167.129022 62.1962454 162.907783 62.1962454C162.980225 62.5861227 163.138188 62.8960123 163.380666 63.1269202 163.623648 63.3578282 163.92247 63.4730307 164.278642 63.4730307 164.577464 63.4730307 164.830004 63.3985767 165.036261 63.2491656 165.243022 63.0997546 165.422617 62.9070798 165.576556 62.6716442L166.850323 63.7180245 166.850323 63.7180245zM168.89982 58.257227L170.64647 58.257227 170.64647 59.1536933 170.67112 59.1536933C170.727464 59.0269202 170.807955 58.9001472 170.913096 58.7733742 171.018237 58.6466012 171.143501 58.5339141 171.28939 58.4338037 171.434777 58.3341963 171.600286 58.2526994 171.786421 58.1893129 171.972556 58.1259264 172.174789 58.0942331 172.39312 58.0942331 172.85393 58.0942331 173.2262 58.1737178 173.508924 58.331681 173.792151 58.4906503 174.012495 58.7099877 174.170458 58.9906994 174.327918 59.2719141 174.435071 59.6019264 174.491415 59.9822454 174.548261 60.3630675 174.576433 60.7745767 174.576433 61.2182822L174.576433 64.8584785 172.756838 64.8584785 172.756838 61.6257669C172.756838 61.4356074 172.750801 61.238908 172.738728 61.0351656 172.726654 60.8309202 172.690433 60.6432761 172.629562 60.471227 172.569194 60.299681 172.475623 60.1588221 172.35036 60.0501595 172.225096 59.9414969 172.045501 59.8871656 171.811071 59.8871656 171.576139 59.8871656 171.385979 59.9349571 171.240593 60.0295337 171.095206 60.1251166 170.984028 60.2518896 170.907059 60.4098528 170.83009 60.5688221 170.779783 60.747411 170.755636 60.9466258 170.731488 61.1458405 170.718912 61.3541104 170.718912 61.5714356L170.718912 64.8584785 168.89982 64.8584785 168.89982 58.257227M180.10766 60.1995706C179.840531 59.8283067 179.488887 59.6426748 179.052728 59.6426748 178.898789 59.6426748 178.748875 59.6834233 178.603488 59.7649202 178.458102 59.8464172 178.38566 59.986773 178.38566 60.1859877 178.38566 60.3489816 178.460114 60.4692147 178.609525 60.546184 178.759439 60.6231534 178.949599 60.6910675 179.180004 60.7494233 179.410409 60.8087853 179.656912 60.8716687 179.919513 60.9400859 180.182617 61.008 180.42912 61.1146503 180.659525 61.2590307 180.88993 61.4039141 181.08009 61.6011166 181.230004 61.850135 181.379415 62.0991534 181.453869 62.432184 181.453869 62.8482209 181.453869 63.274319 181.370863 63.6249571 181.205354 63.9011411 181.039844 64.1773252 180.82755 64.3991779 180.56847 64.5666994 180.309893 64.7342209 180.018617 64.8514356 179.695145 64.9193497 179.371673 64.9877669 179.052728 65.0214724 178.737304 65.0214724 178.324286 65.0214724 177.907746 64.9555706 177.487182 64.824773 177.066617 64.6934724 176.710949 64.4600491 176.420176 64.1250061L177.523906 62.7536442C177.693942 62.9885767 177.88209 63.1676687 178.088347 63.2899141 178.294102 63.4116564 178.534568 63.4730307 178.809746 63.4730307 179.020028 63.4730307 179.210188 63.4393252 179.379722 63.371411 179.549758 63.3029939 179.634777 63.1787362 179.634777 62.9976319 179.634777 62.8255828 179.55982 62.6967975 179.410409 62.6102699 179.260495 62.5242454 179.070838 62.4523067 178.83993 62.3934479 178.609525 62.334589 178.363022 62.2712025 178.099918 62.2032883 177.837317 62.1353742 177.590311 62.0332515 177.359906 61.8974233 177.129501 61.7615951 176.939341 61.5694233 176.790433 61.3204049 176.640519 61.0713865 176.565562 60.7388589 176.565562 60.322319 176.565562 59.9324417 176.636495 59.5973988 176.777857 59.3166871 176.919219 59.0364785 177.105857 58.8050675 177.336261 58.6244663 177.566666 58.4428589 177.83128 58.309546 178.130605 58.2235215 178.429427 58.1374969 178.732777 58.0942331 179.040151 58.0942331 179.428519 58.0942331 179.820409 58.1576196 180.216826 58.2843926 180.61274 58.4116687 180.948286 58.637546 181.223464 58.9635337L180.10766 60.1995706M183.686482 59.8871656L182.485157 59.8871656 182.485157 58.257227 183.686482 58.257227 183.686482 57.0891043C183.686482 56.7268957 183.714151 56.3848098 183.770998 56.0638528 183.827341 55.7423926 183.93701 55.4591656 184.098495 55.2146748 184.259979 54.970184 184.4929 54.7780123 184.796249 54.6376564 185.099096 54.4967975 185.497525 54.4268712 185.991035 54.4268712 186.176666 54.4268712 186.358777 54.4359264 186.536863 54.4540368 186.714446 54.4726503 186.888507 54.5038405 187.058544 54.5491166L186.973525 56.274135C186.868384 56.2288589 186.770789 56.1946503 186.682249 56.1720123 186.593206 56.1498773 186.49209 56.1383067 186.3789 56.1383067 186.087623 56.1383067 185.869292 56.2087362 185.723906 56.349092 185.578016 56.4894479 185.505574 56.7766994 185.505574 57.2113497L185.505574 58.257227 186.852286 58.257227 186.852286 59.8871656 185.505574 59.8871656 185.505574 64.8584785 183.686482 64.8584785 183.686482 59.8871656M192.541476 57.2792638C192.395587 57.2792638 192.262274 57.2475706 192.141035 57.184184 192.019795 57.1207975 191.914654 57.034773 191.825611 56.9266135 191.736568 56.8174479 191.666139 56.6931902 191.613317 56.5523313 191.560495 56.4124785 191.534335 56.2650798 191.534335 56.1111411 191.534335 55.9662577 191.560495 55.8259018 191.613317 55.6900736 191.666139 55.5542454 191.736568 55.4370307 191.825611 55.3369202 191.914654 55.2373129 192.017783 55.155816 192.134998 55.0924294 192.252212 55.0290429 192.379488 54.9978528 192.516826 54.9978528 192.800053 54.9978528 193.046556 55.1019877 193.256838 55.3097546 193.46712 55.5185276 193.572261 55.7851534 193.572261 56.1111411 193.572261 56.4371288 193.475673 56.713816 193.281488 56.9396933 193.087304 57.1660736 192.840298 57.2792638 192.541476 57.2792638zM190.018593 57.2792638C189.872703 57.2792638 189.73939 57.2475706 189.618151 57.184184 189.496409 57.1207975 189.391268 57.034773 189.302728 56.9266135 189.213685 56.8174479 189.142752 56.6931902 189.090433 56.5523313 189.037611 56.4124785 189.011452 56.2650798 189.011452 56.1111411 189.011452 55.9662577 189.037611 55.8259018 189.090433 55.6900736 189.142752 55.5542454 189.213685 55.4370307 189.302728 55.3369202 189.391268 55.2373129 189.4949 55.155816 189.612114 55.0924294 189.728826 55.0290429 189.856102 54.9978528 189.993942 54.9978528 190.276666 54.9978528 190.523169 55.1019877 190.733955 55.3097546 190.943734 55.5185276 191.049378 55.7851534 191.049378 56.1111411 191.049378 56.4371288 190.952286 56.713816 190.758102 56.9396933 190.564421 57.1660736 190.317415 57.2792638 190.018593 57.2792638zM194.130163 64.8584785L192.384016 64.8584785 192.384016 63.9620123 192.359366 63.9620123C192.29447 64.0892883 192.211967 64.2155583 192.11085 64.3423313 192.009734 64.4696074 191.885979 64.5822945 191.740593 64.6824049 191.595206 64.7820123 191.429194 64.8630061 191.243562 64.9263926 191.057427 64.9897791 190.855194 65.0214724 190.636863 65.0214724 190.176053 65.0214724 189.801771 64.9419877 189.515022 64.7840245 189.227771 64.6255583 189.005415 64.4062209 188.847452 64.1250061 188.689992 63.8442945 188.58485 63.5137791 188.532028 63.1334601 188.479709 62.7536442 188.45355 62.3411288 188.45355 61.8974233L188.45355 58.257227 190.272642 58.257227 190.272642 61.4899387C190.272642 61.6800982 190.279182 61.8767975 190.291255 62.0810429 190.303329 62.2847853 190.33955 62.4724294 190.400421 62.6444785 190.460789 62.8165276 190.553857 62.9568834 190.67912 63.065546 190.804384 63.1742086 190.984482 63.2285399 191.218912 63.2285399 191.453341 63.2285399 191.643501 63.1807485 191.78939 63.0861718 191.934777 62.990589 192.045955 62.863816 192.122924 62.7058528 192.19939 62.5473865 192.2502 62.3682945 192.274347 62.1690798 192.298998 61.969865 192.310568 61.7615951 192.310568 61.5442699L192.310568 58.257227 194.130163 58.257227 194.130163 64.8584785 194.130163 64.8584785zM197.659685 54.589865L197.659685 59.1536933 197.684335 59.1536933C197.724581 59.0269202 197.793501 58.9001472 197.89009 58.7733742 197.987182 58.6466012 198.104396 58.5339141 198.241734 58.4338037 198.379574 58.3341963 198.541059 58.2526994 198.727194 58.1893129 198.913329 58.1259264 199.115562 58.0942331 199.333893 58.0942331 199.794703 58.0942331 200.16647 58.1737178 200.449697 58.331681 200.732421 58.4906503 200.953268 58.7099877 201.110728 58.9906994 201.268691 59.2719141 201.375844 59.6019264 201.432188 59.9822454 201.488531 60.3630675 201.517206 60.7745767 201.517206 61.2182822L201.517206 64.8584785 199.697611 64.8584785 199.697611 61.6257669C199.697611 61.4356074 199.691574 61.238908 199.679501 61.0351656 199.667427 60.8309202 199.631206 60.6432761 199.570335 60.471227 199.509967 60.299681 199.416396 60.1588221 199.291133 60.0501595 199.165869 59.9414969 198.986274 59.8871656 198.751844 59.8871656 198.516912 59.8871656 198.326752 59.9349571 198.181366 60.0295337 198.035979 60.1251166 197.924298 60.2518896 197.847832 60.4098528 197.770863 60.5688221 197.720556 60.747411 197.695906 60.9466258 197.671758 61.1458405 197.659685 61.3541104 197.659685 61.5714356L197.659685 64.8584785 195.840593 64.8584785 195.840593 54.589865 197.659685 54.589865M203.712593 58.257227L205.531685 58.257227 205.531685 59.3166871 205.556335 59.3166871C205.750519 58.9092025 205.980924 58.6033374 206.24755 58.3995951 206.514679 58.1963558 206.850225 58.0942331 207.254188 58.0942331 207.359329 58.0942331 207.46447 58.0992638 207.569611 58.107816 207.674752 58.1173742 207.772347 58.1349816 207.860887 58.1626503L207.860887 60.0229939C207.731599 59.9777178 207.604323 59.9440123 207.479059 59.9213742 207.353795 59.8987362 207.221992 59.8871656 207.084654 59.8871656 206.737035 59.8871656 206.461857 59.9414969 206.260127 60.0501595 206.05739 60.1588221 205.901942 60.3107485 205.792777 60.5054356 205.683611 60.6996196 205.613182 60.9330429 205.580482 61.2046994 205.548286 61.4763558 205.531685 61.7751779 205.531685 62.1011656L205.531685 64.8584785 203.712593 64.8584785 203.712593 58.257227M215.235857 64.8584785L213.489709 64.8584785 213.489709 63.9620123 213.465059 63.9620123C213.400163 64.0892883 213.31766 64.2155583 213.216544 64.3423313 213.115427 64.4696074 212.992176 64.5822945 212.846286 64.6824049 212.7009 64.7820123 212.534887 64.8630061 212.349255 64.9263926 212.16312 64.9897791 211.960887 65.0214724 211.742556 65.0214724 211.281746 65.0214724 210.907464 64.9419877 210.620715 64.7840245 210.333464 64.6255583 210.111108 64.4062209 209.953145 64.1250061 209.795685 63.8442945 209.690544 63.5137791 209.638225 63.1334601 209.585403 62.7536442 209.559243 62.3411288 209.559243 61.8974233L209.559243 58.257227 211.378838 58.257227 211.378838 61.4899387C211.378838 61.6800982 211.384875 61.8767975 211.396949 62.0810429 211.409022 62.2847853 211.445243 62.4724294 211.506114 62.6444785 211.566985 62.8165276 211.65955 62.9568834 211.784814 63.065546 211.910077 63.1742086 212.090679 63.2285399 212.324605 63.2285399 212.559035 63.2285399 212.749194 63.1807485 212.895084 63.0861718 213.04047 62.990589 213.151648 62.863816 213.228617 62.7058528 213.305587 62.5473865 213.355893 62.3682945 213.380041 62.1690798 213.404691 61.969865 213.416261 61.7615951 213.416261 61.5442699L213.416261 58.257227 215.235857 58.257227 215.235857 64.8584785M217.188765 58.257227L218.935415 58.257227 218.935415 59.1536933 218.960065 59.1536933C219.016409 59.0269202 219.0969 58.9001472 219.202041 58.7733742 219.307182 58.6466012 219.432446 58.5339141 219.578335 58.4338037 219.723722 58.3341963 219.889231 58.2526994 220.075869 58.1893129 220.262004 58.1259264 220.463734 58.0942331 220.682568 58.0942331 221.143378 58.0942331 221.515145 58.1737178 221.797869 58.331681 222.081096 58.4906503 222.301439 58.7099877 222.459403 58.9906994 222.616863 59.2719141 222.724016 59.6019264 222.780863 59.9822454 222.837206 60.3630675 222.865378 60.7745767 222.865378 61.2182822L222.865378 64.8584785 221.045783 64.8584785 221.045783 61.6257669C221.045783 61.4356074 221.040249 61.238908 221.027673 61.0351656 221.016102 60.8309202 220.979378 60.6432761 220.918507 60.471227 220.858139 60.299681 220.765071 60.1588221 220.639808 60.0501595 220.514544 59.9414969 220.334446 59.8871656 220.100016 59.8871656 219.865587 59.8871656 219.675427 59.9349571 219.530041 60.0295337 219.384654 60.1251166 219.272973 60.2518896 219.196507 60.4098528 219.119035 60.5688221 219.069231 60.747411 219.044581 60.9466258 219.020433 61.1458405 219.00836 61.3541104 219.00836 61.5714356L219.00836 64.8584785 217.188765 64.8584785 217.188765 58.257227M226.662028 61.5171043C226.662028 61.7344294 226.698752 61.940184 226.771194 62.1353742 226.844139 62.3300613 226.947268 62.5021104 227.080581 62.6510184 227.213893 62.8004294 227.367832 62.9211656 227.54139 63.0112147 227.715452 63.1017669 227.907623 63.1470429 228.117906 63.1470429 228.319636 63.1470429 228.509795 63.1017669 228.687881 63.0112147 228.865464 62.9211656 229.021415 62.8004294 229.154728 62.6510184 229.288544 62.5021104 229.391169 62.3300613 229.464617 62.1353742 229.537059 61.940184 229.57328 61.7344294 229.57328 61.5171043 229.57328 61.2997791 229.537059 61.0940245 229.464617 60.8993374 229.391169 60.7041472 229.288544 60.5320982 229.154728 60.3831902 229.021415 60.2337791 228.865464 60.113546 228.687881 60.0229939 228.509795 59.9324417 228.319636 59.8871656 228.117906 59.8871656 227.907623 59.8871656 227.715452 59.9324417 227.54139 60.0229939 227.367832 60.113546 227.213893 60.2337791 227.080581 60.3831902 226.947268 60.5320982 226.844139 60.7041472 226.771194 60.8993374 226.698752 61.0940245 226.662028 61.2997791 226.662028 61.5171043zM231.247488 64.3015828C231.247488 65.5512025 230.966274 66.4999877 230.404347 67.1474356 229.842421 67.7943804 228.986703 68.1188589 227.838703 68.1188589 227.312998 68.1188589 226.795341 68.0529571 226.285734 67.9216564 225.77663 67.7898528 225.307771 67.5342945 224.878654 67.1544785L225.885795 65.4697055C226.169022 65.7323067 226.466335 65.9400736 226.777231 66.0945153 227.08863 66.248454 227.430715 66.3254233 227.802482 66.3254233 228.360384 66.3254233 228.770887 66.1734969 229.033488 65.8706503 229.296593 65.5667975 229.42739 65.1799387 229.42739 64.7090675L229.42739 64.0706748 229.403746 64.0706748C229.193464 64.3881104 228.932372 64.6119755 228.620973 64.7432761 228.310077 64.8740736 228.016789 64.9399755 227.741611 64.9399755 227.304949 64.9399755 226.909035 64.8564663 226.553366 64.6884417 226.197194 64.5214233 225.891832 64.2854847 225.636777 63.982638 225.382225 63.6787853 225.186531 63.3195951 225.048691 62.9025521 224.911354 62.4860123 224.842433 62.0287239 224.842433 61.5306871 224.842433 61.0965399 224.905317 60.6704417 225.030581 60.2539018 225.155844 59.837865 225.33393 59.4706258 225.564335 59.1536933 225.79474 58.8367607 226.075452 58.5812025 226.407476 58.3865153 226.738998 58.1918282 227.115292 58.0942331 227.535857 58.0942331 227.79393 58.0942331 228.030875 58.1259264 228.245182 58.1893129 228.459488 58.2526994 228.651157 58.3341963 228.821194 58.4338037 228.991231 58.5339141 229.136617 58.644589 229.25836 58.7668344 229.379599 58.8890798 229.476188 59.0088098 229.549133 59.1270307L229.57328 59.1270307 229.57328 58.257227 231.247488 58.257227 231.247488 64.3015828 231.247488 64.3015828zM95.7105437 77.9885399C95.7105437 78.4755092 95.66074 78.9418528 95.5616357 79.3865644 95.4625314 79.8312761 95.2960161 80.2246748 95.0630959 80.5667607 94.8301756 80.9088466 94.5248136 81.1825153 94.1465069 81.3877669 93.7687032 81.5930184 93.3043719 81.6956442 92.7545192 81.6956442 92.2046664 81.6956442 91.7408382 81.5930184 91.3630345 81.3877669 90.9847278 81.1825153 90.6793658 80.9088466 90.4464455 80.5667607 90.2130222 80.2246748 90.04701 79.8312761 89.9479057 79.3865644 89.8488014 78.9418528 89.7989977 78.4755092 89.7989977 77.9885399L89.7989977 72.3823558 90.5551081 72.3823558 90.5551081 77.7702086C90.5551081 78.0956933 90.5817707 78.4418037 90.6350959 78.809546 90.688421 79.1767853 90.7935621 79.5193742 90.9505192 79.8358037 91.1069732 80.1517301 91.3283228 80.4128221 91.6150713 80.6180736 91.9013167 80.8228221 92.2811327 80.9259509 92.7545192 80.9259509 93.2284087 80.9259509 93.6082247 80.8228221 93.8944701 80.6180736 94.1812185 80.4128221 94.4025682 80.1517301 94.5590222 79.8358037 94.7154762 79.5193742 94.8206173 79.1767853 94.8744455 78.809546 94.9277707 78.4418037 94.9544333 78.0956933 94.9544333 77.7702086L94.9544333 72.3823558 95.7105437 72.3823558 95.7105437 77.9885399M97.4290222 77.2057669C97.4290222 77.094589 97.4249977 76.9602699 97.4174517 76.8013006 97.4099057 76.6433374 97.4038689 76.483362 97.4003474 76.3203681 97.3963228 76.1583804 97.3907891 76.0059509 97.3832431 75.865092 97.375194 75.7242331 97.3716725 75.6150675 97.3716725 75.5380982L98.0588627 75.5380982C98.0664087 75.760454 98.0724455 75.9742577 98.075967 76.1795092 98.0799916 76.3847607 98.0895498 76.5175706 98.1046419 76.5769325L98.1393535 76.5769325C98.2766909 76.252454 98.5055866 75.9722454 98.8265437 75.7368098 99.1475008 75.5013742 99.5212799 75.3841595 99.9493903 75.3841595 100.361906 75.3841595 100.697452 75.4566012 100.957538 75.6024908 101.21712 75.7478773 101.421366 75.9380368 101.570274 76.1729693 101.719182 76.4084049 101.822311 76.6795583 101.87966 76.9874356 101.93701 77.295816 101.965685 77.6122454 101.965685 77.9367239L101.965685 81.4647362 101.278495 81.4647362 101.278495 77.9754601C101.278495 77.736 101.259378 77.5030798 101.221145 77.2761963 101.182912 77.0493129 101.116004 76.8465767 101.020421 76.6669816 100.924838 76.4873865 100.791525 76.3440123 100.619476 76.2368589 100.447427 76.1302086 100.224065 76.0768834 99.9493903 76.0768834 99.6973535 76.0768834 99.4583965 76.126184 99.2335253 76.2242822 99.007648 76.3228834 98.8129609 76.4722945 98.6489609 76.6730184 98.4844578 76.8742454 98.3551695 77.1267853 98.2595866 77.430135 98.1640038 77.7339877 98.1162124 78.0911656 98.1162124 78.5011656L98.1162124 81.4647362 97.4290222 81.4647362 97.4290222 77.2057669M104.210875 81.4647362L104.898568 81.4647362 104.898568 75.5380982 104.210875 75.5380982 104.210875 81.4647362zM104.039329 73.1907853C104.039329 73.0277914 104.089133 72.8914601 104.188237 72.7797791 104.287341 72.6686012 104.409587 72.6132638 104.554973 72.6132638 104.699857 72.6132638 104.822102 72.6686012 104.921206 72.7797791 105.020814 72.8914601 105.070114 73.0277914 105.070114 73.1907853 105.070114 73.3532761 105.020814 73.4896074 104.921206 73.6007853 104.822102 73.7124663 104.699857 73.7678037 104.554973 73.7678037 104.409587 73.7678037 104.287341 73.7124663 104.188237 73.6007853 104.089133 73.4896074 104.039329 73.3532761 104.039329 73.1907853L104.039329 73.1907853z"/>
    <polyline fill="#5E5E5E" points="106.628 75.538 107.407 75.538 109.172 80.631 110.89 75.538 111.589 75.538 109.504 81.465 108.793 81.465 106.628 75.538"/>
    <path fill="#5E5E5E" d="M117.350998 78.0011166C117.350998 77.736 117.303709 77.4879877 117.208127 77.2570798 117.112544 77.0261718 116.982752 76.8229325 116.818752 76.647865 116.654249 76.4722945 116.459562 76.3334479 116.234188 76.2308221 116.008814 76.1276933 115.77036 76.0768834 115.518323 76.0768834 115.144041 76.0768834 114.832642 76.1624049 114.58463 76.3334479 114.336114 76.5044908 114.139415 76.7011902 113.994531 76.923546 113.849145 77.1459018 113.746016 77.3622209 113.685145 77.5714969 113.624274 77.7812761 113.593587 77.9241472 113.593587 78.0011166L117.350998 78.0011166zM117.878212 80.3484294C117.610581 80.8016933 117.280568 81.1271779 116.887169 81.3238773 116.493771 81.5200736 116.060127 81.6186748 115.58674 81.6186748 115.182274 81.6186748 114.815538 81.5417055 114.487035 81.3877669 114.158531 81.2338282 113.876311 81.0180123 113.639366 80.739816 113.402421 80.4621227 113.221317 80.1326135 113.095047 79.7522945 112.96928 79.3719755 112.905893 78.9504049 112.905893 78.488589 112.905893 78.0438773 112.970789 77.6333742 113.101084 77.2570798 113.230875 76.8807853 113.413992 76.5537914 113.650936 76.2755951 113.887378 75.9979018 114.166581 75.7795706 114.487035 75.6216074 114.807992 75.4631411 115.163157 75.3841595 115.552531 75.3841595 115.957501 75.3841595 116.314679 75.4631411 116.624065 75.6216074 116.932949 75.7795706 117.192531 75.9893497 117.402814 76.2499387 117.612593 76.5110307 117.771059 76.8078405 117.878212 77.1413742 117.985366 77.474908 118.038691 77.8129693 118.038691 78.1550552L118.038691 78.6938405 113.593587 78.6938405C113.593587 78.8563313 113.622261 79.0635951 113.679611 79.3156319 113.736961 79.5681718 113.841599 79.8146748 113.994531 80.0536319 114.147464 80.293092 114.351206 80.4983436 114.607268 80.6693865 114.863329 80.8404294 115.193341 80.9259509 115.598311 80.9259509 115.949452 80.9259509 116.289525 80.8318773 116.618028 80.6437301 116.946531 80.4555828 117.198568 80.1990184 117.374139 79.8740368L117.878212 80.3484294 117.878212 80.3484294zM120.100765 77.2057669C120.100765 77.094589 120.09674 76.9602699 120.089697 76.8013006 120.081648 76.6433374 120.075611 76.483362 120.07209 76.3203681 120.068065 76.1583804 120.062531 76.0059509 120.054985 75.865092 120.047439 75.7242331 120.043415 75.6150675 120.043415 75.5380982L120.731108 75.5380982C120.738151 75.760454 120.743685 75.9742577 120.747709 76.1795092 120.751734 76.3847607 120.761795 76.5175706 120.776384 76.5769325 120.952458 76.2267975 121.178335 75.9400491 121.452507 75.7176933 121.727685 75.4953374 122.063231 75.3841595 122.460654 75.3841595 122.529071 75.3841595 122.595979 75.3906994 122.660875 75.4032761 122.725771 75.4158528 122.793685 75.4314479 122.862102 75.4480491L122.781611 76.2051656C122.690556 76.1709571 122.602016 76.1538528 122.518507 76.1538528 122.220691 76.1538528 121.962114 76.207681 121.745292 76.3143313 121.526961 76.4209816 121.347366 76.5683804 121.206507 76.7565276 121.065145 76.9446748 120.960004 77.1650184 120.891084 77.4175583 120.822666 77.6695951 120.787955 77.9412515 120.787955 78.2320245L120.787955 81.4647362 120.100765 81.4647362 120.100765 77.2057669M124.683206 79.9510061C124.828593 80.2674356 125.041893 80.508908 125.32512 80.6754233 125.607341 80.8429448 125.905157 80.9259509 126.218568 80.9259509 126.363452 80.9259509 126.508335 80.9002945 126.653722 80.8489816 126.799108 80.7976687 126.928396 80.7247239 127.043599 80.6311534 127.157795 80.5365767 127.251366 80.4238896 127.324311 80.2910798 127.396752 80.1582699 127.432973 80.0063436 127.432973 79.8358037 127.432973 79.562135 127.354495 79.3563804 127.198041 79.219546 127.041587 79.0827117 126.848409 78.9760613 126.619513 78.899092 126.390114 78.8221227 126.138077 78.7557178 125.863403 78.7003804 125.588225 78.6445399 125.336188 78.5590184 125.107292 78.443816 124.877893 78.3281104 124.685219 78.1676319 124.528765 77.9623804 124.371808 77.7576319 124.293832 77.4668589 124.293832 77.0905644 124.293832 76.7992883 124.34766 76.5472515 124.453808 76.3334479 124.560961 76.1196442 124.700814 75.9420613 124.87236 75.8012025 125.043906 75.6598405 125.237084 75.5552025 125.450887 75.4867853 125.664691 75.4183681 125.882016 75.3841595 126.103869 75.3841595 126.539525 75.3841595 126.915317 75.4742086 127.232249 75.6533006 127.549182 75.8333988 127.795685 76.1151166 127.971758 76.5004663L127.352482 76.9104663C127.222691 76.6367975 127.060703 76.4295337 126.865513 76.2886748 126.671329 76.147816 126.41728 76.0768834 126.103869 76.0768834 125.982127 76.0768834 125.853844 76.0985153 125.720028 76.1412761 125.586212 76.1840368 125.465979 76.2433988 125.359329 76.3203681 125.252176 76.3978405 125.16263 76.4959387 125.090188 76.6156687 125.017746 76.7353988 124.981022 76.8722331 124.981022 77.0261718 124.981022 77.2912883 125.059501 77.4879877 125.215955 77.6157669 125.372912 77.7445521 125.565084 77.8451656 125.794482 77.9176074 126.023881 77.9905521 126.275918 78.0524294 126.550593 78.1037423 126.825771 78.1550552 127.077808 78.2385644 127.306703 78.3537669 127.535599 78.4694724 127.728777 78.6359877 127.885734 78.853816 128.041685 79.0721472 128.120666 79.3820368 128.120666 79.7839877 128.120666 80.091865 128.06885 80.3594969 127.965722 80.5858773 127.862593 80.8127607 127.721231 81.0029202 127.541636 81.1568589 127.362544 81.3107975 127.157795 81.4265031 126.928396 81.5029693 126.699501 81.5799387 126.459035 81.6186748 126.206998 81.6186748 125.749206 81.6186748 125.330654 81.5200736 124.95285 81.3238773 124.574544 81.1271779 124.282765 80.8228221 124.076004 80.4128221L124.683206 79.9510061M129.964912 81.4647362L130.652102 81.4647362 130.652102 75.5380982 129.964912 75.5380982 129.964912 81.4647362zM129.792863 73.1907853C129.792863 73.0277914 129.842163 72.8914601 129.941771 72.7797791 130.040875 72.6686012 130.16312 72.6132638 130.308004 72.6132638 130.452887 72.6132638 130.575133 72.6686012 130.675243 72.7797791 130.773844 72.8914601 130.824151 73.0277914 130.824151 73.1907853 130.824151 73.3532761 130.773844 73.4896074 130.675243 73.6007853 130.575133 73.7124663 130.452887 73.7678037 130.308004 73.7678037 130.16312 73.7678037 130.040875 73.7124663 129.941771 73.6007853 129.842163 73.4896074 129.792863 73.3532761 129.792863 73.1907853L129.792863 73.1907853zM135.715476 76.2308221L134.203255 76.2308221 134.203255 80.091865C134.203255 80.3574847 134.267648 80.5627362 134.397942 80.7076196 134.527734 80.8535092 134.707329 80.9259509 134.936225 80.9259509 135.066016 80.9259509 135.19782 80.9063313 135.331636 80.8680982 135.464949 80.829362 135.593231 80.7805644 135.715476 80.7206994L135.772323 81.4134233C135.643035 81.4647362 135.494127 81.5115215 135.326102 81.5547853 135.158077 81.597546 135.009169 81.6186748 134.878875 81.6186748 134.634887 81.6186748 134.424605 81.5779264 134.249035 81.4964294 134.073464 81.4154356 133.932102 81.3062699 133.824949 81.1694356 133.717795 81.0326012 133.63982 80.8726258 133.590519 80.6885031 133.540715 80.5048834 133.515562 80.3056687 133.515562 80.091865L133.515562 76.2308221 132.370077 76.2308221 132.370077 75.5380982 133.515562 75.5380982 133.515562 73.8316933 134.203255 73.8316933 134.203255 75.5380982 135.715476 75.5380982 135.715476 76.2308221M140.069022 73.1007362C140.069022 72.9296933 140.122347 72.7843067 140.229501 72.6645767 140.336151 72.5448466 140.465942 72.4849816 140.618372 72.4849816 140.771304 72.4849816 140.901096 72.5448466 141.008249 72.6645767 141.115403 72.7843067 141.168728 72.9296933 141.168728 73.1007362 141.168728 73.2717791 141.115403 73.4171656 141.008249 73.5368957 140.901096 73.6566258 140.771304 73.7164908 140.618372 73.7164908 140.465942 73.7164908 140.336151 73.6566258 140.229501 73.5368957 140.122347 73.4171656 140.069022 73.2717791 140.069022 73.1007362zM140.20636 78.488589C139.91609 78.488589 139.635378 78.5102209 139.364225 78.5529816 139.093071 78.5957423 138.849084 78.668184 138.630752 78.7703067 138.412924 78.8729325 138.239869 79.0102699 138.109574 79.1813129 137.979783 79.3523558 137.914887 79.5656564 137.914887 79.8227239 137.914887 80.002319 137.951611 80.1627975 138.024053 80.3036564 138.096495 80.4450184 138.190065 80.5602209 138.304765 80.6502699 138.418961 80.739816 138.54674 80.8082331 138.688102 80.8555215 138.829967 80.9028098 138.972838 80.9259509 139.118225 80.9259509 139.484458 80.9259509 139.786298 80.8660859 140.023243 80.7463558 140.259182 80.6266258 140.448335 80.4701718 140.5902 80.278 140.731562 80.0858282 140.828654 79.8674969 140.882482 79.6240123 140.935304 79.3800245 140.96247 79.1345276 140.96247 78.8860123L140.96247 78.488589 140.20636 78.488589zM137.891746 73.1007362C137.891746 72.9296933 137.945574 72.7843067 138.052728 72.6645767 138.159378 72.5448466 138.289169 72.4849816 138.442102 72.4849816 138.595035 72.4849816 138.724826 72.5448466 138.831979 72.6645767 138.938127 72.7843067 138.991955 72.9296933 138.991955 73.1007362 138.991955 73.2717791 138.938127 73.4171656 138.831979 73.5368957 138.724826 73.6566258 138.595035 73.7164908 138.442102 73.7164908 138.289169 73.7164908 138.159378 73.6566258 138.052728 73.5368957 137.945574 73.4171656 137.891746 73.2717791 137.891746 73.1007362zM141.58074 78.9760613C141.58074 79.2668344 141.582752 79.5274233 141.586777 79.7583313 141.590801 79.9892393 141.596335 80.2030429 141.603881 80.4002454 141.611427 80.5964417 141.620985 80.7805644 141.632556 80.9516074 141.643623 81.1226503 141.661231 81.2936933 141.683869 81.4647362L141.042458 81.4647362C140.996679 81.1739632 140.973538 80.8535092 140.973538 80.5028712L140.9509 80.5028712C140.752188 80.8872147 140.506188 81.1694356 140.212396 81.3490307 139.918102 81.5291288 139.545329 81.6186748 139.095084 81.6186748 138.866188 81.6186748 138.640814 81.5864785 138.418961 81.522589 138.197611 81.4581963 137.9989 81.3555706 137.823329 81.2147117 137.647758 81.0738528 137.504384 80.8917423 137.393709 80.6693865 137.282531 80.4470307 137.227697 80.1773865 137.227697 79.8609571 137.227697 79.4081963 137.330826 79.0485031 137.536581 78.7838896 137.742838 78.5182699 137.996887 78.3195583 138.298728 78.1867485 138.600568 78.0549448 138.921022 77.9689202 139.261096 77.930184 139.601169 77.8919509 139.900998 77.8728344 140.160581 77.8728344L140.96247 77.8728344 140.96247 77.5136442C140.96247 77.0005153 140.821108 76.632773 140.538384 76.4104172 140.256163 76.1880613 139.900998 76.0768834 139.472887 76.0768834 138.862163 76.0768834 138.323378 76.2992393 137.857538 76.7439509L137.456593 76.2177423C137.70863 75.9440736 138.022041 75.7368098 138.39582 75.5959509 138.770102 75.455092 139.129292 75.3841595 139.472887 75.3841595 140.114298 75.3841595 140.626421 75.5531902 141.008249 75.8907485 141.389574 76.2288098 141.58074 76.774135 141.58074 77.5267239L141.58074 78.9760613 141.58074 78.9760613zM146.529918 76.2308221L145.017697 76.2308221 145.017697 80.091865C145.017697 80.3574847 145.08209 80.5627362 145.212384 80.7076196 145.342176 80.8535092 145.521771 80.9259509 145.750666 80.9259509 145.880458 80.9259509 146.012261 80.9063313 146.146581 80.8680982 146.27939 80.829362 146.407673 80.7805644 146.529918 80.7206994L146.587268 81.4134233C146.457476 81.4647362 146.308568 81.5115215 146.140544 81.5547853 145.972519 81.597546 145.823611 81.6186748 145.693317 81.6186748 145.449329 81.6186748 145.239047 81.5779264 145.063476 81.4964294 144.887906 81.4154356 144.746544 81.3062699 144.63939 81.1694356 144.53274 81.0326012 144.454261 80.8726258 144.404961 80.6885031 144.355157 80.5048834 144.330004 80.3056687 144.330004 80.091865L144.330004 76.2308221 143.184519 76.2308221 143.184519 75.5380982 144.330004 75.5380982 144.330004 73.8316933 145.017697 73.8316933 145.017697 75.5380982 146.529918 75.5380982 146.529918 76.2308221"/>
    <polyline fill="#5E5E5E" points="150.929 72.382 151.708 72.382 153.725 80.425 153.747 80.425 155.798 72.382 156.76 72.382 158.811 80.425 158.834 80.425 160.85 72.382 161.629 72.382 159.269 81.465 158.341 81.465 156.291 73.382 156.268 73.382 154.217 81.465 153.289 81.465 150.929 72.382"/>
    <path fill="#5E5E5E" d="M162.832323 81.4647362L163.519513 81.4647362 163.519513 75.5380982 162.832323 75.5380982 162.832323 81.4647362zM162.660274 73.1907853C162.660274 73.0277914 162.709574 72.8914601 162.809182 72.7797791 162.908286 72.6686012 163.030531 72.6132638 163.175415 72.6132638 163.320298 72.6132638 163.442544 72.6686012 163.542654 72.7797791 163.641255 72.8914601 163.691562 73.0277914 163.691562 73.1907853 163.691562 73.3532761 163.641255 73.4896074 163.542654 73.6007853 163.442544 73.7124663 163.320298 73.7678037 163.175415 73.7678037 163.030531 73.7678037 162.908286 73.7124663 162.809182 73.6007853 162.709574 73.4896074 162.660274 73.3532761 162.660274 73.1907853L162.660274 73.1907853zM168.811783 76.2308221L167.299562 76.2308221 167.299562 80.091865C167.299562 80.3574847 167.363955 80.5627362 167.494249 80.7076196 167.624041 80.8535092 167.803636 80.9259509 168.032531 80.9259509 168.162323 80.9259509 168.294127 80.9063313 168.428446 80.8680982 168.561255 80.829362 168.689538 80.7805644 168.811783 80.7206994L168.869133 81.4134233C168.739341 81.4647362 168.590433 81.5115215 168.422409 81.5547853 168.254384 81.597546 168.105476 81.6186748 167.975182 81.6186748 167.731194 81.6186748 167.520912 81.5779264 167.345341 81.4964294 167.169771 81.4154356 167.028409 81.3062699 166.921255 81.1694356 166.814605 81.0326012 166.736127 80.8726258 166.686826 80.6885031 166.637022 80.5048834 166.611869 80.3056687 166.611869 80.091865L166.611869 76.2308221 165.466384 76.2308221 165.466384 75.5380982 166.611869 75.5380982 166.611869 73.8316933 167.299562 73.8316933 167.299562 75.5380982 168.811783 75.5380982 168.811783 76.2308221M173.153758 76.2308221L171.641538 76.2308221 171.641538 80.091865C171.641538 80.3574847 171.70593 80.5627362 171.836225 80.7076196 171.966016 80.8535092 172.145611 80.9259509 172.374507 80.9259509 172.504298 80.9259509 172.636102 80.9063313 172.769918 80.8680982 172.903231 80.829362 173.031513 80.7805644 173.153758 80.7206994L173.210605 81.4134233C173.081317 81.4647362 172.932409 81.5115215 172.764384 81.5547853 172.59636 81.597546 172.447452 81.6186748 172.317157 81.6186748 172.073169 81.6186748 171.862887 81.5779264 171.687317 81.4964294 171.511243 81.4154356 171.370384 81.3062699 171.263231 81.1694356 171.156077 81.0326012 171.078102 80.8726258 171.028298 80.6885031 170.978998 80.5048834 170.953844 80.3056687 170.953844 80.091865L170.953844 76.2308221 169.80836 76.2308221 169.80836 75.5380982 170.953844 75.5380982 170.953844 73.8316933 171.641538 73.8316933 171.641538 75.5380982 173.153758 75.5380982 173.153758 76.2308221M179.053231 78.0011166C179.053231 77.736 179.005439 77.4879877 178.909857 77.2570798 178.814274 77.0261718 178.684482 76.8229325 178.520482 76.647865 178.355979 76.4722945 178.161292 76.3334479 177.936421 76.2308221 177.711047 76.1276933 177.47209 76.0768834 177.220053 76.0768834 176.845771 76.0768834 176.534875 76.1624049 176.286863 76.3334479 176.038347 76.5044908 175.841648 76.7011902 175.696765 76.923546 175.551378 77.1459018 175.448249 77.3622209 175.387378 77.5714969 175.325501 77.7812761 175.295317 77.9241472 175.295317 78.0011166L179.053231 78.0011166zM179.580446 80.3484294C179.312814 80.8016933 178.982298 81.1271779 178.589403 81.3238773 178.196004 81.5200736 177.76236 81.6186748 177.288973 81.6186748 176.884004 81.6186748 176.517771 81.5417055 176.188765 81.3877669 175.860765 81.2338282 175.577538 81.0180123 175.341599 80.739816 175.104654 80.4621227 174.92355 80.1326135 174.79728 79.7522945 174.671513 79.3719755 174.608127 78.9504049 174.608127 78.488589 174.608127 78.0438773 174.673022 77.6333742 174.802814 77.2570798 174.932605 76.8807853 175.115722 76.5537914 175.352666 76.2755951 175.589611 75.9979018 175.868311 75.7795706 176.188765 75.6216074 176.509722 75.4631411 176.864887 75.3841595 177.254261 75.3841595 177.659231 75.3841595 178.016409 75.4631411 178.325292 75.6216074 178.635182 75.7795706 178.894261 75.9893497 179.104544 76.2499387 179.314826 76.5110307 179.473292 76.8078405 179.580446 77.1413742 179.686593 77.474908 179.740421 77.8129693 179.740421 78.1550552L179.740421 78.6938405 175.295317 78.6938405C175.295317 78.8563313 175.324495 79.0635951 175.381341 79.3156319 175.438691 79.5681718 175.543329 79.8146748 175.696765 80.0536319 175.849194 80.293092 176.053439 80.4983436 176.309501 80.6693865 176.565059 80.8404294 176.895574 80.9259509 177.300041 80.9259509 177.651685 80.9259509 177.991255 80.8318773 178.320261 80.6437301 178.648261 80.4555828 178.900298 80.1990184 179.076372 79.8740368L179.580446 80.3484294 179.580446 80.3484294zM181.574102 77.2057669C181.574102 77.094589 181.570581 76.9602699 181.562531 76.8013006 181.554985 76.6433374 181.549452 76.483362 181.545427 76.3203681 181.541403 76.1583804 181.535869 76.0059509 181.528323 75.865092 181.520777 75.7242331 181.516752 75.6150675 181.516752 75.5380982L182.203942 75.5380982C182.211488 75.760454 182.217525 75.9742577 182.22155 76.1795092 182.225071 76.3847607 182.23463 76.5175706 182.249722 76.5769325L182.284433 76.5769325C182.421771 76.252454 182.651169 75.9722454 182.972127 75.7368098 183.292077 75.5013742 183.666863 75.3841595 184.09447 75.3841595 184.506482 75.3841595 184.842531 75.4566012 185.102617 75.6024908 185.3622 75.7478773 185.566446 75.9380368 185.715857 76.1729693 185.864765 76.4084049 185.967893 76.6795583 186.02474 76.9874356 186.08209 77.295816 186.110765 77.6122454 186.110765 77.9367239L186.110765 81.4647362 185.423574 81.4647362 185.423574 77.9754601C185.423574 77.736 185.404458 77.5030798 185.365722 77.2761963 185.327488 77.0493129 185.261084 76.8465767 185.165501 76.6669816 185.070421 76.4873865 184.936605 76.3440123 184.764556 76.2368589 184.592507 76.1302086 184.369145 76.0768834 184.09447 76.0768834 183.842433 76.0768834 183.603979 76.126184 183.378102 76.2242822 183.153231 76.3228834 182.958041 76.4722945 182.794041 76.6730184 182.630041 76.8742454 182.499746 77.1267853 182.404666 77.430135 182.309084 77.7339877 182.261795 78.0911656 182.261795 78.5011656L182.261795 81.4647362 181.574102 81.4647362 181.574102 77.2057669"/>
    <polyline fill="#5E5E5E" points="190.911 71.921 191.507 72.151 188.036 81.927 187.428 81.696 190.911 71.921"/>
    <polyline fill="#5E5E5E" points="192.973 72.382 193.729 72.382 193.729 76.385 198.266 76.385 198.266 72.382 199.022 72.382 199.022 81.465 198.266 81.465 198.266 77.154 193.729 77.154 193.729 81.465 192.973 81.465 192.973 72.382"/>
    <path fill="#5E5E5E" d="M205.723354 78.0011166C205.723354 77.736 205.676065 77.4879877 205.580482 77.2570798 205.4849 77.0261718 205.355108 76.8229325 205.191108 76.647865 205.026605 76.4722945 204.831918 76.3334479 204.607047 76.2308221 204.381169 76.1276933 204.142715 76.0768834 203.890679 76.0768834 203.516396 76.0768834 203.204998 76.1624049 202.956985 76.3334479 202.70847 76.5044908 202.512274 76.7011902 202.366887 76.923546 202.221501 77.1459018 202.118372 77.3622209 202.057501 77.5714969 201.996127 77.7812761 201.965942 77.9241472 201.965942 78.0011166L205.723354 78.0011166zM206.250568 80.3484294C205.983439 80.8016933 205.652924 81.1271779 205.259525 81.3238773 204.866127 81.5200736 204.432985 81.6186748 203.959096 81.6186748 203.55463 81.6186748 203.187893 81.5417055 202.85939 81.3877669 202.53139 81.2338282 202.248163 81.0180123 202.011722 80.739816 201.77528 80.4621227 201.593673 80.1326135 201.467403 79.7522945 201.341636 79.3719755 201.278249 78.9504049 201.278249 78.488589 201.278249 78.0438773 201.343145 77.6333742 201.473439 77.2570798 201.603231 76.8807853 201.786347 76.5537914 202.023292 76.2755951 202.260237 75.9979018 202.538433 75.7795706 202.85939 75.6216074 203.180347 75.4631411 203.535513 75.3841595 203.924887 75.3841595 204.329857 75.3841595 204.687035 75.4631411 204.995918 75.6216074 205.305304 75.7795706 205.564887 75.9893497 205.775169 76.2499387 205.985452 76.5110307 206.143415 76.8078405 206.250568 77.1413742 206.357219 77.474908 206.411047 77.8129693 206.411047 78.1550552L206.411047 78.6938405 201.965942 78.6938405C201.965942 78.8563313 201.994617 79.0635951 202.051464 79.3156319 202.109317 79.5681718 202.213955 79.8146748 202.366887 80.0536319 202.519317 80.293092 202.723562 80.4983436 202.979623 80.6693865 203.235685 80.8404294 203.565697 80.9259509 203.970666 80.9259509 204.321808 80.9259509 204.661881 80.8318773 204.990384 80.6437301 205.318887 80.4555828 205.570924 80.1990184 205.746495 79.8740368L206.250568 80.3484294 206.250568 80.3484294zM208.244225 77.2057669C208.244225 77.094589 208.2402 76.9602699 208.232654 76.8013006 208.225108 76.6433374 208.219071 76.483362 208.215047 76.3203681 208.211525 76.1583804 208.205992 76.0059509 208.197942 75.865092 208.1909 75.7242331 208.186875 75.6150675 208.186875 75.5380982L208.874065 75.5380982C208.881611 75.760454 208.887145 75.9742577 208.891169 76.1795092 208.895194 76.3847607 208.904752 76.5175706 208.919844 76.5769325 209.095415 76.2267975 209.321292 75.9400491 209.595967 75.7176933 209.870642 75.4953374 210.206691 75.3841595 210.603611 75.3841595 210.672531 75.3841595 210.739439 75.3906994 210.804335 75.4032761 210.869231 75.4158528 210.936642 75.4314479 211.005059 75.4480491L210.924568 76.2051656C210.833513 76.1709571 210.745476 76.1538528 210.661464 76.1538528 210.363648 76.1538528 210.105574 76.207681 209.888249 76.3143313 209.670421 76.4209816 209.490826 76.5683804 209.349464 76.7565276 209.208102 76.9446748 209.103464 77.1650184 209.034544 77.4175583 208.966127 77.6695951 208.931415 77.9412515 208.931415 78.2320245L208.931415 81.4647362 208.244225 81.4647362 208.244225 77.2057669M217.077084 78.5011656C217.077084 78.1676319 217.019231 77.8532147 216.905035 77.5584172 216.790335 77.2631166 216.633881 77.0070552 216.435169 76.7887239 216.236458 76.5703926 216.003538 76.3978405 215.736409 76.2695583 215.468777 76.1412761 215.178507 76.0768834 214.865599 76.0768834 214.544642 76.0768834 214.254372 76.1412761 213.995292 76.2695583 213.735206 76.3978405 213.513857 76.5703926 213.330237 76.7887239 213.14712 77.0070552 213.007771 77.2631166 212.912188 77.5584172 212.816605 77.8532147 212.768814 78.1676319 212.768814 78.5011656 212.768814 78.8346994 212.816605 79.1491166 212.912188 79.4439141 213.007771 79.7392147 213.14712 79.9957791 213.330237 80.2141104 213.513857 80.4319387 213.735206 80.6049939 213.995292 80.7337791 214.254372 80.8620613 214.544642 80.9259509 214.865599 80.9259509 215.178507 80.9259509 215.468777 80.8620613 215.736409 80.7337791 216.003538 80.6049939 216.236458 80.4319387 216.435169 80.2141104 216.633881 79.9957791 216.790335 79.7392147 216.905035 79.4439141 217.019231 79.1491166 217.077084 78.8346994 217.077084 78.5011656zM217.008163 80.4253988L216.985022 80.4253988C216.877869 80.6311534 216.744556 80.8082331 216.584077 80.9581472 216.423599 81.1075583 216.250041 81.231816 216.0629 81.3299141 215.875758 81.4285153 215.679059 81.5009571 215.472801 81.5482454 215.266544 81.5950307 215.064311 81.6186748 214.865599 81.6186748 214.46063 81.6186748 214.086347 81.5417055 213.743255 81.3877669 213.399157 81.2338282 213.104863 81.0180123 212.860875 80.739816 212.615881 80.4621227 212.425722 80.1326135 212.287881 79.7522945 212.150544 79.3719755 212.081623 78.9549325 212.081623 78.5011656 212.081623 78.0484049 212.150544 77.631362 212.287881 77.2505399 212.425722 76.8702209 212.615881 76.5407117 212.860875 76.2630184 213.104863 75.9848221 213.399157 75.7690061 213.743255 75.6150675 214.086347 75.4611288 214.46063 75.3841595 214.865599 75.3841595 215.064311 75.3841595 215.266544 75.4078037 215.472801 75.455092 215.679059 75.5013742 215.875758 75.5748221 216.0629 75.6724172 216.250041 75.7710184 216.423599 75.8952761 216.584077 76.0446871 216.744556 76.1940982 216.877869 76.372184 216.985022 76.5769325L217.008163 76.5769325 217.008163 71.7666012 217.695354 71.7666012 217.695354 81.4647362 217.008163 81.4647362 217.008163 80.4253988 217.008163 80.4253988zM223.824225 78.0011166C223.824225 77.736 223.776433 77.4879877 223.681354 77.2570798 223.585268 77.0261718 223.455476 76.8229325 223.291476 76.647865 223.126973 76.4722945 222.932286 76.3334479 222.707415 76.2308221 222.482041 76.1276933 222.243084 76.0768834 221.991047 76.0768834 221.616765 76.0768834 221.305869 76.1624049 221.057857 76.3334479 220.809341 76.5044908 220.612642 76.7011902 220.467758 76.923546 220.322372 77.1459018 220.219243 77.3622209 220.158372 77.5714969 220.096998 77.7812761 220.066311 77.9241472 220.066311 78.0011166L223.824225 78.0011166zM224.351439 80.3484294C224.083808 80.8016933 223.753292 81.1271779 223.360396 81.3238773 222.966998 81.5200736 222.533354 81.6186748 222.059967 81.6186748 221.654998 81.6186748 221.288765 81.5417055 220.959758 81.3877669 220.631758 81.2338282 220.349035 81.0180123 220.112593 80.739816 219.875648 80.4621227 219.694544 80.1326135 219.568274 79.7522945 219.442507 79.3719755 219.37912 78.9504049 219.37912 78.488589 219.37912 78.0438773 219.444016 77.6333742 219.574311 77.2570798 219.703599 76.8807853 219.887219 76.5537914 220.12366 76.2755951 220.360605 75.9979018 220.639304 75.7795706 220.959758 75.6216074 221.280715 75.4631411 221.635881 75.3841595 222.025758 75.3841595 222.430225 75.3841595 222.787403 75.4631411 223.096286 75.6216074 223.406176 75.7795706 223.665255 75.9893497 223.875538 76.2499387 224.08582 76.5110307 224.244286 76.8078405 224.351439 77.1413742 224.45809 77.474908 224.511415 77.8129693 224.511415 78.1550552L224.511415 78.6938405 220.066311 78.6938405C220.066311 78.8563313 220.095488 79.0635951 220.152335 79.3156319 220.209685 79.5681718 220.314323 79.8146748 220.467758 80.0536319 220.620188 80.293092 220.824433 80.4983436 221.080495 80.6693865 221.336053 80.8404294 221.666568 80.9259509 222.071035 80.9259509 222.422679 80.9259509 222.762249 80.8318773 223.091255 80.6437301 223.419255 80.4555828 223.671292 80.1990184 223.847366 79.8740368L224.351439 80.3484294 224.351439 80.3484294zM230.77863 80.5919141C230.518544 80.9430552 230.224752 81.2016319 229.896752 81.3681472 229.568249 81.5351656 229.213084 81.6186748 228.831255 81.6186748 228.426286 81.6186748 228.052004 81.5417055 227.708409 81.3877669 227.364814 81.2338282 227.070519 81.0180123 226.826531 80.739816 226.581538 80.4621227 226.390875 80.1326135 226.253538 79.7522945 226.115697 79.3719755 226.04728 78.9549325 226.04728 78.5011656 226.04728 78.0484049 226.115697 77.631362 226.253538 77.2505399 226.390875 76.8702209 226.581538 76.5407117 226.826531 76.2630184 227.070519 75.9848221 227.364814 75.7690061 227.708409 75.6150675 228.052004 75.4611288 228.426286 75.3841595 228.831255 75.3841595 229.22063 75.3841595 229.581329 75.4742086 229.913857 75.6533006 230.245881 75.8333988 230.541685 76.0854356 230.801771 76.4104172L230.251415 76.8722331C230.053206 76.6242209 229.835378 76.4295337 229.598433 76.2886748 229.361992 76.147816 229.106433 76.0768834 228.831255 76.0768834 228.510298 76.0768834 228.220028 76.1412761 227.960446 76.2695583 227.700863 76.3978405 227.47901 76.5703926 227.295893 76.7887239 227.112777 77.0070552 226.973427 77.2631166 226.877844 77.5584172 226.782261 77.8532147 226.73447 78.1676319 226.73447 78.5011656 226.73447 78.8346994 226.782261 79.1491166 226.877844 79.4439141 226.973427 79.7392147 227.112777 79.9957791 227.295893 80.2141104 227.47901 80.4319387 227.700863 80.6049939 227.960446 80.7337791 228.220028 80.8620613 228.510298 80.9259509 228.831255 80.9259509 229.121525 80.9259509 229.386642 80.8509939 229.627611 80.7010798 229.867574 80.5516687 230.075844 80.3529571 230.251415 80.1049448L230.77863 80.5919141"/>
    <polyline fill="#5E5E5E" points="232.382 71.767 233.07 71.767 233.07 78.232 235.682 75.551 236.69 75.551 233.963 78.258 237.011 81.465 235.968 81.465 233.07 78.335 233.07 81.465 232.382 81.465 232.382 71.767"/>
    <path fill="#5E5E5E" d="M242.337611,78.0011166 C242.337611,77.736 242.28982,77.4879877 242.194237,77.2570798 C242.098654,77.0261718 241.968863,76.8229325 241.804863,76.647865 C241.64036,76.4722945 241.445673,76.3334479 241.220801,76.2308221 C240.995427,76.1276933 240.75647,76.0768834 240.504433,76.0768834 C240.130151,76.0768834 239.819255,76.1624049 239.571243,76.3334479 C239.322225,76.5044908 239.126028,76.7011902 238.981145,76.923546 C238.835758,77.1459018 238.73263,77.3622209 238.671255,77.5714969 C238.609881,77.7812761 238.579697,77.9241472 238.579697,78.0011166 L242.337611,78.0011166 Z M242.864323,80.3484294 C242.597194,80.8016933 242.266679,81.1271779 241.873783,81.3238773 C241.479881,81.5200736 241.04674,81.6186748 240.573354,81.6186748 C240.168384,81.6186748 239.802151,81.5417055 239.473145,81.3877669 C239.145145,81.2338282 238.861918,81.0180123 238.625979,80.739816 C238.389035,80.4621227 238.20793,80.1326135 238.08166,79.7522945 C237.955893,79.3719755 237.892507,78.9504049 237.892507,78.488589 C237.892507,78.0438773 237.957403,77.6333742 238.087194,77.2570798 C238.216985,76.8807853 238.400102,76.5537914 238.637047,76.2755951 C238.873992,75.9979018 239.152188,75.7795706 239.473145,75.6216074 C239.794102,75.4631411 240.149268,75.3841595 240.538642,75.3841595 C240.943611,75.3841595 241.300789,75.4631411 241.609673,75.6216074 C241.919059,75.7795706 242.178642,75.9893497 242.388924,76.2499387 C242.599206,76.5110307 242.757673,76.8078405 242.864323,77.1413742 C242.970973,77.474908 243.024801,77.8129693 243.024801,78.1550552 L243.024801,78.6938405 L238.579697,78.6938405 C238.579697,78.8563313 238.608372,79.0635951 238.665722,79.3156319 C238.723071,79.5681718 238.827709,79.8146748 238.981145,80.0536319 C239.133071,80.293092 239.33782,80.4983436 239.593378,80.6693865 C239.849439,80.8404294 240.179452,80.9259509 240.584421,80.9259509 C240.935562,80.9259509 241.275636,80.8318773 241.604642,80.6437301 C241.932642,80.4555828 242.184679,80.1990184 242.360249,79.8740368 L242.864323,80.3484294 L242.864323,80.3484294 Z"/>
    <path fill="#00AAF0" d="M22.084102,26.8653129 C27.4281879,11.1992883 42.3471572,0 59.7764333,0 C77.2238198,0 92.1407768,11.3728466 97.322875,26.8653129 L97.3133167,26.8839264 L97.2650222,26.8864417 L97.2373535,26.8653129 C91.5763351,13.6653252 78.2279425,4.3258773 62.853194,4.3258773 C47.6122615,4.3258773 34.3634762,13.6839387 28.5661265,26.8653129 L22.084102,26.8653129"/>
    <path fill="#00AAF0" d="M47.4215989,70.5265399 C31.2188014,73.6289571 14.0234517,66.4109448 5.30881364,51.3159018 C-3.41286734,36.2072761 -1.02329679,17.600319 9.80372162,5.36722699 L9.82183205,5.36722699 L9.85000383,5.40646626 L9.84497315,5.44117791 C1.24402837,16.9458282 -0.204302923,33.1928957 7.48307131,46.5065767 C15.1659179,59.8132147 29.8308382,66.5684049 44.1808382,64.9118037 L47.4215989,70.5265399"/>
    <path fill="#00AAF0" d="M72.5201388,26.8069571 C83.3094271,39.2880613 85.6854149,57.8205644 76.9707768,72.9156074 C68.2495989,88.0247362 50.940556,95.2583436 34.9339547,91.996454 L34.9223842,91.9803558 L34.943513,91.936589 L34.9757093,91.9250184 C49.2376725,93.6208589 63.8170713,86.7544908 71.5044455,73.4382945 C79.1872922,60.1316564 77.8893781,44.0214233 69.278875,32.4216933 L72.5201388,26.8069571"/>
  </g>
</svg>
